<?xml version="1.0" encoding="iso-8859-1"?>
<!-- Generator: Adobe Illustrator 19.1.0, SVG Export Plug-In . SVG Version: 6.00 Build 0)  -->
<svg version="1.1" id="Capa_1" xmlns="http://www.w3.org/2000/svg" xmlns:xlink="http://www.w3.org/1999/xlink" x="0px" y="0px"
	 viewBox="0 0 310.895 310.895" style="enable-background:new 0 0 310.895 310.895;" xml:space="preserve">
<g>
	<path style="fill:#FFFFFF;" d="M15.973,137.522c-0.625,1.486-0.973,3.118-0.973,4.829v43.338c0,1.466,0.266,2.866,0.733,4.174
		L25,180.595V146.55L15.973,137.522z"/>
	<path style="fill:#FFFFFF;" d="M76.359,67.337c22.217-14.907,51.593-23.366,83.088-24.029c-1.332-0.029-2.661-0.066-4-0.066
		c-33.004,0-63.932,8.558-87.088,24.095C48.848,80.431,37.031,97.08,34.428,114.852h8C45.031,97.08,56.848,80.431,76.359,67.337z"/>
	<path style="fill:#FFFFFF;" d="M31.617,255.152v-41.963h-10v41.963c0,6.893,5.607,12.5,12.5,12.5h10
		C37.225,267.652,31.617,262.045,31.617,255.152z"/>
	<path style="fill:#FFFFFF;" d="M149.856,213.189h-8.116c0.316,6.613,5.779,11.9,12.469,11.9h2.477c0.972,0,1.912-0.123,2.819-0.334
		C154.162,223.515,150.127,218.843,149.856,213.189z"/>
	<polygon style="fill:#FF8269;" points="165.73,198.203 213.807,198.203 189.719,174.179 	"/>
	<polygon style="fill:#FF8269;" points="97.129,198.203 145.256,198.203 121.174,174.179 	"/>
	
		<rect x="207.258" y="146.838" transform="matrix(0.7071 -0.7071 0.7071 0.7071 -50.0573 206.2956)" style="fill:#FF8269;" width="33.469" height="33.469"/>
	<polygon style="fill:#FF8269;" points="234.254,198.203 282.275,198.203 258.266,174.18 	"/>
	<path style="fill:#FF8269;" d="M268.871,163.572l26.291,26.291c0.465-1.308,0.733-2.708,0.733-4.174v-43.338
		c0-1.711-0.348-3.343-0.973-4.829L268.871,163.572z"/>
	
		<rect x="70.168" y="146.838" transform="matrix(-0.7071 -0.7071 0.7071 -0.7071 32.6794 340.6816)" style="fill:#FF8269;" width="33.467" height="33.469"/>
	<polygon style="fill:#FFFFFF;" points="68.742,136.852 75.742,129.852 29.516,129.852 52.629,152.966 55.629,149.966 
		42.516,136.852 	"/>
	
		<rect x="138.713" y="146.838" transform="matrix(-0.7071 -0.7071 0.7071 -0.7071 149.7021 389.1532)" style="fill:#FF8269;" width="33.469" height="33.469"/>
	<polygon style="fill:#FF8269;" points="52.629,174.18 28.619,198.203 76.758,198.203 	"/>
	
		<rect x="70.167" y="146.839" transform="matrix(0.7071 0.7071 -0.7071 0.7071 141.1159 -13.5394)" style="fill:none;" width="33.469" height="33.467"/>
	
		<rect x="138.713" y="146.838" transform="matrix(0.7071 0.7071 -0.7071 0.7071 161.1925 -62.0086)" style="fill:none;" width="33.469" height="33.469"/>
	<polygon style="fill:none;" points="76.758,198.203 52.629,174.18 28.619,198.203 	"/>
	<polygon style="fill:none;" points="121.174,174.179 97.129,198.203 145.256,198.203 	"/>
	<polygon style="fill:none;" points="189.719,174.179 165.73,198.203 213.807,198.203 	"/>
	<path style="fill:none;" d="M268.871,163.572l26.291,26.291c0.465-1.308,0.733-2.708,0.733-4.174v-43.338
		c0-1.711-0.348-3.343-0.973-4.829L268.871,163.572z"/>
	
		<rect x="207.258" y="146.838" transform="matrix(0.7071 0.7071 -0.7071 0.7071 181.2689 -110.4772)" style="fill:none;" width="33.469" height="33.469"/>
	<polygon style="fill:none;" points="258.266,174.18 234.254,198.203 282.275,198.203 	"/>
	<polygon style="fill:none;" points="205.162,137.522 212.832,129.852 166.605,129.852 174.276,137.522 189.719,152.966 	"/>
	<polygon style="fill:none;" points="98.061,129.852 105.73,137.522 121.174,152.966 136.617,137.522 144.287,129.852 	"/>
	<polygon style="fill:none;" points="121.174,174.179 97.129,198.203 145.256,198.203 	"/>
	<polygon style="fill:none;" points="189.719,174.179 165.73,198.203 213.807,198.203 	"/>
	
		<rect x="138.713" y="146.838" transform="matrix(0.7071 0.7071 -0.7071 0.7071 161.1925 -62.0086)" style="fill:none;" width="33.469" height="33.469"/>
	
		<rect x="70.167" y="146.839" transform="matrix(0.7071 0.7071 -0.7071 0.7071 141.1159 -13.5394)" style="fill:none;" width="33.469" height="33.467"/>
	<polygon style="fill:none;" points="28.619,198.203 76.758,198.203 52.629,174.18 	"/>
	<path style="fill:none;" d="M268.871,163.572l26.291,26.291c0.465-1.308,0.733-2.708,0.733-4.174v-43.338
		c0-1.711-0.348-3.343-0.973-4.829L268.871,163.572z"/>
	
		<rect x="207.258" y="146.838" transform="matrix(0.7071 0.7071 -0.7071 0.7071 181.2689 -110.4772)" style="fill:none;" width="33.469" height="33.469"/>
	<polygon style="fill:none;" points="281.379,129.852 235.15,129.852 242.822,137.522 258.266,152.966 273.709,137.522 	"/>
	<polygon style="fill:none;" points="258.266,174.18 234.254,198.203 282.275,198.203 	"/>
	<path style="fill:#FFAB97;" d="M76.359,67.337C56.848,80.431,45.031,97.08,42.428,114.852h3.6
		c2.725-16.119,14.223-30.836,33.07-42.035c20.512-12.189,47.627-18.9,76.35-18.9c28.723,0,55.836,6.712,76.35,18.9
		c18.848,11.199,30.346,25.916,33.07,42.035h11.6c-2.603-17.771-14.42-34.421-33.934-47.515
		c-22.214-14.906-51.592-23.365-83.083-24.029c-0.001,0-0.002,0-0.003,0C127.952,43.971,98.576,52.43,76.359,67.337z"/>
	
		<rect x="138.713" y="146.838" transform="matrix(0.7071 0.7071 -0.7071 0.7071 161.1925 -62.0086)" style="fill:none;" width="33.469" height="33.469"/>
	<polygon style="fill:none;" points="205.162,137.522 212.832,129.852 166.605,129.852 174.276,137.522 189.719,152.966 	"/>
	<polygon style="fill:none;" points="144.287,129.852 98.061,129.852 105.73,137.522 121.174,152.966 136.617,137.522 	"/>
	<polygon style="fill:none;" points="189.719,174.179 165.73,198.203 213.807,198.203 	"/>
	<path style="fill:none;" d="M295.162,189.863c0.465-1.308,0.733-2.708,0.733-4.174v-43.338c0-1.711-0.348-3.343-0.973-4.829
		l-26.051,26.05L295.162,189.863z"/>
	<polygon style="fill:none;" points="258.266,174.18 234.254,198.203 282.275,198.203 	"/>
	
		<rect x="207.258" y="146.838" transform="matrix(-0.7071 -0.7071 0.7071 -0.7071 266.7155 437.6218)" style="fill:none;" width="33.469" height="33.469"/>
	<polygon style="fill:none;" points="145.256,198.203 121.174,174.179 97.129,198.203 	"/>
	<path style="fill:none;" d="M31.617,255.152v-41.963h-10v41.963c0,6.893,5.607,12.5,12.5,12.5h10
		C37.225,267.652,31.617,262.045,31.617,255.152z"/>
	
		<rect x="70.166" y="146.838" transform="matrix(-0.7071 0.7071 -0.7071 -0.7071 264.0114 217.7875)" style="fill:none;" width="33.469" height="33.469"/>
	<polygon style="fill:none;" points="242.822,137.522 258.266,152.966 273.709,137.522 281.379,129.852 235.15,129.852 	"/>
	<path style="fill:none;" d="M46.027,114.852c2.725-16.119,14.223-30.836,33.07-42.035c20.512-12.189,47.627-18.9,76.35-18.9
		c28.723,0,55.836,6.712,76.35,18.9c18.848,11.199,30.346,25.916,33.07,42.035h11.6c-2.603-17.771-14.42-34.421-33.934-47.515
		c-22.214-14.906-51.592-23.365-83.083-24.029c-1.333-0.029-2.663-0.066-4.003-0.066c-33.004,0-63.932,8.558-87.088,24.095
		C48.848,80.431,37.031,97.08,34.428,114.852h8H46.027z"/>
	<polygon style="fill:none;" points="28.619,198.203 76.758,198.203 52.629,174.18 	"/>
	<path style="fill:#FF8269;" d="M289.277,255.152v-41.963H184.17c-0.322,14.887-12.523,26.9-27.484,26.9h-2.477
		c-14.961,0-27.162-12.014-27.484-26.9H31.617v41.963c0,6.893,5.607,12.5,12.5,12.5h232.66
		C283.67,267.652,289.277,262.045,289.277,255.152z"/>
	<polygon style="fill:none;" points="121.174,174.179 97.129,198.203 145.256,198.203 	"/>
	<polygon style="fill:none;" points="189.719,174.179 165.73,198.203 213.807,198.203 	"/>
	<polygon style="fill:none;" points="205.162,137.522 212.832,129.852 166.605,129.852 174.276,137.522 189.719,152.966 	"/>
	<polygon style="fill:none;" points="28.619,198.203 76.758,198.203 52.629,174.18 	"/>
	
		<rect x="70.167" y="146.839" transform="matrix(0.7071 0.7071 -0.7071 0.7071 141.1159 -13.5394)" style="fill:none;" width="33.469" height="33.467"/>
	<polygon style="fill:none;" points="98.061,129.852 105.73,137.522 121.174,152.966 136.617,137.522 144.287,129.852 	"/>
	
		<rect x="138.713" y="146.838" transform="matrix(0.7071 0.7071 -0.7071 0.7071 161.1925 -62.0086)" style="fill:none;" width="33.469" height="33.469"/>
	
		<rect x="207.258" y="146.838" transform="matrix(0.7071 0.7071 -0.7071 0.7071 181.2689 -110.4772)" style="fill:none;" width="33.469" height="33.469"/>
	<path style="fill:none;" d="M156.686,240.09h-2.477c-14.961,0-27.162-12.014-27.484-26.9H31.617h-10v41.963
		c0,6.893,5.607,12.5,12.5,12.5h10h232.66c6.893,0,12.5-5.607,12.5-12.5v-41.963H184.17
		C183.848,228.076,171.646,240.09,156.686,240.09z"/>
	<path style="fill:none;" d="M268.871,163.572l26.291,26.291c0.465-1.308,0.733-2.708,0.733-4.174v-43.338
		c0-1.711-0.348-3.343-0.973-4.829L268.871,163.572z"/>
	<polygon style="fill:none;" points="258.266,174.18 234.254,198.203 282.275,198.203 	"/>
	<path style="fill:none;" d="M46.027,114.852c2.725-16.119,14.223-30.836,33.07-42.035c20.512-12.189,47.627-18.9,76.35-18.9
		c28.723,0,55.836,6.712,76.35,18.9c18.848,11.199,30.346,25.916,33.07,42.035h11.6c-2.603-17.771-14.42-34.421-33.934-47.515
		c-22.214-14.906-51.592-23.365-83.083-24.029c-1.333-0.029-2.663-0.066-4.003-0.066c-33.004,0-63.932,8.558-87.088,24.095
		C48.848,80.431,37.031,97.08,34.428,114.852h8H46.027z"/>
	<polygon style="fill:none;" points="281.379,129.852 235.15,129.852 242.822,137.522 258.266,152.966 273.709,137.522 	"/>
	<path style="fill:#FFAB97;" d="M159.505,224.756c5.343-1.241,9.379-5.913,9.649-11.566h-19.298
		C150.127,218.843,154.162,223.515,159.505,224.756z"/>
	<polygon style="fill:none;" points="121.174,174.179 97.129,198.203 145.256,198.203 	"/>
	<polygon style="fill:none;" points="205.162,137.522 212.832,129.852 166.605,129.852 174.276,137.522 189.719,152.966 	"/>
	<path style="fill:none;" d="M154.209,225.09h2.477c0.971,0,1.911-0.123,2.819-0.334c5.343-1.241,9.379-5.913,9.649-11.566h-19.298
		h-8.116C142.057,219.803,147.52,225.09,154.209,225.09z"/>
	
		<rect x="70.167" y="146.839" transform="matrix(0.7071 0.7071 -0.7071 0.7071 141.1159 -13.5394)" style="fill:none;" width="33.469" height="33.467"/>
	<polygon style="fill:none;" points="52.629,174.18 28.619,198.203 76.758,198.203 	"/>
	
		<rect x="138.713" y="146.838" transform="matrix(0.7071 0.7071 -0.7071 0.7071 161.1925 -62.0086)" style="fill:none;" width="33.469" height="33.469"/>
	<polygon style="fill:none;" points="189.719,174.179 165.73,198.203 213.807,198.203 	"/>
	<polygon style="fill:none;" points="98.061,129.852 105.73,137.522 121.174,152.966 136.617,137.522 144.287,129.852 	"/>
	<polygon style="fill:none;" points="258.266,174.18 234.254,198.203 282.275,198.203 	"/>
	<path style="fill:none;" d="M156.686,240.09h-2.477c-14.961,0-27.162-12.014-27.484-26.9H31.617h-10v41.963
		c0,6.893,5.607,12.5,12.5,12.5h10h232.66c6.893,0,12.5-5.607,12.5-12.5v-41.963H184.17
		C183.848,228.076,171.646,240.09,156.686,240.09z"/>
	
		<rect x="207.258" y="146.838" transform="matrix(0.7071 0.7071 -0.7071 0.7071 181.2689 -110.4772)" style="fill:none;" width="33.469" height="33.469"/>
	<path style="fill:none;" d="M268.871,163.572l26.291,26.291c0.465-1.308,0.733-2.708,0.733-4.174v-43.338
		c0-1.711-0.348-3.343-0.973-4.829L268.871,163.572z"/>
	<path style="fill:none;" d="M46.027,114.852c2.725-16.119,14.223-30.836,33.07-42.035c20.512-12.189,47.627-18.9,76.35-18.9
		c28.723,0,55.836,6.712,76.35,18.9c18.848,11.199,30.346,25.916,33.07,42.035h11.6c-2.603-17.771-14.42-34.421-33.934-47.515
		c-22.214-14.906-51.592-23.365-83.083-24.029c-1.333-0.029-2.663-0.066-4.003-0.066c-33.004,0-63.932,8.558-87.088,24.095
		C48.848,80.431,37.031,97.08,34.428,114.852h8H46.027z"/>
	<polygon style="fill:none;" points="281.379,129.852 235.15,129.852 242.822,137.522 258.266,152.966 273.709,137.522 	"/>
	<polygon style="fill:#FF8269;" points="25,180.595 42.021,163.572 25,146.55 25,180.595 	"/>
	<polygon style="fill:none;" points="205.162,137.522 212.832,129.852 166.605,129.852 174.276,137.522 189.719,152.966 	"/>
	<polygon style="fill:none;" points="189.719,174.179 165.73,198.203 213.807,198.203 	"/>
	<polygon style="fill:none;" points="121.174,174.179 97.129,198.203 145.256,198.203 	"/>
	<polygon style="fill:none;" points="98.061,129.852 105.73,137.522 121.174,152.966 136.617,137.522 144.287,129.852 	"/>
	
		<rect x="70.167" y="146.839" transform="matrix(0.7071 0.7071 -0.7071 0.7071 141.1159 -13.5394)" style="fill:none;" width="33.469" height="33.467"/>
	
		<rect x="207.258" y="146.838" transform="matrix(0.7071 0.7071 -0.7071 0.7071 181.2689 -110.4772)" style="fill:none;" width="33.469" height="33.469"/>
	<polygon style="fill:none;" points="28.619,198.203 76.758,198.203 52.629,174.18 	"/>
	
		<rect x="138.713" y="146.838" transform="matrix(0.7071 0.7071 -0.7071 0.7071 161.1925 -62.0086)" style="fill:none;" width="33.469" height="33.469"/>
	<path style="fill:none;" d="M154.209,225.09h2.477c0.971,0,1.911-0.123,2.819-0.334c5.343-1.241,9.379-5.913,9.649-11.566h-19.298
		h-8.116C142.057,219.803,147.52,225.09,154.209,225.09z"/>
	<path style="fill:none;" d="M156.686,240.09h-2.477c-14.961,0-27.162-12.014-27.484-26.9H31.617h-10v41.963
		c0,6.893,5.607,12.5,12.5,12.5h10h232.66c6.893,0,12.5-5.607,12.5-12.5v-41.963H184.17
		C183.848,228.076,171.646,240.09,156.686,240.09z"/>
	<path style="fill:none;" d="M42.021,163.572L25,146.55l-9.027-9.027c-0.625,1.486-0.973,3.118-0.973,4.829v43.338
		c0,1.466,0.266,2.866,0.733,4.174L25,180.595L42.021,163.572z"/>
	<path style="fill:none;" d="M268.871,163.572l26.291,26.291c0.465-1.308,0.733-2.708,0.733-4.174v-43.338
		c0-1.711-0.348-3.343-0.973-4.829L268.871,163.572z"/>
	<polygon style="fill:none;" points="258.266,174.18 234.254,198.203 282.275,198.203 	"/>
	<polygon style="fill:none;" points="281.379,129.852 235.15,129.852 242.822,137.522 258.266,152.966 273.709,137.522 	"/>
	<path style="fill:none;" d="M46.027,114.852c2.725-16.119,14.223-30.836,33.07-42.035c20.512-12.189,47.627-18.9,76.35-18.9
		c28.723,0,55.836,6.712,76.35,18.9c18.848,11.199,30.346,25.916,33.07,42.035h11.6c-2.603-17.771-14.42-34.421-33.934-47.515
		c-22.214-14.906-51.592-23.365-83.083-24.029c-1.333-0.029-2.663-0.066-4.003-0.066c-33.004,0-63.932,8.558-87.088,24.095
		C48.848,80.431,37.031,97.08,34.428,114.852h8H46.027z"/>
	<polygon style="fill:#FF8269;" points="42.516,136.852 55.629,149.966 68.072,137.522 68.743,136.852 68.742,136.852 	"/>
	<g>
		<polygon style="fill:#FFFFFF;" points="137.287,136.852 144.287,129.852 98.061,129.852 121.174,152.966 124.174,149.966 
			111.061,136.852 		"/>
		<polygon style="fill:#FF8269;" points="111.061,136.852 124.174,149.966 136.617,137.522 137.288,136.852 137.287,136.852 		"/>
	</g>
	<g>
		<polygon style="fill:#FFFFFF;" points="205.832,136.852 212.832,129.852 166.605,129.852 189.719,152.966 192.719,149.966 
			179.605,136.852 		"/>
		<polygon style="fill:#FF8269;" points="179.605,136.852 192.719,149.966 205.162,137.522 205.833,136.852 205.832,136.852 		"/>
	</g>
	<g>
		<polygon style="fill:#FFFFFF;" points="274.379,136.852 281.379,129.852 235.152,129.852 258.266,152.966 261.266,149.966 
			248.152,136.852 		"/>
		<polygon style="fill:#FF8269;" points="248.152,136.852 261.266,149.966 273.709,137.522 274.38,136.852 274.379,136.852 		"/>
	</g>
	<path style="fill:#C03A3A;" d="M299.506,120.087c-2.346-1.703-4.967-3.046-7.785-3.943c-2.158-23.344-16.457-44.908-40.83-61.262
		c-25.6-17.179-59.496-26.64-95.443-26.64c-35.949,0-69.846,9.461-95.445,26.64C35.631,71.235,21.332,92.8,19.174,116.144
		c-2.82,0.898-5.441,2.241-7.787,3.944C11.096,120.275,0,127.964,0,142.352v43.338c0,6.814,2.496,13.054,6.617,17.862v51.601
		c0,15.163,12.336,27.5,27.5,27.5h242.66c15.164,0,27.5-12.337,27.5-27.5v-51.601c4.119-4.809,6.617-11.048,6.617-17.862v-43.338
		C310.895,128.315,299.799,120.275,299.506,120.087z M63.236,163.572L86.9,139.906l23.666,23.666L86.9,187.238L63.236,163.572z
		 M76.758,198.203H28.619l24.01-24.023L76.758,198.203z M155.447,139.906l23.666,23.666l-23.666,23.666l-23.666-23.666
		L155.447,139.906z M121.174,152.966l-15.443-15.443l-7.67-7.671h46.226l-7.67,7.671L121.174,152.966z M174.276,137.522
		l-7.671-7.671h46.227l-7.67,7.671l-15.443,15.443L174.276,137.522z M61.359,114.852c2.793-10.778,11.568-20.922,25.4-29.14
		c18.229-10.831,42.621-16.796,68.688-16.796c26.064,0,50.459,5.965,68.687,16.796c13.83,8.219,22.606,18.361,25.4,29.14H61.359z
		 M121.174,174.179l24.082,24.024H97.129L121.174,174.179z M149.856,213.189h19.298c-0.271,5.653-4.307,10.325-9.649,11.566
		c-0.908,0.211-1.849,0.334-2.819,0.334h-2.477c-6.689,0-12.152-5.287-12.469-11.9H149.856z M165.73,198.203l23.988-24.024
		l24.088,24.024H165.73z M200.326,163.572l23.666-23.666l23.666,23.666l-23.666,23.666L200.326,163.572z M258.266,174.18
		l24.01,24.023h-48.021L258.266,174.18z M242.822,137.522l-7.672-7.671h46.229l-7.67,7.671l-15.443,15.443L242.822,137.522z
		 M68.359,67.337c23.156-15.537,54.084-24.095,87.088-24.095c1.34,0,2.67,0.036,4.003,0.066
		c31.491,0.664,60.869,9.123,83.083,24.029c19.514,13.094,31.33,29.743,33.934,47.515h-11.6
		c-2.725-16.119-14.223-30.836-33.07-42.035c-20.514-12.189-47.627-18.9-76.35-18.9c-28.723,0-55.838,6.712-76.35,18.9
		c-18.848,11.199-30.346,25.916-33.07,42.035h-3.6h-8C37.031,97.08,48.848,80.431,68.359,67.337z M75.742,129.852l-6.999,7
		l-0.671,0.671l-12.443,12.443l-3,3l-15.443-15.443l-7.67-7.671H75.742z M15,185.689v-43.338c0-1.711,0.348-3.343,0.973-4.829
		L25,146.55l17.021,17.022L25,180.595l-9.267,9.268C15.266,188.556,15,187.155,15,185.689z M289.277,255.152
		c0,6.893-5.607,12.5-12.5,12.5H44.117h-10c-6.893,0-12.5-5.607-12.5-12.5v-41.963h10h95.107c0.322,14.887,12.523,26.9,27.484,26.9
		h2.477c14.961,0,27.162-12.014,27.484-26.9h105.107V255.152z M295.895,185.689c0,1.466-0.268,2.866-0.733,4.174l-26.291-26.291
		l26.051-26.05c0.625,1.486,0.973,3.118,0.973,4.829V185.689z"/>
</g>
<g>
</g>
<g>
</g>
<g>
</g>
<g>
</g>
<g>
</g>
<g>
</g>
<g>
</g>
<g>
</g>
<g>
</g>
<g>
</g>
<g>
</g>
<g>
</g>
<g>
</g>
<g>
</g>
<g>
</g>
</svg>
