<?xml version="1.0" encoding="iso-8859-1"?>
<!-- Generator: Adobe Illustrator 19.1.0, SVG Export Plug-In . SVG Version: 6.00 Build 0)  -->
<svg version="1.1" id="Capa_1" xmlns="http://www.w3.org/2000/svg" xmlns:xlink="http://www.w3.org/1999/xlink" x="0px" y="0px"
	 viewBox="0 0 368.127 368.127" style="enable-background:new 0 0 368.127 368.127;" xml:space="preserve">
<path style="fill:#FFFFFF;" d="M158.307,268.759c0-36.588,19.475-79.894,35.927-79.894c0.066,0,0.133,0.007,0.199,0.008
	c-3.453-3.246-6.975-5.093-10.369-5.093c-16.452,0-35.927,43.307-35.927,79.895c0,24.688,10.144,41.962,26.534,46.646
	C164.36,302.482,158.307,287.831,158.307,268.759z"/>
<path style="fill:#FF8269;" d="M158.307,268.759c0,19.072,6.054,33.723,16.364,41.561c2.939,0.839,6.075,1.28,9.393,1.28
	c21.824,0,35.927-18.812,35.927-47.926c0-29.041-12.27-62.311-25.558-74.802c-0.066-0.001-0.133-0.008-0.199-0.008
	C177.781,188.864,158.307,232.171,158.307,268.759z"/>
<path style="fill:#FFFFFF;" d="M185.259,22.346h15.398c-0.445-4.123-3.944-7.346-8.184-7.346h-16.82
	c-4.54,0-8.233,3.695-8.233,8.234v23.986c3.107-0.503,6.321-0.85,9.605-1.066V30.58C177.025,26.041,180.719,22.346,185.259,22.346z"
	/>
<path style="fill:#FF8269;" d="M177.025,30.58v15.574c2.28-0.15,4.59-0.248,6.942-0.25c0.04-0.002,0.08-0.002,0.119-0.002
	c5.768,0.004,11.334,0.463,16.62,1.318V23.234c0-0.301-0.019-0.597-0.05-0.889h-15.398C180.719,22.346,177.025,26.041,177.025,30.58
	z"/>
<path style="fill:none;" d="M183.968,45.904c0.04-0.002,0.08-0.002,0.119-0.002c5.768,0.004,11.334,0.463,16.62,1.318V23.234
	c0-0.301-0.019-0.597-0.05-0.889c-0.445-4.123-3.944-7.346-8.184-7.346h-16.82c-4.54,0-8.233,3.695-8.233,8.234v23.986
	c3.107-0.503,6.321-0.85,9.605-1.066C179.306,46.004,181.615,45.906,183.968,45.904z"/>
<path style="fill:none;" d="M183.968,45.904c0.04-0.002,0.08-0.002,0.119-0.002c5.768,0.004,11.334,0.463,16.62,1.318V23.234
	c0-0.301-0.019-0.597-0.05-0.889c-0.445-4.123-3.944-7.346-8.184-7.346h-16.82c-4.54,0-8.233,3.695-8.233,8.234v23.986
	c3.107-0.503,6.321-0.85,9.605-1.066C179.306,46.004,181.615,45.906,183.968,45.904z"/>
<path style="fill:none;" d="M204.524,177.912c-0.811-0.771-1.63-1.518-2.467-2.205c-0.041-0.016-0.083-0.025-0.125-0.04
	c-5.438-4.349-11.425-6.888-17.869-6.888c-30.615,0-50.927,57.115-50.927,94.895c0,43.469,25.578,62.926,50.927,62.926
	s50.927-19.457,50.927-62.926C234.99,235.132,223.395,195.561,204.524,177.912z"/>
<path style="fill:none;" d="M183.968,45.904c0.04-0.002,0.08-0.002,0.119-0.002c5.768,0.004,11.334,0.463,16.62,1.318V23.234
	c0-0.301-0.019-0.597-0.05-0.889c-0.445-4.123-3.944-7.346-8.184-7.346h-16.82c-4.54,0-8.233,3.695-8.233,8.234v23.986
	c3.107-0.503,6.321-0.85,9.605-1.066C179.306,46.004,181.615,45.906,183.968,45.904z"/>
<path style="fill:none;" d="M183.968,45.904c0.04-0.002,0.08-0.002,0.119-0.002c5.768,0.004,11.334,0.463,16.62,1.318V23.234
	c0-0.301-0.019-0.597-0.05-0.889c-0.445-4.123-3.944-7.346-8.184-7.346h-16.82c-4.54,0-8.233,3.695-8.233,8.234v23.986
	c3.107-0.503,6.321-0.85,9.605-1.066C179.306,46.004,181.615,45.906,183.968,45.904z"/>
<path style="fill:#C03A3A;" d="M237.267,149.201c-0.045-0.057-4.478-5.68-6.172-13.793c-2.145-10.271,1.015-19.986,9.388-28.877
	c5.316-5.643,8.127-12.57,8.127-20.031c0-15.475-13.124-28.668-32.902-35.531V23.234C215.707,10.424,205.284,0,192.474,0h-16.82
	c-12.811,0-23.233,10.424-23.233,23.234v27.732c-19.779,6.863-32.903,20.057-32.903,35.533c0,7.461,2.811,14.389,8.127,20.031
	c8.374,8.891,11.532,18.605,9.388,28.877c-1.693,8.113-6.127,13.736-6.145,13.76c-0.022,0.027-0.044,0.053-0.064,0.08
	c-19.753,24.865-31.081,61.943-31.081,101.729c0,48.543,17.013,92.773,44.399,115.43c1.345,1.111,3.035,1.721,4.78,1.721h70.285
	c1.745,0,3.436-0.609,4.781-1.723c27.386-22.656,44.398-66.887,44.398-115.428C268.386,211.189,257.057,174.111,237.267,149.201z
	 M167.42,23.234c0-4.539,3.693-8.234,8.233-8.234h16.82c4.239,0,7.738,3.223,8.184,7.346c0.031,0.292,0.05,0.588,0.05,0.889v23.986
	c-5.286-0.855-10.853-1.314-16.62-1.318c-0.039,0-0.079,0-0.119,0.002c-2.353,0.002-4.662,0.1-6.942,0.25
	c-3.284,0.217-6.498,0.563-9.605,1.066V23.234z M155.616,353.127h-3.917c-0.814-0.727-1.614-1.482-2.406-2.256
	c-21.433-20.919-34.552-58.475-34.552-99.895c0-36.439,10.131-70.102,27.797-92.361c8.805-10.814,19.262-37.699-3.977-62.369
	c-2.646-2.809-4.045-6.18-4.045-9.746c0-25.941,49.511-25.596,49.547-25.596c0.005,0,26.672-0.257,40.875,9.909
	c0.513,0.367,1.014,0.745,1.492,1.14c0,0,0.001,0.001,0.002,0.001c4.326,3.572,7.177,8.295,7.177,14.546
	c0,3.566-1.398,6.938-4.045,9.746c-23.235,24.668-12.781,51.551-3.978,62.367c17.668,22.26,27.799,55.92,27.799,92.363
	c0,42.947-14.103,81.752-36.958,102.15h-58.799H155.616z"/>
<path style="fill:none;" d="M194.433,188.872c-3.453-3.246-6.975-5.093-10.369-5.093c-16.452,0-35.927,43.307-35.927,79.895
	c0,24.688,10.144,41.962,26.534,46.646c2.939,0.839,6.075,1.28,9.393,1.28c21.824,0,35.927-18.812,35.927-47.926
	C219.99,234.633,207.721,201.363,194.433,188.872z"/>
<path style="fill:none;" d="M202.058,175.707c-0.041-0.016-0.083-0.025-0.125-0.04c0.878,0.702,1.743,1.451,2.592,2.245
	C203.714,177.141,202.895,176.395,202.058,175.707z"/>
<g>
	<path style="fill:#FFFFFF;" d="M154.045,164.171c8.805-10.814,19.262-37.699-3.977-62.369c-2.646-2.809-4.045-6.18-4.045-9.746
		c0-25.941,49.511-25.596,49.547-25.596c0.004,0,15.658-0.147,29.368,4.354c-14.203-10.166-40.87-9.909-40.875-9.909
		c-0.036,0-49.547-0.346-49.547,25.596c0,3.566,1.398,6.938,4.045,9.746c23.238,24.67,12.781,51.555,3.977,62.369
		c-17.666,22.26-27.797,55.922-27.797,92.361c0,41.419,13.119,78.976,34.552,99.895c0.792,0.773,1.592,1.529,2.406,2.256h3.917
		h2.013c-19.545-21.427-31.381-57.264-31.381-96.595C126.248,220.093,136.379,186.431,154.045,164.171z"/>
	<path style="fill:#FFAB97;" d="M225.587,158.613c-8.804-10.816-19.258-37.699,3.978-62.367c2.646-2.809,4.045-6.18,4.045-9.746
		c0-6.251-2.851-10.974-7.177-14.546c-0.001,0-0.002-0.001-0.002-0.001c-0.479-0.395-0.979-0.772-1.492-1.14
		c-13.71-4.501-29.364-4.354-29.368-4.354c-0.036,0-49.547-0.346-49.547,25.596c0,3.566,1.398,6.938,4.045,9.746
		c23.238,24.67,12.781,51.555,3.977,62.369c-17.666,22.26-27.797,55.922-27.797,92.361c0,39.331,11.836,75.168,31.381,96.595h58.799
		c22.855-20.398,36.958-59.203,36.958-102.15C253.386,214.533,243.255,180.873,225.587,158.613z M184.064,326.6
		c-25.349,0-50.927-19.457-50.927-62.926c0-37.779,20.312-94.895,50.927-94.895c6.444,0,12.431,2.539,17.869,6.888
		c0.878,0.702,1.743,1.451,2.592,2.245c18.87,17.648,30.466,57.22,30.466,85.762C234.99,307.143,209.412,326.6,184.064,326.6z"/>
</g>
<path style="fill:#C03A3A;" d="M204.524,177.912c-0.849-0.794-1.714-1.543-2.592-2.245c-5.438-4.349-11.425-6.888-17.869-6.888
	c-30.615,0-50.927,57.115-50.927,94.895c0,43.469,25.578,62.926,50.927,62.926s50.927-19.457,50.927-62.926
	C234.99,235.132,223.395,195.561,204.524,177.912z M184.064,311.6c-3.317,0-6.454-0.441-9.393-1.28
	c-16.391-4.684-26.534-21.958-26.534-46.646c0-36.588,19.475-79.895,35.927-79.895c3.394,0,6.916,1.847,10.369,5.093
	c13.288,12.491,25.558,45.761,25.558,74.802C219.99,292.787,205.888,311.6,184.064,311.6z"/>
<g>
</g>
<g>
</g>
<g>
</g>
<g>
</g>
<g>
</g>
<g>
</g>
<g>
</g>
<g>
</g>
<g>
</g>
<g>
</g>
<g>
</g>
<g>
</g>
<g>
</g>
<g>
</g>
<g>
</g>
</svg>
