<?xml version="1.0" encoding="iso-8859-1"?>
<!-- Generator: Adobe Illustrator 19.1.0, SVG Export Plug-In . SVG Version: 6.00 Build 0)  -->
<svg version="1.1" id="Capa_1" xmlns="http://www.w3.org/2000/svg" xmlns:xlink="http://www.w3.org/1999/xlink" x="0px" y="0px"
	 viewBox="0 0 333.705 333.705" style="enable-background:new 0 0 333.705 333.705;" xml:space="preserve">
<g>
	<path style="fill:#FFFFFF;" d="M26.327,249.584c-4.482-20.115,3.127-43.543,12.709-60.911c0.697-6.076,1.765-12.444,3.285-19.127
		c-2.315,2.601-4.777,5.709-7.318,9.412c-11.982,17.468-24.064,46.446-18.676,70.626c3.484,15.625,12.846,33.369,52.988,35.995
		c-0.403-0.4-0.812-0.827-1.221-1.246C37.358,279.388,29.459,263.632,26.327,249.584z"/>
	<path style="fill:#FFAB97;" d="M26.327,249.584c3.133,14.048,11.031,29.804,41.768,34.75c-4.837-4.967-9.953-11.219-14.578-18.941
		c-9.698-16.192-18.536-41.369-14.481-76.719C29.454,206.04,21.844,229.469,26.327,249.584z"/>
	<path style="fill:#FFFFFF;" d="M175.694,252.243H158.02c-0.229,3.449-0.862,6.791-1.864,10h21.394
		C176.531,258.944,175.916,255.59,175.694,252.243z"/>
	<path style="fill:#FF8269;" d="M156.156,262.243L156.156,262.243c-0.931,2.98-2.177,5.847-3.741,8.571h28.83
		c-1.58-2.781-2.794-5.655-3.695-8.571l0,0H156.156z"/>
	<path style="fill:#FFFFFF;" d="M53.348,298.727l4.119,9.91h10l-3.513-8.452C60.26,299.829,56.718,299.348,53.348,298.727z"/>
	<path style="fill:#FFFFFF;" d="M76.385,257.684c-25.053-43.585-9.027-89.965-5.893-97.957c-3.24-0.787-6.422-1.211-9.498-1.211
		c-0.064,0-22.139,51.274,5.391,99.168c9.475,16.482,21.947,24.909,26.396,27.679c2.9-0.259,5.694-0.609,8.378-1.045
		C95.796,280.771,84.892,272.482,76.385,257.684z"/>
	<path style="fill:#FFFFFF;" d="M272.711,158.516c-3.11,0-6.328,0.433-9.605,1.236c2.553,8.44,16.045,58.704-5.381,97.249
		c-8.409,15.127-19.72,23.67-25.208,27.312c2.685,0.437,5.48,0.788,8.384,1.047c4.541-2.858,17.484-11.559,26.824-28.359
		C291.188,214.79,272.774,158.516,272.711,158.516z"/>
	<path style="fill:#FFFFFF;" d="M298.704,178.96c-2.541-3.704-5.004-6.813-7.32-9.415c1.521,6.683,2.588,13.051,3.285,19.126
		c9.584,17.367,17.193,40.797,12.709,60.912c-3.131,14.048-11.031,29.804-41.768,34.75c-0.408,0.419-0.817,0.845-1.221,1.246
		c40.143-2.626,49.506-20.371,52.988-35.995C322.768,225.405,310.686,196.428,298.704,178.96z"/>
	<path style="fill:#FF8269;" d="M280.354,298.727c-7.949,1.464-16.795,2.196-26.564,2.196c-27.465,0-46.494-6.064-58.91-15.109
		h-56.23c-0.432,0.312-20.67,15.109-58.734,15.109c-5.628,0-10.939-0.251-15.96-0.737l3.513,8.451h208.768L280.354,298.727z"/>
	<path style="fill:none;" d="M194.879,285.814h-56.23c-0.432,0.312-20.67,15.109-58.734,15.109c-5.628,0-10.939-0.251-15.96-0.737
		c-3.694-0.358-7.236-0.838-10.606-1.459l4.119,9.91h10h208.768l4.119-9.91c-7.949,1.464-16.795,2.196-26.564,2.196
		C226.325,300.923,207.295,294.859,194.879,285.814z"/>
	<path style="fill:none;" d="M177.549,262.243c-1.019-3.299-1.633-6.653-1.855-10H158.02c-0.229,3.449-0.862,6.791-1.864,10
		c-0.931,2.98-2.177,5.847-3.741,8.571h28.83C179.664,268.033,178.451,265.159,177.549,262.243z"/>
	<path style="fill:none;" d="M194.879,285.814h-56.23c-0.432,0.312-20.67,15.109-58.734,15.109c-5.628,0-10.939-0.251-15.96-0.737
		c-3.694-0.358-7.236-0.838-10.606-1.459l4.119,9.91h10h208.768l4.119-9.91c-7.949,1.464-16.795,2.196-26.564,2.196
		C226.325,300.923,207.295,294.859,194.879,285.814z"/>
	<path style="fill:none;" d="M181.245,270.814c-1.58-2.781-2.794-5.655-3.695-8.571c-1.019-3.299-1.633-6.653-1.855-10H158.02
		c-0.229,3.449-0.862,6.791-1.864,10c-0.931,2.98-2.177,5.847-3.741,8.571H181.245z"/>
	<path style="fill:none;" d="M68.094,284.333c-4.837-4.967-9.953-11.219-14.578-18.941c-9.698-16.192-18.536-41.369-14.481-76.719
		c0.697-6.076,1.764-12.444,3.285-19.127c-2.315,2.601-4.777,5.709-7.318,9.412c-11.982,17.468-24.064,46.446-18.676,70.626
		c3.484,15.625,12.846,33.369,52.988,35.995C68.912,285.179,68.502,284.752,68.094,284.333z"/>
	<path style="fill:none;" d="M194.879,285.814h-56.23c-0.432,0.312-20.67,15.109-58.734,15.109c-5.628,0-10.939-0.251-15.96-0.737
		c-3.694-0.358-7.236-0.838-10.606-1.459l4.119,9.91h10h208.768l4.119-9.91c-7.949,1.464-16.795,2.196-26.564,2.196
		C226.325,300.923,207.295,294.859,194.879,285.814z"/>
	<path style="fill:#FFAB97;" d="M76.385,257.684c8.507,14.798,19.411,23.087,24.774,26.634l0,0
		c26.339-4.276,41.964-16.911,41.964-35.081c0-34.755-39.488-81.464-72.631-89.511C67.358,167.719,51.332,214.099,76.385,257.684z"
		/>
	<path style="fill:none;" d="M177.549,262.243c-1.019-3.299-1.633-6.653-1.855-10H158.02c-0.229,3.449-0.862,6.791-1.864,10
		c-0.931,2.98-2.177,5.847-3.741,8.571h28.83C179.664,268.033,178.451,265.159,177.549,262.243z"/>
	<path style="fill:none;" d="M92.782,285.363c2.9-0.259,5.694-0.609,8.378-1.045c26.339-4.276,41.964-16.911,41.964-35.081
		c0-34.755-39.488-81.464-72.631-89.511c-3.24-0.787-6.422-1.211-9.498-1.211c-0.064,0-22.139,51.274,5.391,99.168
		C75.86,274.166,88.332,282.593,92.782,285.363z"/>
	<path style="fill:none;" d="M68.094,284.333c-4.837-4.967-9.953-11.219-14.578-18.941c-9.698-16.192-18.536-41.369-14.481-76.719
		c0.697-6.076,1.764-12.444,3.285-19.127c-2.315,2.601-4.777,5.709-7.318,9.412c-11.982,17.468-24.064,46.446-18.676,70.626
		c3.484,15.625,12.846,33.369,52.988,35.995C68.912,285.179,68.502,284.752,68.094,284.333z"/>
	<path style="fill:none;" d="M194.879,285.814h-56.23c-0.432,0.312-20.67,15.109-58.734,15.109c-5.628,0-10.939-0.251-15.96-0.737
		c-3.694-0.358-7.236-0.838-10.606-1.459l4.119,9.91h10h208.768l4.119-9.91c-7.949,1.464-16.795,2.196-26.564,2.196
		C226.325,300.923,207.295,294.859,194.879,285.814z"/>
	<path style="fill:#FFAB97;" d="M257.725,257.002c21.426-38.546,7.934-88.809,5.381-97.249l0,0
		c-33.121,8.121-72.525,54.767-72.525,89.485c0,18.163,15.614,30.795,41.936,35.076
		C238.005,280.672,249.316,272.129,257.725,257.002z"/>
	<path style="fill:none;" d="M92.782,285.363c2.9-0.259,5.694-0.609,8.378-1.045c26.339-4.276,41.964-16.911,41.964-35.081
		c0-34.755-39.488-81.464-72.631-89.511c-3.24-0.787-6.422-1.211-9.498-1.211c-0.064,0-22.139,51.274,5.391,99.168
		C75.86,274.166,88.332,282.593,92.782,285.363z"/>
	<path style="fill:none;" d="M177.549,262.243c-1.019-3.299-1.633-6.653-1.855-10H158.02c-0.229,3.449-0.862,6.791-1.864,10
		c-0.931,2.98-2.177,5.847-3.741,8.571h28.83C179.664,268.033,178.451,265.159,177.549,262.243z"/>
	<path style="fill:none;" d="M68.094,284.333c-4.837-4.967-9.953-11.219-14.578-18.941c-9.698-16.192-18.536-41.369-14.481-76.719
		c0.697-6.076,1.764-12.444,3.285-19.127c-2.315,2.601-4.777,5.709-7.318,9.412c-11.982,17.468-24.064,46.446-18.676,70.626
		c3.484,15.625,12.846,33.369,52.988,35.995C68.912,285.179,68.502,284.752,68.094,284.333z"/>
	<path style="fill:none;" d="M194.879,285.814h-56.23c-0.432,0.312-20.67,15.109-58.734,15.109c-5.628,0-10.939-0.251-15.96-0.737
		c-3.694-0.358-7.236-0.838-10.606-1.459l4.119,9.91h10h208.768l4.119-9.91c-7.949,1.464-16.795,2.196-26.564,2.196
		C226.325,300.923,207.295,294.859,194.879,285.814z"/>
	<path style="fill:#FFAB97;" d="M307.377,249.584c4.484-20.115-3.125-43.544-12.709-60.912c4.057,35.351-4.78,60.528-14.48,76.72
		c-4.625,7.722-9.741,13.974-14.578,18.941C296.346,279.388,304.246,263.632,307.377,249.584z"/>
	<path style="fill:#C03A3A;" d="M311.073,170.475c-4.061-5.917-13.445-18.351-24.008-23.886l24.49-127.606
		c0.781-4.068-1.885-7.998-5.951-8.779c-4.08-0.779-8,1.884-8.779,5.952l-24.445,127.368c-20.48,0.144-44.746,13.657-64.99,36.22
		c-16.309,18.178-27.23,38.889-30.654,57.499h-19.764c-3.424-18.611-14.346-39.322-30.654-57.499
		c-20.244-22.563-44.51-36.077-64.992-36.22L36.881,16.155c-0.781-4.068-4.721-6.731-8.779-5.952
		c-4.068,0.781-6.732,4.711-5.951,8.779l24.488,127.606c-10.56,5.535-19.945,17.967-24.006,23.884
		C8.291,191.379-4.744,223.998,1.686,252.848c4.336,19.451,15.326,32.883,33.268,40.509c0.277,0.496,10.584,25.659,10.584,25.659
		c1.162,2.798,3.895,4.622,6.926,4.622h228.777c3.029,0,5.762-1.823,6.926-4.621l10.729-25.718
		c17.857-7.637,28.799-21.051,33.123-40.451C338.45,224,325.414,191.381,311.073,170.475z M263.106,159.752
		c3.277-0.804,6.495-1.236,9.605-1.236c0.062,0,18.477,56.274-4.986,98.486c-9.34,16.801-22.283,25.501-26.824,28.359
		c-2.903-0.26-5.698-0.611-8.384-1.047c-26.322-4.281-41.936-16.913-41.936-35.076C190.58,214.519,229.985,167.873,263.106,159.752z
		 M156.156,262.243c1.002-3.209,1.636-6.551,1.864-10h17.674c0.223,3.347,0.837,6.701,1.855,10c0.901,2.917,2.115,5.79,3.695,8.571
		h-28.83C153.979,268.09,155.225,265.223,156.156,262.243z M60.995,158.516c3.076,0,6.258,0.424,9.498,1.211
		c33.143,8.046,72.631,54.755,72.631,89.511c0,18.169-15.625,30.805-41.964,35.081c-2.684,0.436-5.478,0.786-8.378,1.045
		c-4.449-2.771-16.922-11.197-26.396-27.679C38.856,209.79,60.93,158.516,60.995,158.516z M16.327,249.584
		c-5.389-24.18,6.693-53.158,18.676-70.626c2.541-3.703,5.004-6.811,7.318-9.412c-1.521,6.684-2.588,13.052-3.285,19.127
		c-4.056,35.35,4.782,60.527,14.481,76.719c4.625,7.722,9.741,13.974,14.578,18.941c0.408,0.419,0.817,0.845,1.221,1.246
		C29.172,282.953,19.811,265.208,16.327,249.584z M276.235,308.638H67.467h-10l-4.119-9.91c3.37,0.621,6.912,1.101,10.606,1.459
		c5.021,0.485,10.332,0.737,15.96,0.737c38.064,0,58.303-14.797,58.734-15.109h56.23c12.416,9.045,31.445,15.109,58.91,15.109
		c9.77,0,18.615-0.732,26.564-2.196L276.235,308.638z M317.377,249.584c-3.482,15.625-12.846,33.37-52.988,35.995
		c0.403-0.4,0.812-0.827,1.221-1.246c4.837-4.967,9.953-11.219,14.578-18.941c9.7-16.192,18.537-41.369,14.48-76.72
		c-0.697-6.076-1.765-12.443-3.285-19.126c2.316,2.602,4.779,5.71,7.32,9.415C310.686,196.428,322.768,225.405,317.377,249.584z"/>
</g>
<g>
</g>
<g>
</g>
<g>
</g>
<g>
</g>
<g>
</g>
<g>
</g>
<g>
</g>
<g>
</g>
<g>
</g>
<g>
</g>
<g>
</g>
<g>
</g>
<g>
</g>
<g>
</g>
<g>
</g>
</svg>
