<?xml version="1.0" encoding="iso-8859-1"?>
<!-- Generator: Adobe Illustrator 19.1.0, SVG Export Plug-In . SVG Version: 6.00 Build 0)  -->
<svg version="1.1" id="Capa_1" xmlns="http://www.w3.org/2000/svg" xmlns:xlink="http://www.w3.org/1999/xlink" x="0px" y="0px"
	 viewBox="0 0 385.539 385.539" style="enable-background:new 0 0 385.539 385.539;" xml:space="preserve">
<path style="fill:#FFFFFF;" d="M181.821,358.551l2.188-173.762h-9.36l-2.188,173.762c0,5.621,8.34,11.988,20.308,11.988
	c1.634,0,3.192-0.128,4.679-0.348C188.047,368.804,181.822,363.404,181.821,358.551z"/>
<polygon style="fill:#FFFFFF;" points="175.034,154.254 174.838,169.789 184.198,169.789 184.394,154.254 "/>
<polygon style="fill:#FF8269;" points="184.198,169.789 210.701,169.789 210.505,154.254 184.394,154.254 "/>
<path style="fill:#FF8269;" d="M197.449,370.192L197.449,370.192c9.403-1.388,15.628-6.8,15.628-11.735l-2.188-173.667h-26.88
	l-2.188,173.762C181.822,363.404,188.047,368.804,197.449,370.192z"/>
<path style="fill:#FFFFFF;" d="M157.671,36.69c11.559-8.094,27.778-12.784,45.678-13.209h2.587
	c15.003,0.357,28.814,3.72,39.702,9.562c-1.951-1.874-3.969-3.482-5.897-4.833c-11.559-8.094-27.778-12.784-45.678-13.209h-2.587
	c-17.9,0.426-34.119,5.116-45.678,13.209c-7.91,5.539-17.338,15.337-17.338,30.566c0,36.61,32.881,74.368,41.333,80.188l-3.27-7.623
	c-12.103-15.668-26.19-40.12-26.19-64.083C140.333,52.027,149.762,42.228,157.671,36.69z"/>
<polygon style="fill:none;" points="175.034,154.254 174.838,169.789 184.198,169.789 184.394,154.254 "/>
<path style="fill:none;" d="M174.65,184.789l-2.188,173.762c0,5.621,8.34,11.988,20.308,11.988s20.308-6.368,20.308-12.083
	l-2.188-173.667H174.65z"/>
<path style="fill:none;" d="M157.671,36.69c11.559-8.094,27.778-12.784,45.678-13.209h2.587c15.003,0.357,28.814,3.72,39.702,9.561
	c-1.951-1.874-3.968-3.482-5.897-4.833c-11.559-8.094-27.778-12.784-45.678-13.209h-2.587c-17.9,0.426-34.119,5.116-45.678,13.209
	c-7.91,5.539-17.338,15.337-17.338,30.566c0,36.61,32.881,74.368,41.333,80.188l-3.27-7.623
	c-12.103-15.668-26.19-40.12-26.19-64.083C140.333,52.027,149.762,42.228,157.671,36.69z"/>
<path style="fill:#FFAB97;" d="M245.638,33.041c-10.888-5.841-24.699-9.204-39.702-9.561h-2.587
	c-17.9,0.426-34.119,5.116-45.678,13.209c-7.91,5.539-17.338,15.337-17.338,30.566c0,23.963,14.087,48.416,26.19,64.083
	l-7.724-18.01c-1.633-3.807,0.129-8.216,3.937-9.849c3.805-1.633,8.216,0.129,9.849,3.937c0,0,13.585,31.708,13.632,31.837h13.107
	c0.047-0.128,13.632-31.837,13.632-31.837c1.633-3.807,6.044-5.568,9.849-3.937c3.807,1.632,5.569,6.042,3.937,9.849l-10.994,25.633
	c8.452-5.819,41.333-43.577,41.333-80.188C257.08,47.259,251.687,38.853,245.638,33.041z"/>
<path style="fill:none;" d="M197.449,370.192c-9.402-1.387-15.627-6.788-15.627-11.641l2.188-173.762h-9.36l-2.188,173.762
	c0,5.621,8.34,11.988,20.308,11.988C194.403,370.539,195.962,370.411,197.449,370.192L197.449,370.192z"/>
<polygon style="fill:none;" points="210.701,169.789 210.505,154.254 184.394,154.254 175.034,154.254 174.838,169.789 
	184.198,169.789 "/>
<path style="fill:none;" d="M245.638,33.041c-1.951-1.874-3.968-3.482-5.897-4.833c-11.559-8.094-27.778-12.784-45.678-13.209
	h-2.587c-17.9,0.426-34.119,5.116-45.678,13.209c-7.91,5.539-17.338,15.337-17.338,30.566c0,36.61,32.881,74.368,41.333,80.188
	l-3.27-7.623l-7.724-18.01c-1.633-3.807,0.129-8.216,3.937-9.849c3.805-1.633,8.216,0.129,9.849,3.937
	c0,0,13.585,31.708,13.632,31.837h13.107c0.047-0.128,13.632-31.837,13.632-31.837c1.633-3.807,6.044-5.568,9.849-3.937
	c3.807,1.632,5.569,6.042,3.937,9.849l-10.994,25.633c8.452-5.819,41.333-43.577,41.333-80.188
	C257.08,47.259,251.687,38.853,245.638,33.041z"/>
<path style="fill:#C03A3A;" d="M248.345,15.922c-13.976-9.786-33.161-15.44-54.021-15.92c-0.058-0.001-3.05-0.001-3.107,0
	c-20.86,0.48-40.046,6.134-54.021,15.92c-15.306,10.717-23.735,25.936-23.735,42.853c0,26.366,14.277,51.562,22.788,64.233
	c5.338,7.948,11.405,15.505,17.083,21.281c2.641,2.686,4.857,4.655,6.751,6.103l-2.62,208.065c0,15.187,15.509,27.083,35.308,27.083
	s35.308-11.896,35.307-27.177l-2.619-207.971c1.893-1.448,4.11-3.417,6.751-6.103c5.679-5.775,11.746-13.333,17.084-21.281
	c8.51-12.672,22.788-37.867,22.788-64.233C272.08,41.858,263.65,26.638,248.345,15.922z M172.461,358.551l2.188-173.762h9.36h26.88
	l2.188,173.667c0,4.935-6.226,10.347-15.628,11.735c-1.486,0.22-3.045,0.348-4.679,0.348
	C180.802,370.539,172.462,364.172,172.461,358.551z M174.838,169.789l0.196-15.535h9.36h26.111l0.196,15.535h-26.503H174.838z
	 M215.747,138.962l10.994-25.633c1.633-3.807-0.129-8.216-3.937-9.849c-3.805-1.632-8.215,0.129-9.849,3.937
	c0,0-13.585,31.708-13.632,31.837h-13.107c-0.047-0.128-13.632-31.837-13.632-31.837c-1.633-3.807-6.044-5.569-9.849-3.937
	c-3.807,1.632-5.569,6.042-3.937,9.849l7.724,18.01l3.27,7.623c-8.452-5.819-41.333-43.577-41.333-80.188
	c0-15.229,9.429-25.027,17.338-30.566c11.559-8.094,27.778-12.784,45.678-13.209h2.587c17.9,0.426,34.119,5.116,45.678,13.209
	c1.929,1.351,3.946,2.959,5.897,4.833c6.049,5.812,11.441,14.218,11.441,25.733C257.08,95.385,224.199,133.143,215.747,138.962z"/>
<g>
</g>
<g>
</g>
<g>
</g>
<g>
</g>
<g>
</g>
<g>
</g>
<g>
</g>
<g>
</g>
<g>
</g>
<g>
</g>
<g>
</g>
<g>
</g>
<g>
</g>
<g>
</g>
<g>
</g>
</svg>
