<?xml version="1.0" encoding="iso-8859-1"?>
<!-- Generator: Adobe Illustrator 19.1.0, SVG Export Plug-In . SVG Version: 6.00 Build 0)  -->
<svg version="1.1" id="Capa_1" xmlns="http://www.w3.org/2000/svg" xmlns:xlink="http://www.w3.org/1999/xlink" x="0px" y="0px"
	 viewBox="0 0 372.365 372.365" style="enable-background:new 0 0 372.365 372.365;" xml:space="preserve">
<g>
	<path style="fill:#FFFFFF;" d="M152.41,36.319c0-7.353,9.365-16.335,20.295-16.335h49.102c0.985,0,1.956,0.076,2.909,0.213
		c-3.683-3.05-8.645-5.197-13.983-5.197h-49.103c-10.93,0-20.295,8.982-20.295,16.335v312.221c0,7.614,6.195,13.809,13.81,13.809
		c0.149,0,0.296-0.018,0.444-0.022c-1.984-2.392-3.18-5.46-3.18-8.803V36.319z"/>
	<g>
		<path style="fill:#FFAB97;" d="M172.705,19.983c-10.93,0-20.295,8.982-20.295,16.335v312.221c0,3.343,1.195,6.411,3.18,8.803
			c7.407-0.237,13.365-6.322,13.365-13.786V223.313c0-4.142,3.357-7.5,7.5-7.5h34.278c7.631,0,14.498-4.378,17.949-9.523h-52.227
			c-4.143,0-7.5-3.358-7.5-7.5V32.024c0-4.142,3.357-7.5,7.5-7.5h52.229c-1.036-1.545-2.386-3.018-3.967-4.327
			c-0.953-0.138-1.924-0.213-2.909-0.213H172.705z"/>
		<path style="fill:none;" d="M152.41,348.539V36.319c0-7.353,9.365-16.335,20.295-16.335h49.102c0.985,0,1.956,0.076,2.909,0.213
			c-3.684-3.05-8.645-5.197-13.983-5.197h-49.103c-10.93,0-20.295,8.982-20.295,16.335v312.221c0,7.614,6.195,13.809,13.81,13.809
			c0.15,0,0.295-0.018,0.444-0.022C153.606,354.951,152.41,351.882,152.41,348.539z"/>
		<path style="fill:#C03A3A;" d="M238.529,61.759c4.143,0,7.5-3.358,7.5-7.5c0-4.142-3.357-7.5-7.5-7.5h-54.573v-7.235h54.573
			c7.5,0,7.5-8.188,7.5-8.188c0-16.4-16.823-31.335-35.295-31.335h-49.103c-18.472,0-35.295,14.936-35.295,31.335v312.221
			c0,15.885,12.924,28.809,28.81,28.809c15.886,0,28.81-12.923,28.81-28.809V230.813h26.778c18.472,0,35.295-14.936,35.295-31.335
			c0,0,0-8.188-7.5-8.188h-54.573v-7.235h54.573c4.143,0,7.5-3.358,7.5-7.5c0-4.142-3.357-7.5-7.5-7.5h-54.573v-9.458h54.573
			c4.143,0,7.5-3.358,7.5-7.5c0-4.142-3.357-7.5-7.5-7.5h-54.573v-9.459h54.573c4.143,0,7.5-3.358,7.5-7.5
			c0-4.142-3.357-7.5-7.5-7.5h-54.573v-9.461h54.573c4.143,0,7.5-3.358,7.5-7.5s-3.357-7.5-7.5-7.5h-54.573v-9.459h54.573
			c4.143,0,7.5-3.358,7.5-7.5c0-4.142-3.357-7.5-7.5-7.5h-54.573v-9.459H238.529z M141.336,343.556V31.335
			c0-7.353,9.365-16.335,20.295-16.335h49.103c5.339,0,10.3,2.147,13.983,5.197c1.581,1.309,2.931,2.782,3.967,4.327h-52.229
			c-4.143,0-7.5,3.358-7.5,7.5V198.79c0,4.142,3.357,7.5,7.5,7.5h52.227c-3.451,5.145-10.318,9.523-17.949,9.523h-34.278
			c-4.143,0-7.5,3.358-7.5,7.5v120.243c0,7.464-5.958,13.549-13.365,13.786c-0.149,0.005-0.294,0.022-0.444,0.022
			C147.531,357.365,141.336,351.17,141.336,343.556z"/>
	</g>
</g>
<g>
</g>
<g>
</g>
<g>
</g>
<g>
</g>
<g>
</g>
<g>
</g>
<g>
</g>
<g>
</g>
<g>
</g>
<g>
</g>
<g>
</g>
<g>
</g>
<g>
</g>
<g>
</g>
<g>
</g>
</svg>
