<?xml version="1.0" encoding="iso-8859-1"?>
<!-- Generator: Adobe Illustrator 19.1.0, SVG Export Plug-In . SVG Version: 6.00 Build 0)  -->
<svg version="1.1" id="Capa_1" xmlns="http://www.w3.org/2000/svg" xmlns:xlink="http://www.w3.org/1999/xlink" x="0px" y="0px"
	 viewBox="0 0 317.51 317.51" style="enable-background:new 0 0 317.51 317.51;" xml:space="preserve">
<g>
	<path style="fill:#FF8269;" d="M99.04,121.854c-5.601,0-11.089-0.611-16.313-1.82c-9.268-2.144-17.73-5.801-25.121-10.57
		c5.924,29.723,16.462,54.774,25.853,72.783c15.413,29.557,31.141,47.197,31.297,47.373c0.729,0.811,1.243,1.742,1.558,2.724
		c0,0,0.458,1.245,0.362,2.564c-0.096,1.319-0.362,2.03-0.362,2.03c-0.328,1.023-0.875,1.989-1.651,2.82
		c-17.247,18.457-24.189,35.809-24.845,39.32c-0.484,3.885,10.091,15.236,34.082,20.967c4.752,1.136,9.384,1.862,13.766,2.217
		c0.001,0,0.002,0,0.003,0c1.411-0.134,2.785-0.304,4.073-0.551c5.53-1.062,8.646-2.998,9.512-4.623v-17.887l-14.872,10.85
		c-1.334,0.973-2.881,1.441-4.414,1.441c-2.314,0-4.597-1.068-6.065-3.082c-2.44-3.346-1.707-8.037,1.64-10.478l18.485-13.486
		l-18.485-13.486c-3.347-2.439-4.08-7.133-1.64-10.479c0.471-0.645,1.027-1.191,1.64-1.639l18.485-13.486l-18.485-13.486
		c-3.347-2.439-4.08-7.133-1.64-10.479c0.471-0.645,1.027-1.191,1.64-1.639l18.485-13.486l-18.485-13.486
		c-1.957-1.426-3.013-3.625-3.07-5.873c-0.004-0.09-0.011-4.451,3.07-6.402l18.486-13.486l-18.486-13.486
		c-3.347-2.441-4.08-7.133-1.64-10.478c2.441-3.348,7.133-4.082,10.479-1.641l14.872,10.85v-30.086
		c-2.092,1.967-4.369,3.85-6.869,5.615C131.728,116.729,115.201,121.854,99.04,121.854z"/>
	<path style="fill:#FF8269;" d="M218.467,121.854c5.601,0,11.089-0.611,16.314-1.82c9.268-2.144,17.73-5.801,25.121-10.57
		c-5.924,29.723-16.462,54.774-25.853,72.783c-15.413,29.557-31.141,47.197-31.297,47.373c-0.729,0.811-1.243,1.742-1.558,2.724
		c0,0-0.458,1.245-0.362,2.564c0.096,1.319,0.362,2.03,0.362,2.03c0.328,1.023,0.875,1.989,1.651,2.82
		c17.247,18.457,24.189,35.809,24.845,39.32c0.484,3.885-10.091,15.236-34.082,20.967c-4.752,1.136-9.384,1.862-13.766,2.217
		c-0.001,0-0.002,0-0.003,0c-1.411-0.134-2.785-0.304-4.073-0.551c-5.53-1.062-8.646-2.998-9.512-4.623v-17.887l14.872,10.85
		c1.334,0.973,2.881,1.441,4.414,1.441c2.314,0,4.597-1.068,6.066-3.082c2.44-3.346,1.707-8.037-1.64-10.478l-18.485-13.486
		l18.485-13.486c3.347-2.439,4.08-7.133,1.64-10.479c-0.471-0.645-1.027-1.191-1.64-1.639l-18.485-13.486l18.485-13.486
		c3.347-2.439,4.08-7.133,1.64-10.479c-0.471-0.645-1.027-1.191-1.64-1.639l-18.485-13.486l18.485-13.486
		c1.957-1.426,3.013-3.625,3.07-5.873c0.004-0.09,0.011-4.451-3.07-6.402l-18.486-13.486l18.486-13.486
		c3.347-2.441,4.08-7.133,1.64-10.478c-2.441-3.348-7.133-4.082-10.48-1.641l-14.872,10.85v-30.086
		c2.092,1.967,4.369,3.85,6.869,5.615C185.779,116.729,202.306,121.854,218.467,121.854z"/>
	<path style="fill:#FFFFFF;" d="M227.688,279.078c-0.655-3.512-7.598-20.863-24.845-39.32c-2.655-2.842-2.694-7.246-0.094-10.139
		c0.156-0.176,15.884-17.816,31.297-47.373c9.391-18.01,19.929-43.061,25.853-72.783c4.766-3.075,9.088-6.607,12.881-10.51
		c-5.326,34.348-17.254,63.195-27.733,83.293c-15.413,29.557-31.141,47.197-31.297,47.373c-2.6,2.893-2.561,7.297,0.094,10.139
		c17.247,18.457,24.189,35.809,24.845,39.32c0.484,3.885-10.091,15.236-34.082,20.967c-9.002,2.152-17.609,2.898-24.766,2.217
		c4.382-0.355,9.014-1.081,13.766-2.217C217.597,294.315,228.172,282.963,227.688,279.078z"/>
	<path style="fill:#FFFFFF;" d="M89.816,279.078c0.655-3.512,7.598-20.863,24.845-39.32c2.655-2.842,2.694-7.246,0.094-10.139
		c-0.156-0.176-15.884-17.816-31.297-47.373c-9.391-18.01-19.929-43.061-25.853-72.783c-4.766-3.075-9.088-6.607-12.881-10.51
		c5.326,34.348,17.254,63.195,27.733,83.293c15.413,29.557,31.141,47.197,31.297,47.373c2.601,2.893,2.562,7.297-0.094,10.139
		c-17.247,18.457-24.189,35.809-24.845,39.32c-0.484,3.885,10.091,15.236,34.082,20.967c9.002,2.152,17.609,2.898,24.766,2.217
		c-4.382-0.355-9.014-1.081-13.766-2.217C99.907,294.315,89.332,282.963,89.816,279.078z"/>
	<path style="fill:#FFFFFF;" d="M113.048,29.984c17.137,3.964,28.512,12.885,35.491,23.327
		c-5.089-15.643-17.804-31.025-41.916-36.603C101.723,15.576,96.741,15,91.818,15c-15.821,0-29.89,5.867-39.052,15.422
		c2.656,3.708,5.78,7.232,9.301,10.56c9.102-7.932,21.921-12.706,36.176-12.706C103.166,28.275,108.148,28.852,113.048,29.984z"/>
	<path style="fill:#FFAB97;" d="M113.048,29.984c-4.9-1.133-9.882-1.709-14.805-1.709c-14.255,0-27.073,4.774-36.176,12.706
		c19.958,18.859,52.917,31.218,88.91,32.688c0.174-1.162,0.274-2.34,0.274-3.539c0-5.329-0.85-11.093-2.714-16.82
		C141.559,42.868,130.184,33.948,113.048,29.984z"/>
	<polygon style="fill:#FFAB97;" points="151.252,240.111 144.686,244.9 151.252,249.691 	"/>
	<polygon style="fill:#FFAB97;" points="151.252,210.602 151.252,201.021 144.687,205.811 	"/>
	<polygon style="fill:#FFAB97;" points="151.252,171.512 151.252,161.771 144.576,166.641 	"/>
	<polygon style="fill:#FFAB97;" points="166.252,249.691 172.817,244.9 166.252,240.111 	"/>
	<polygon style="fill:#FFAB97;" points="166.252,161.932 166.252,171.512 172.817,166.721 	"/>
	<polygon style="fill:#FFAB97;" points="166.252,210.602 172.817,205.811 166.252,201.021 	"/>
	<path style="fill:#FFFFFF;" d="M56.353,56.018c-4.502-3.784-8.578-7.84-12.148-12.152c-0.588,1.557-1.085,3.154-1.465,4.797
		C37.083,73.119,56.538,98.58,86.107,105.42c4.118,0.951,8.47,1.434,12.934,1.434c2.407,0,4.842-0.167,7.275-0.456
		c-1.92-0.237-3.811-0.553-5.648-0.978C74.059,99.265,55.651,78.03,56.353,56.018z"/>
	<path style="fill:#FFFFFF;" d="M204.547,30.376c4.901-1.133,9.882-1.709,14.805-1.709c13.837,0,26.319,4.498,35.364,12.016
		c3.575-3.426,6.73-7.065,9.398-10.892C254.943,20.609,241.154,15,225.685,15c-4.923,0-9.903,0.576-14.805,1.709
		c-24.628,5.696-37.373,21.622-42.238,37.606C175.583,43.608,187.074,34.417,204.547,30.376z"/>
	<path style="fill:#FFFFFF;" d="M274.764,48.662c-0.452-1.955-1.061-3.85-1.807-5.68c-3.499,4.355-7.505,8.452-11.94,12.277
		c1.153,22.281-17.373,43.935-44.287,50.16c-1.821,0.421-3.694,0.734-5.597,0.97c2.452,0.295,4.905,0.464,7.331,0.464h0.003
		c4.462,0,8.812-0.482,12.93-1.434C260.966,98.58,280.42,73.119,274.764,48.662z"/>
	<polygon style="fill:none;" points="151.252,210.602 151.252,201.021 144.687,205.811 	"/>
	<polygon style="fill:none;" points="151.252,171.512 151.252,161.771 144.576,166.641 	"/>
	<polygon style="fill:none;" points="151.252,249.691 151.252,240.111 144.686,244.9 	"/>
	<path style="fill:none;" d="M62.067,40.981c9.102-7.932,21.921-12.706,36.176-12.706c4.923,0,9.904,0.576,14.805,1.709
		c17.136,3.964,28.511,12.884,35.49,23.326c-5.089-15.643-17.804-31.024-41.915-36.602C101.723,15.576,96.741,15,91.818,15
		c-15.821,0-29.89,5.867-39.052,15.422C55.423,34.13,58.547,37.654,62.067,40.981z"/>
	<polygon style="fill:none;" points="166.252,240.111 166.252,249.691 172.817,244.9 	"/>
	<polygon style="fill:none;" points="166.252,201.021 166.252,210.602 172.817,205.811 	"/>
	<polygon style="fill:none;" points="166.252,161.932 166.252,171.512 172.817,166.721 	"/>
	<polygon style="fill:none;" points="151.252,210.602 151.252,201.021 144.687,205.811 	"/>
	<polygon style="fill:none;" points="151.252,171.512 151.252,161.771 144.576,166.641 	"/>
	<polygon style="fill:none;" points="151.252,249.691 151.252,240.111 144.686,244.9 	"/>
	<path style="fill:none;" d="M62.067,40.981c19.958,18.859,52.917,31.218,88.91,32.688c0.174-1.162,0.274-2.34,0.274-3.539
		c0-5.329-0.85-11.093-2.714-16.82c-5.089-15.643-17.804-31.024-41.915-36.602C101.723,15.576,96.741,15,91.818,15
		c-15.821,0-29.89,5.867-39.052,15.422C55.423,34.13,58.547,37.654,62.067,40.981z"/>
	<path style="fill:none;" d="M86.107,105.42c4.118,0.951,8.47,1.434,12.934,1.434c2.406,0,4.841-0.166,7.274-0.456
		c-1.92-0.237-3.811-0.553-5.647-0.978c-26.608-6.155-45.016-27.39-44.314-49.402c-4.502-3.784-8.578-7.84-12.148-12.152
		c-0.588,1.557-1.085,3.154-1.465,4.797C37.083,73.119,56.538,98.58,86.107,105.42z"/>
	<polygon style="fill:none;" points="166.252,240.111 166.252,249.691 172.817,244.9 	"/>
	<polygon style="fill:none;" points="166.252,201.021 166.252,210.602 172.817,205.811 	"/>
	<polygon style="fill:none;" points="166.252,161.932 166.252,171.512 172.817,166.721 	"/>
	<path style="fill:#FFAB97;" d="M100.667,105.42c1.837,0.425,3.728,0.74,5.647,0.978c14.527-1.73,29.031-8.438,37.483-18.095
		c-34.771-2.555-66.037-14.288-87.445-32.285C55.651,78.03,74.059,99.265,100.667,105.42z"/>
	<polygon style="fill:none;" points="166.252,161.932 166.252,171.512 172.817,166.721 	"/>
	<polygon style="fill:none;" points="166.252,240.111 166.252,249.691 172.817,244.9 	"/>
	<polygon style="fill:none;" points="166.252,201.021 166.252,210.602 172.817,205.811 	"/>
	<polygon style="fill:none;" points="151.252,161.771 144.576,166.641 151.252,171.512 	"/>
	<polygon style="fill:none;" points="151.252,201.021 144.687,205.811 151.252,210.602 	"/>
	<path style="fill:none;" d="M86.107,105.42c4.118,0.951,8.47,1.434,12.934,1.434c2.406,0,4.841-0.166,7.274-0.456
		c14.527-1.73,29.031-8.438,37.483-18.095c-34.771-2.555-66.037-14.288-87.445-32.285c-4.502-3.784-8.578-7.84-12.148-12.152
		c-0.588,1.557-1.085,3.154-1.465,4.797C37.083,73.119,56.538,98.58,86.107,105.42z"/>
	<polygon style="fill:none;" points="151.252,240.111 144.686,244.9 151.252,249.691 	"/>
	<path style="fill:none;" d="M62.067,40.981c19.958,18.859,52.917,31.218,88.91,32.688c0.174-1.162,0.274-2.34,0.274-3.539
		c0-5.329-0.85-11.093-2.714-16.82c-5.089-15.643-17.804-31.024-41.915-36.602C101.723,15.576,96.741,15,91.818,15
		c-15.821,0-29.89,5.867-39.052,15.422C55.423,34.13,58.547,37.654,62.067,40.981z"/>
	<polygon style="fill:none;" points="151.252,171.512 151.252,161.771 144.576,166.641 	"/>
	<path style="fill:none;" d="M99.04,121.854c-5.601,0-11.089-0.611-16.313-1.82c-9.268-2.144-17.73-5.801-25.121-10.57
		c-4.765-3.074-9.088-6.607-12.881-10.51c5.326,34.348,17.254,63.195,27.733,83.293c15.413,29.557,31.141,47.197,31.297,47.373
		c2.601,2.893,2.562,7.297-0.094,10.139c-17.247,18.457-24.189,35.809-24.845,39.32c-0.484,3.885,10.091,15.236,34.082,20.967
		c9.003,2.152,17.611,2.898,24.769,2.217c1.411-0.134,2.785-0.304,4.073-0.551c5.53-1.062,8.646-2.998,9.512-4.623v-17.887
		l-14.872,10.85c-1.334,0.973-2.881,1.441-4.414,1.441c-2.314,0-4.597-1.068-6.065-3.082c-2.44-3.346-1.707-8.037,1.64-10.478
		l18.485-13.486l-18.485-13.486c-3.347-2.439-4.08-7.133-1.64-10.479c0.471-0.645,1.027-1.191,1.64-1.639l18.485-13.486
		l-18.485-13.486c-3.347-2.439-4.08-7.133-1.64-10.479c0.471-0.645,1.027-1.191,1.64-1.639l18.485-13.486l-18.485-13.486
		c-1.957-1.426-3.013-3.625-3.07-5.873c-0.004-0.09-0.011-4.451,3.07-6.402l18.486-13.486l-18.486-13.486
		c-3.347-2.441-4.08-7.133-1.64-10.478c2.441-3.348,7.133-4.082,10.479-1.641l14.872,10.85v-30.086
		c-2.092,1.967-4.369,3.85-6.869,5.615C131.728,116.729,115.201,121.854,99.04,121.854z"/>
	<path style="fill:none;" d="M106.623,16.709C101.723,15.576,96.741,15,91.818,15c-15.821,0-29.89,5.867-39.052,15.422
		c2.656,3.708,5.78,7.232,9.301,10.56c19.958,18.859,52.917,31.218,88.91,32.688c0.174-1.162,0.274-2.34,0.274-3.539
		c0-5.329-0.85-11.093-2.714-16.82C143.449,37.668,130.734,22.286,106.623,16.709z"/>
	<polygon style="fill:none;" points="151.252,210.602 151.252,201.021 144.687,205.811 	"/>
	<path style="fill:none;" d="M86.107,105.42c4.118,0.951,8.47,1.434,12.934,1.434c2.406,0,4.841-0.166,7.274-0.456
		c14.527-1.73,29.031-8.438,37.483-18.095c-34.771-2.555-66.037-14.288-87.445-32.285c-4.502-3.784-8.578-7.84-12.148-12.152
		c-0.588,1.557-1.085,3.154-1.465,4.797C37.083,73.119,56.538,98.58,86.107,105.42z"/>
	<polygon style="fill:none;" points="151.252,249.691 151.252,240.111 144.686,244.9 	"/>
	<path style="fill:none;" d="M234.776,120.033c-5.224,1.209-10.712,1.82-16.311,1.82c0,0-0.001,0-0.002,0
		c-16.161,0-32.688-5.127-45.342-14.062c-2.494-1.762-4.779-3.635-6.869-5.596v30.068l14.872-10.85
		c3.346-2.445,8.037-1.709,10.479,1.639c0.973,1.332,1.441,2.879,1.441,4.412c0.001,2.314-1.067,4.598-3.08,6.066l-18.596,13.564
		l18.596,13.566c3.347,2.441,4.423,7.412,1.639,10.479c-3.389,3.732-20.125,15.125-20.125,15.125l18.486,13.486
		c3.347,2.441,4.08,7.133,1.639,10.479c-0.432,0.594-0.941,1.094-1.494,1.518c-0.051,0.041-18.631,13.607-18.631,13.607
		l18.486,13.486c3.347,2.441,4.08,7.133,1.639,10.479c-0.471,0.646-1.032,1.184-1.646,1.631l0.007,0.008l-18.486,13.486
		l18.486,13.486c3.347,2.441,4.08,7.133,1.639,10.478c-1.468,2.014-3.751,3.082-6.066,3.082c-1.533,0-3.08-0.469-4.413-1.441
		l-14.872-10.85v17.887c0.865,1.625,3.98,3.561,9.512,4.623c7.821,1.502,18.064,0.91,28.841-1.666
		c23.996-5.733,34.571-17.086,34.082-20.969c-0.873-2.537-7.57-20.832-24.845-39.318c-2.658-2.846-2.697-7.252-0.09-10.143
		c0.153-0.172,15.88-17.812,31.293-47.369c10.48-20.098,22.407-48.945,27.734-83.293
		C263.103,108.908,250.018,116.508,234.776,120.033z"/>
	<polygon style="fill:none;" points="172.817,205.811 166.252,201.021 166.252,210.602 	"/>
	<polygon style="fill:none;" points="172.817,244.9 166.252,240.111 166.252,249.691 	"/>
	<polygon style="fill:none;" points="166.252,161.932 166.252,171.512 172.817,166.721 	"/>
	<path style="fill:#FFAB97;" d="M219.352,28.667c-4.923,0-9.903,0.576-14.805,1.709c-17.473,4.041-28.964,13.232-35.905,23.939
		c-1.643,5.396-2.39,10.798-2.39,15.815c0,1.182,0.1,2.344,0.269,3.492c35.928-1.671,68.503-14.068,88.195-32.94l0,0
		C245.671,33.165,233.189,28.667,219.352,28.667z"/>
	<path style="fill:none;" d="M99.04,121.854c-5.601,0-11.089-0.611-16.313-1.82c-9.268-2.144-17.73-5.801-25.121-10.57
		c-4.765-3.074-9.088-6.607-12.881-10.51c5.326,34.348,17.254,63.195,27.733,83.293c15.413,29.557,31.141,47.197,31.297,47.373
		c2.601,2.893,2.562,7.297-0.094,10.139c-17.247,18.457-24.189,35.809-24.845,39.32c-0.484,3.885,10.091,15.236,34.082,20.967
		c9.003,2.152,17.611,2.898,24.769,2.217c1.411-0.134,2.785-0.304,4.073-0.551c5.53-1.062,8.646-2.998,9.512-4.623v-17.887
		l-14.872,10.85c-1.334,0.973-2.881,1.441-4.414,1.441c-2.314,0-4.597-1.068-6.065-3.082c-2.44-3.346-1.707-8.037,1.64-10.478
		l18.485-13.486l-18.485-13.486c-3.347-2.439-4.08-7.133-1.64-10.479c0.471-0.645,1.027-1.191,1.64-1.639l18.485-13.486
		l-18.485-13.486c-3.347-2.439-4.08-7.133-1.64-10.479c0.471-0.645,1.027-1.191,1.64-1.639l18.485-13.486l-18.485-13.486
		c-1.957-1.426-3.013-3.625-3.07-5.873c-0.004-0.09-0.011-4.451,3.07-6.402l18.486-13.486l-18.486-13.486
		c-3.347-2.441-4.08-7.133-1.64-10.478c2.441-3.348,7.133-4.082,10.479-1.641l14.872,10.85v-30.086
		c-2.092,1.967-4.369,3.85-6.869,5.615C131.728,116.729,115.201,121.854,99.04,121.854z"/>
	<path style="fill:none;" d="M261.017,55.26c1.153,22.281-17.373,43.935-44.287,50.16c-1.821,0.421-3.694,0.734-5.597,0.97
		c0,0-0.001,0-0.002,0c2.453,0.295,4.907,0.464,7.333,0.464h0.003c4.462,0,8.812-0.482,12.93-1.434
		c29.569-6.84,49.023-32.301,43.367-56.758c-0.452-1.955-1.061-3.85-1.807-5.68C269.459,47.337,265.452,51.434,261.017,55.26
		L261.017,55.26z"/>
	<polygon style="fill:none;" points="151.252,171.512 151.252,161.771 144.576,166.641 	"/>
	<path style="fill:none;" d="M106.623,16.709C101.723,15.576,96.741,15,91.818,15c-15.821,0-29.89,5.867-39.052,15.422
		c2.656,3.708,5.78,7.232,9.301,10.56c19.958,18.859,52.917,31.218,88.91,32.688c0.174-1.162,0.274-2.34,0.274-3.539
		c0-5.329-0.85-11.093-2.714-16.82C143.449,37.668,130.734,22.286,106.623,16.709z"/>
	<path style="fill:none;" d="M86.107,105.42c4.118,0.951,8.47,1.434,12.934,1.434c2.406,0,4.841-0.166,7.274-0.456
		c14.527-1.73,29.031-8.438,37.483-18.095c-34.771-2.555-66.037-14.288-87.445-32.285c-4.502-3.784-8.578-7.84-12.148-12.152
		c-0.588,1.557-1.085,3.154-1.465,4.797C37.083,73.119,56.538,98.58,86.107,105.42z"/>
	<polygon style="fill:none;" points="151.252,249.691 151.252,240.111 144.686,244.9 	"/>
	<polygon style="fill:none;" points="151.252,210.602 151.252,201.021 144.687,205.811 	"/>
	<path style="fill:none;" d="M234.776,120.033c-5.224,1.209-10.712,1.82-16.311,1.82c0,0-0.001,0-0.002,0
		c-16.161,0-32.688-5.127-45.342-14.062c-2.494-1.762-4.779-3.635-6.869-5.596v30.068l14.872-10.85
		c3.346-2.445,8.037-1.709,10.479,1.639c0.973,1.332,1.441,2.879,1.441,4.412c0.001,2.314-1.067,4.598-3.08,6.066l-18.596,13.564
		l18.596,13.566c3.347,2.441,4.423,7.412,1.639,10.479c-3.389,3.732-20.125,15.125-20.125,15.125l18.486,13.486
		c3.347,2.441,4.08,7.133,1.639,10.479c-0.432,0.594-0.941,1.094-1.494,1.518c-0.051,0.041-18.631,13.607-18.631,13.607
		l18.486,13.486c3.347,2.441,4.08,7.133,1.639,10.479c-0.471,0.646-1.032,1.184-1.646,1.631l0.007,0.008l-18.486,13.486
		l18.486,13.486c3.347,2.441,4.08,7.133,1.639,10.478c-1.468,2.014-3.751,3.082-6.066,3.082c-1.533,0-3.08-0.469-4.413-1.441
		l-14.872-10.85v17.887c0.865,1.625,3.98,3.561,9.512,4.623c7.821,1.502,18.064,0.91,28.841-1.666
		c23.996-5.733,34.571-17.086,34.082-20.969c-0.873-2.537-7.57-20.832-24.845-39.318c-2.658-2.846-2.697-7.252-0.09-10.143
		c0.153-0.172,15.88-17.812,31.293-47.369c10.48-20.098,22.407-48.945,27.734-83.293
		C263.103,108.908,250.018,116.508,234.776,120.033z"/>
	<polygon style="fill:none;" points="172.817,244.9 166.252,240.111 166.252,249.691 	"/>
	<path style="fill:none;" d="M254.716,40.683c3.575-3.426,6.729-7.063,9.398-10.892C254.943,20.609,241.154,15,225.685,15
		c-4.923,0-9.903,0.576-14.805,1.709c-24.628,5.696-37.372,21.622-42.238,37.606c-1.643,5.396-2.39,10.798-2.39,15.815
		c0,1.182,0.1,2.344,0.269,3.492C202.448,71.952,235.024,59.555,254.716,40.683z"/>
	<polygon style="fill:none;" points="166.252,161.932 166.252,171.512 172.817,166.721 	"/>
	<polygon style="fill:none;" points="172.817,205.811 166.252,201.021 166.252,210.602 	"/>
	<path style="fill:#FFAB97;" d="M216.73,105.42c26.914-6.226,45.44-27.879,44.287-50.16v-0.001
		c-21.188,18.274-52.399,30.217-87.4,32.944c8.429,9.696,22.956,16.438,37.515,18.187c0.001,0,0.002,0,0.002,0
		C213.035,106.154,214.908,105.841,216.73,105.42z"/>
	<path style="fill:none;" d="M173.616,88.203c8.429,9.696,22.956,16.438,37.515,18.187c2.453,0.295,4.907,0.464,7.333,0.464h0.003
		c4.462,0,8.812-0.482,12.93-1.434c29.569-6.84,49.023-32.301,43.367-56.758c-0.452-1.955-1.061-3.85-1.807-5.68
		c-3.498,4.355-7.505,8.451-11.94,12.276C239.829,73.533,208.617,85.476,173.616,88.203z"/>
	<path style="fill:none;" d="M106.623,16.709C101.723,15.576,96.741,15,91.818,15c-15.821,0-29.89,5.867-39.052,15.422
		c2.656,3.708,5.78,7.232,9.301,10.56c19.958,18.859,52.917,31.218,88.91,32.688c0.174-1.162,0.274-2.34,0.274-3.539
		c0-5.329-0.85-11.093-2.714-16.82C143.449,37.668,130.734,22.286,106.623,16.709z"/>
	<path style="fill:none;" d="M86.107,105.42c4.118,0.951,8.47,1.434,12.934,1.434c2.406,0,4.841-0.166,7.274-0.456
		c14.527-1.73,29.031-8.438,37.483-18.095c-34.771-2.555-66.037-14.288-87.445-32.285c-4.502-3.784-8.578-7.84-12.148-12.152
		c-0.588,1.557-1.085,3.154-1.465,4.797C37.083,73.119,56.538,98.58,86.107,105.42z"/>
	<path style="fill:none;" d="M254.716,40.683c3.575-3.426,6.729-7.063,9.398-10.892C254.943,20.609,241.154,15,225.685,15
		c-4.923,0-9.903,0.576-14.805,1.709c-24.628,5.696-37.372,21.622-42.238,37.606c-1.643,5.396-2.39,10.798-2.39,15.815
		c0,1.182,0.1,2.344,0.269,3.492C202.448,71.952,235.024,59.555,254.716,40.683z"/>
	<polygon style="fill:none;" points="166.252,161.932 166.252,171.512 172.817,166.721 	"/>
	<path style="fill:none;" d="M234.776,120.033c-5.224,1.209-10.712,1.82-16.311,1.82c0,0-0.001,0-0.002,0
		c-16.161,0-32.688-5.127-45.342-14.062c-2.494-1.762-4.779-3.635-6.869-5.596v30.068l14.872-10.85
		c3.346-2.445,8.037-1.709,10.479,1.639c0.973,1.332,1.441,2.879,1.441,4.412c0.001,2.314-1.067,4.598-3.08,6.066l-18.596,13.564
		l18.596,13.566c3.347,2.441,4.423,7.412,1.639,10.479c-3.389,3.732-20.125,15.125-20.125,15.125l18.486,13.486
		c3.347,2.441,4.08,7.133,1.639,10.479c-0.432,0.594-0.941,1.094-1.494,1.518c-0.051,0.041-18.631,13.607-18.631,13.607
		l18.486,13.486c3.347,2.441,4.08,7.133,1.639,10.479c-0.471,0.646-1.032,1.184-1.646,1.631l0.007,0.008l-18.486,13.486
		l18.486,13.486c3.347,2.441,4.08,7.133,1.639,10.478c-1.468,2.014-3.751,3.082-6.066,3.082c-1.533,0-3.08-0.469-4.413-1.441
		l-14.872-10.85v17.887c0.865,1.625,3.98,3.561,9.512,4.623c7.821,1.502,18.064,0.91,28.841-1.666
		c23.996-5.733,34.571-17.086,34.082-20.969c-0.873-2.537-7.57-20.832-24.845-39.318c-2.658-2.846-2.697-7.252-0.09-10.143
		c0.153-0.172,15.88-17.812,31.293-47.369c10.48-20.098,22.407-48.945,27.734-83.293
		C263.103,108.908,250.018,116.508,234.776,120.033z"/>
	<polygon style="fill:none;" points="166.252,201.021 166.252,210.602 172.817,205.811 	"/>
	<polygon style="fill:none;" points="166.252,240.111 166.252,249.691 172.817,244.9 	"/>
	<path style="fill:#C03A3A;" d="M290.735,58.227c-0.001-0.098-0.013-0.184-0.018-0.277c0.062-4.201-0.362-8.441-1.34-12.666
		C283.213,18.621,257.021,0,225.685,0c-6.059,0-12.177,0.705-18.185,2.096c-22.362,5.172-39.543,18.399-48.748,36.291
		c-9.206-17.893-26.387-31.119-48.749-36.291C103.996,0.705,97.878,0,91.818,0C60.482,0,34.291,18.621,28.125,45.281
		c-0.968,4.188-1.396,8.389-1.344,12.553c-0.001,0.041-0.007,0.076-0.007,0.119c-0.363,54.232,17.592,102.977,32.614,131.67
		c11.439,21.852,22.865,37.32,28.888,44.854c-17.575,20.646-23.976,40.758-24.015,40.922c-4.22,17.668,19.52,33.113,45.151,39.236
		c7.979,1.906,15.833,2.875,23.008,2.875c4.339,0,8.429-0.355,12.148-1.068c6.432-1.234,10.973-3.348,14.184-5.746
		c3.21,2.398,7.752,4.512,14.184,5.746c3.719,0.715,7.808,1.068,12.146,1.068c7.175,0,15.03-0.969,23.008-2.875
		c25.632-6.123,49.372-21.568,45.152-39.236c-0.04-0.164-5.03-19.094-24.016-40.922c6.022-7.533,17.448-23.002,28.888-44.854
		C273.138,160.93,291.098,112.459,290.735,58.227z M42.739,48.662c0.38-1.643,0.877-3.24,1.465-4.797
		c3.57,4.312,7.646,8.368,12.148,12.152c21.408,17.997,52.674,29.73,87.445,32.285c-8.452,9.656-22.956,16.364-37.483,18.095
		c-2.434,0.29-4.868,0.456-7.274,0.456c-4.464,0-8.815-0.482-12.934-1.434C56.538,98.58,37.083,73.119,42.739,48.662z
		 M151.252,249.691l-6.566-4.791l6.566-4.789V249.691z M151.252,210.602l-6.566-4.791l6.566-4.789V210.602z M151.252,171.512
		l-6.676-4.871l6.676-4.869V171.512z M151.252,132.262l-14.872-10.85c-3.347-2.441-8.038-1.707-10.479,1.641
		c-2.44,3.346-1.707,8.037,1.64,10.478l18.486,13.486l-18.486,13.486c-3.081,1.951-3.074,6.312-3.07,6.402
		c0.058,2.248,1.113,4.447,3.07,5.873l18.485,13.486l-18.485,13.486c-0.612,0.447-1.169,0.994-1.64,1.639
		c-2.44,3.346-1.707,8.039,1.64,10.479l18.485,13.486l-18.485,13.486c-0.612,0.447-1.169,0.994-1.64,1.639
		c-2.44,3.346-1.707,8.039,1.64,10.479l18.485,13.486l-18.485,13.486c-3.347,2.441-4.08,7.133-1.64,10.478
		c1.469,2.014,3.751,3.082,6.065,3.082c1.533,0,3.08-0.469,4.414-1.441l14.872-10.85v17.887c-0.866,1.625-3.981,3.561-9.512,4.623
		c-1.288,0.247-2.662,0.417-4.073,0.551c-7.157,0.682-15.766-0.065-24.769-2.217c-23.991-5.73-34.566-17.082-34.082-20.967
		c0.655-3.512,7.598-20.863,24.845-39.32c2.655-2.842,2.694-7.246,0.094-10.139c-0.156-0.176-15.884-17.816-31.297-47.373
		c-10.479-20.098-22.407-48.945-27.733-83.293c3.793,3.902,8.116,7.436,12.881,10.51c7.391,4.77,15.854,8.427,25.121,10.57
		c5.225,1.209,10.713,1.82,16.313,1.82c16.161,0,32.688-5.125,45.343-14.062c2.5-1.766,4.777-3.648,6.869-5.615V132.262z
		 M150.978,73.67c-35.993-1.471-68.952-13.829-88.91-32.688c-3.521-3.327-6.645-6.852-9.301-10.56
		C61.929,20.867,75.997,15,91.818,15c4.923,0,9.904,0.576,14.805,1.709c24.111,5.577,36.826,20.959,41.915,36.602
		c1.864,5.728,2.714,11.491,2.714,16.82C151.252,71.33,151.151,72.508,150.978,73.67z M272.957,42.982
		c0.745,1.83,1.355,3.725,1.807,5.68c5.656,24.457-13.798,49.918-43.367,56.758c-4.117,0.951-8.468,1.434-12.93,1.434h-0.003
		c-2.426,0-4.88-0.169-7.333-0.464c-14.559-1.748-29.086-8.49-37.515-18.187c35.001-2.728,66.213-14.67,87.4-32.944
		C265.452,51.434,269.459,47.337,272.957,42.982z M168.642,54.315c4.866-15.984,17.61-31.91,42.238-37.606
		c4.901-1.133,9.882-1.709,14.805-1.709c15.47,0,29.259,5.609,38.43,14.791c-2.669,3.828-5.823,7.466-9.398,10.892
		c-19.692,18.872-52.268,31.27-88.195,32.94c-0.169-1.148-0.269-2.311-0.269-3.492C166.252,65.113,166.999,59.711,168.642,54.315z
		 M166.252,161.932l6.565,4.789l-6.565,4.791V161.932z M166.252,201.021l6.565,4.789l-6.565,4.791V201.021z M166.252,240.111
		l6.565,4.789l-6.565,4.791V240.111z M213.752,229.615c-2.607,2.891-2.568,7.297,0.09,10.143
		c17.274,18.486,23.972,36.781,24.845,39.318c0.489,3.883-10.086,15.236-34.082,20.969c-10.776,2.576-21.02,3.168-28.841,1.666
		c-5.531-1.062-8.646-2.998-9.512-4.623v-17.887l14.872,10.85c1.333,0.973,2.88,1.441,4.413,1.441c2.314,0,4.598-1.068,6.066-3.082
		c2.441-3.346,1.708-8.037-1.639-10.478l-18.486-13.486l18.486-13.486l-0.007-0.008c0.613-0.447,1.175-0.984,1.646-1.631
		c2.441-3.346,1.708-8.037-1.639-10.479l-18.486-13.486c0,0,18.58-13.566,18.631-13.607c0.554-0.424,1.062-0.924,1.494-1.518
		c2.441-3.346,1.708-8.037-1.639-10.479l-18.486-13.486c0,0,16.736-11.393,20.125-15.125c2.784-3.066,1.708-8.037-1.639-10.479
		l-18.596-13.566l18.596-13.564c2.013-1.469,3.081-3.752,3.08-6.066c0-1.533-0.469-3.08-1.441-4.412
		c-2.441-3.348-7.133-4.084-10.479-1.639l-14.872,10.85v-30.068c2.09,1.961,4.375,3.834,6.869,5.596
		c12.654,8.936,29.181,14.062,45.342,14.062c0.001,0,0.002,0,0.002,0c5.6,0,11.088-0.611,16.311-1.82
		c15.241-3.525,28.326-11.125,38.003-21.08c-5.327,34.348-17.254,63.195-27.734,83.293
		C229.632,211.803,213.905,229.443,213.752,229.615z"/>
</g>
<g>
</g>
<g>
</g>
<g>
</g>
<g>
</g>
<g>
</g>
<g>
</g>
<g>
</g>
<g>
</g>
<g>
</g>
<g>
</g>
<g>
</g>
<g>
</g>
<g>
</g>
<g>
</g>
<g>
</g>
</svg>
