<?xml version="1.0" encoding="iso-8859-1"?>
<!-- Generator: Adobe Illustrator 19.1.0, SVG Export Plug-In . SVG Version: 6.00 Build 0)  -->
<svg version="1.1" id="Capa_1" xmlns="http://www.w3.org/2000/svg" xmlns:xlink="http://www.w3.org/1999/xlink" x="0px" y="0px"
	 viewBox="0 0 252.129 252.129" style="enable-background:new 0 0 252.129 252.129;" xml:space="preserve">
<g>
	<polygon style="fill:#FFFFFF;" points="201.963,145.999 201.963,140.999 50.166,140.999 50.166,158.099 59.166,158.099 
		59.166,145.999 	"/>
	<polygon style="fill:#FFFFFF;" points="33.906,224.111 38.08,227.942 48.08,227.942 43.906,224.111 	"/>
	<rect x="27.881" y="93.094" style="fill:#FFFFFF;" width="10" height="4.692"/>
	<path style="fill:#FFFFFF;" d="M33.734,32.187h203.357c-0.375-4.473-4.129-8-8.697-8H23.734c-4.816,0-8.734,3.919-8.734,8.735
		v45.172h10V40.922C25,36.105,28.918,32.187,33.734,32.187z"/>
	<polygon style="fill:#FFFFFF;" points="31.881,118.786 237.129,118.786 237.129,115.65 230.248,112.786 21.881,112.786 15,115.651 
		15,209.111 25,209.111 25,121.651 	"/>
	<path style="fill:#FF8269;" d="M25,40.922v37.172h212.129V32.922c0-0.248-0.017-0.492-0.037-0.735H33.734
		C28.918,32.187,25,36.105,25,40.922z"/>
	<rect x="37.881" y="93.094" style="fill:#FFAB97;" width="186.366" height="4.692"/>
	<polygon style="fill:#FFAB97;" points="43.906,224.111 48.08,227.942 214.049,227.942 218.222,224.111 	"/>
	<path style="fill:#C03A3A;" d="M244.629,93.094c4.142,0,7.5-3.357,7.5-7.5V32.922c0-13.088-10.647-23.735-23.734-23.735H23.734
		C10.646,9.187,0,19.834,0,32.922v52.672c0,4.143,3.358,7.5,7.5,7.5h5.381v7.191l-8.264,3.44C1.821,104.89,0,107.621,0,110.649
		v105.962c0,4.143,3.358,7.5,7.5,7.5h4.224l18.364,16.856c1.384,1.27,3.193,1.975,5.071,1.975h181.81
		c1.879,0,3.688-0.705,5.072-1.975l18.363-16.856h4.225c4.142,0,7.5-3.357,7.5-7.5V110.649c0-3.028-1.821-5.76-4.617-6.924
		l-8.265-3.441v-7.19H244.629z M48.08,227.942h-10l-4.174-3.831h10h174.315l-4.173,3.831H48.08z M237.129,118.786v90.325H25H15
		v-93.46l6.881-2.865h208.367l6.881,2.864V118.786z M27.881,97.786v-4.692h10h186.366v4.692H37.881H27.881z M237.129,78.094H25H15
		V32.922c0-4.816,3.918-8.735,8.734-8.735h204.66c4.568,0,8.322,3.527,8.697,8c0.021,0.243,0.037,0.487,0.037,0.735V78.094z"/>
	<path style="fill:none;" d="M216.812,131.999L216.812,131.999c0.015,0.074,0.021,0.15,0.034,0.225
		C216.834,132.149,216.828,132.073,216.812,131.999z"/>
	<path style="fill:none;" d="M216.963,133.499c0-0.257-0.013-0.511-0.039-0.762C216.95,132.988,216.963,133.242,216.963,133.499z"/>
	<path style="fill:#FFAB97;" d="M31.881,118.786L25,121.651v87.46h212.129v-90.325H31.881z M216.963,165.599
		c0,4.143-3.358,7.5-7.5,7.5H42.666c-4.143,0-7.5-3.357-7.5-7.5v-32.1c0-4.143,3.357-7.5,7.5-7.5h166.797
		c3.628,0,6.654,2.576,7.35,6l0,0c0.015,0.074,0.021,0.15,0.034,0.225c0.029,0.171,0.06,0.34,0.078,0.514
		c0.025,0.251,0.039,0.505,0.039,0.762V165.599z"/>
	<rect x="59.166" y="145.999" style="fill:#FF8269;" width="142.797" height="12.1"/>
	<path style="fill:#C03A3A;" d="M216.924,132.737c-0.018-0.174-0.048-0.343-0.078-0.514c-0.013-0.074-0.02-0.15-0.034-0.225
		c-0.695-3.424-3.722-6-7.35-6H42.666c-4.143,0-7.5,3.357-7.5,7.5v32.1c0,4.143,3.357,7.5,7.5,7.5h166.797
		c4.142,0,7.5-3.357,7.5-7.5v-32.1C216.963,133.242,216.95,132.988,216.924,132.737z M50.166,140.999h151.797v5v12.1H59.166h-9
		V140.999z"/>
</g>
<g>
</g>
<g>
</g>
<g>
</g>
<g>
</g>
<g>
</g>
<g>
</g>
<g>
</g>
<g>
</g>
<g>
</g>
<g>
</g>
<g>
</g>
<g>
</g>
<g>
</g>
<g>
</g>
<g>
</g>
</svg>
