<?xml version="1.0" encoding="iso-8859-1"?>
<!-- Generator: Adobe Illustrator 19.1.0, SVG Export Plug-In . SVG Version: 6.00 Build 0)  -->
<svg version="1.1" id="Capa_1" xmlns="http://www.w3.org/2000/svg" xmlns:xlink="http://www.w3.org/1999/xlink" x="0px" y="0px"
	 viewBox="0 0 324.426 324.426" style="enable-background:new 0 0 324.426 324.426;" xml:space="preserve">
<g>
	<path style="fill:#FFFFFF;" d="M152.017,211.665c0-4.811,3.915-8.726,8.726-8.726h15.902c0.667,0,1.314,0.082,1.938,0.224
		c-0.999-3.718-4.39-6.467-8.419-6.467h-15.902c-4.812,0-8.726,3.915-8.726,8.726v49.109c0,4.145,2.907,7.617,6.788,8.501
		c-0.194-0.722-0.307-1.476-0.307-2.258V211.665z"/>
	<path style="fill:#FF8269;" d="M176.645,202.939h-15.902c-4.812,0-8.726,3.915-8.726,8.726v49.109c0,0.782,0.113,1.537,0.307,2.258
		l0,0c0.624,0.143,1.271,0.225,1.938,0.225h15.902c4.811,0,8.726-3.915,8.726-8.726v-49.109c0-0.782-0.113-1.537-0.307-2.259l0,0
		C177.959,203.021,177.312,202.939,176.645,202.939z"/>
	<path style="fill:#FFFFFF;" d="M127.337,297.948V183.807c0.026-6.959,2.423-26.125,13.062-31.174
		c2.494-1.183,4.16-3.626,4.299-6.382c0.14-2.756-1.222-5.352-3.583-6.781c-0.411-0.257-13.487-5.984-13.487-24.503h-10.14
		c0,18.519,13.076,24.246,13.487,24.503c2.361,1.429,3.723,4.024,3.583,6.781c-0.139,2.756-1.805,5.199-4.299,6.382
		c-10.638,5.048-13.036,24.215-13.061,31.174v114.141c0,6.329,5.149,11.478,11.479,11.478h10.14
		C132.486,309.426,127.337,304.277,127.337,297.948z"/>
	<path style="fill:#FFFFFF;" d="M133.655,42.704c6.733-13.622,17.169-20.529,31.016-20.529h15.342c5.238,0,9.745,1.011,13.624,2.716
		c-0.051-0.053-0.098-0.108-0.149-0.161h-0.001c-5.465-5.637-13.052-9.73-23.604-9.73h-15.342c-13.848,0-24.283,6.907-31.016,20.529
		c-4.948,10.012-6.153,20.023-6.329,21.733v42.704h10.129V64.438C127.502,62.727,128.707,52.716,133.655,42.704z"/>
	<path style="fill:none;" d="M194.168,152.633c-2.494-1.183-4.136-3.641-4.275-6.397c-0.14-2.756,1.246-5.367,3.607-6.795
		c0.363-0.228,13.439-5.735,13.439-24.474h-89.452c0,18.519,13.076,24.246,13.487,24.503c2.361,1.429,3.723,4.024,3.583,6.781
		c-0.139,2.756-1.805,5.199-4.299,6.382c-10.638,5.048-13.036,24.215-13.061,31.174v114.141c0,6.329,5.149,11.478,11.479,11.478
		h67.074c6.33,0,11.479-5.149,11.479-11.478V183.793C207.203,176.848,204.806,157.681,194.168,152.633z"/>
	<path style="fill:none;" d="M207.229,99.966V57.254c-0.259-2.627-2.455-20.883-13.741-32.524c-5.465-5.637-13.052-9.73-23.604-9.73
		h-15.342c-13.848,0-24.283,6.907-31.016,20.529c-4.948,10.012-6.153,20.023-6.329,21.733v42.704h13.308H207.229z"/>
	<g>
		<path style="fill:none;" d="M127.326,64.438c0.176-1.71,1.381-11.722,6.329-21.733c6.733-13.622,17.169-20.529,31.016-20.529
			h15.342c5.238,0,9.745,1.011,13.624,2.716c-0.051-0.053-0.098-0.108-0.149-0.161c-5.465-5.637-13.052-9.73-23.604-9.73h-15.342
			c-13.848,0-24.283,6.907-31.016,20.529c-4.948,10.012-6.153,20.023-6.329,21.733v42.704h10.129V64.438z"/>
		<path style="fill:none;" d="M194.168,152.633c-2.494-1.183-4.136-3.641-4.275-6.397c-0.14-2.756,1.246-5.367,3.607-6.795
			c0.363-0.228,13.439-5.735,13.439-24.474h-79.313h-10.14c0,18.519,13.076,24.246,13.487,24.503
			c2.361,1.429,3.723,4.024,3.583,6.781c-0.139,2.756-1.805,5.199-4.299,6.382c-10.638,5.048-13.036,24.215-13.061,31.174v114.141
			c0,6.329,5.149,11.478,11.479,11.478h10.14h56.935c6.33,0,11.479-5.149,11.479-11.478V183.793
			C207.203,176.848,204.806,157.681,194.168,152.633z"/>
		<path style="fill:#FF8269;" d="M164.671,22.175c-13.848,0-24.283,6.907-31.016,20.529c-4.948,10.012-6.153,20.023-6.329,21.733
			v35.529h3.179h76.724V57.254c-0.258-2.616-2.438-20.716-13.592-32.363c-3.88-1.705-8.386-2.716-13.624-2.716H164.671z"/>
		<path style="fill:#C03A3A;" d="M222.205,123.418c0.874-3.904,0.016-66.909,0-67.11c-0.045-0.563-1.192-13.939-7.858-27.424
			C205.008,9.988,189.633,0,169.884,0h-15.342c-19.749,0-35.124,9.988-44.463,28.883c-6.666,13.485-7.812,26.861-7.858,27.424
			c-0.016,0.201-0.875,63.206,0,67.11c2.242,10.011,8.456,17.298,12.909,22.046c-12.759,13.526-12.934,37.146-12.934,38.329v114.155
			c0,14.6,11.878,26.478,26.479,26.478h67.074c14.601,0,26.479-11.878,26.479-26.478V183.793c0-1.183-0.174-24.803-12.933-38.329
			C213.748,140.715,219.963,133.429,222.205,123.418z M117.197,57.263c0.176-1.71,1.381-11.722,6.329-21.733
			C130.259,21.907,140.695,15,154.542,15h15.342c10.552,0,18.139,4.094,23.604,9.73c0.051,0.053,0.099,0.107,0.149,0.161
			c11.153,11.647,13.333,29.748,13.592,32.363v42.712h-90.032V57.263z M207.229,297.948c0,6.329-5.149,11.478-11.479,11.478h-56.935
			h-10.14c-6.33,0-11.479-5.149-11.479-11.478V183.807c0.026-6.959,2.423-26.125,13.061-31.174c2.494-1.183,4.16-3.626,4.299-6.382
			c0.14-2.756-1.222-5.352-3.583-6.781c-0.411-0.257-13.487-5.984-13.487-24.503h89.452c0,18.739-13.076,24.246-13.439,24.474
			c-2.361,1.429-3.747,4.039-3.607,6.795c0.139,2.756,1.781,5.214,4.275,6.397c10.638,5.048,13.036,24.215,13.061,31.16V297.948z"/>
	</g>
	<path style="fill:#FFAB97;" d="M194.168,152.633c-2.494-1.183-4.136-3.641-4.275-6.397c-0.14-2.756,1.246-5.367,3.607-6.795
		c0.363-0.228,13.439-5.735,13.439-24.474h-79.313c0,18.519,13.076,24.246,13.487,24.503c2.361,1.429,3.723,4.024,3.583,6.781
		c-0.139,2.756-1.805,5.199-4.299,6.382c-10.638,5.048-13.036,24.215-13.062,31.174v114.141c0,6.329,5.149,11.478,11.479,11.478
		h56.935c6.33,0,11.479-5.149,11.479-11.478V183.793C207.203,176.848,204.806,157.681,194.168,152.633z M193.89,254.531
		c0,13.083-10.643,23.726-23.726,23.726h-5.762h-10.14c-13.083,0-23.726-10.643-23.726-23.726v-49.109
		c0-13.083,10.644-23.726,23.726-23.726h10.14h5.762c13.083,0,23.726,10.644,23.726,23.726V254.531z"/>
	<path style="fill:none;" d="M170.164,196.696h-15.902c-4.812,0-8.726,3.915-8.726,8.726v49.109c0,4.811,3.915,8.726,8.726,8.726
		h15.902c4.811,0,8.726-3.915,8.726-8.726v-49.109C178.89,200.61,174.976,196.696,170.164,196.696z"/>
	<path style="fill:none;" d="M152.324,263.032c-0.194-0.722-0.307-1.476-0.307-2.258v-49.109c0-4.811,3.915-8.726,8.726-8.726
		h15.902c0.667,0,1.314,0.082,1.938,0.224l0,0c-0.999-3.718-4.39-6.467-8.419-6.467h-15.902c-4.812,0-8.726,3.915-8.726,8.726
		v49.109C145.536,258.676,148.444,262.148,152.324,263.032L152.324,263.032z"/>
	<path style="fill:#C03A3A;" d="M170.164,181.696h-5.762h-10.14c-13.083,0-23.726,10.644-23.726,23.726v49.109
		c0,13.083,10.644,23.726,23.726,23.726h10.14h5.762c13.083,0,23.726-10.643,23.726-23.726v-49.109
		C193.89,192.339,183.247,181.696,170.164,181.696z M145.536,254.531v-49.109c0-4.812,3.915-8.726,8.726-8.726h15.902
		c4.029,0,7.42,2.749,8.419,6.467c0.194,0.722,0.307,1.477,0.307,2.259v49.109c0,4.811-3.915,8.726-8.726,8.726h-15.902
		c-0.667,0-1.314-0.082-1.938-0.225C148.444,262.148,145.536,258.676,145.536,254.531z"/>
</g>
<g>
</g>
<g>
</g>
<g>
</g>
<g>
</g>
<g>
</g>
<g>
</g>
<g>
</g>
<g>
</g>
<g>
</g>
<g>
</g>
<g>
</g>
<g>
</g>
<g>
</g>
<g>
</g>
<g>
</g>
</svg>
