<?xml version="1.0" encoding="iso-8859-1"?>
<!-- Generator: Adobe Illustrator 19.1.0, SVG Export Plug-In . SVG Version: 6.00 Build 0)  -->
<svg version="1.1" id="Capa_1" xmlns="http://www.w3.org/2000/svg" xmlns:xlink="http://www.w3.org/1999/xlink" x="0px" y="0px"
	 viewBox="0 0 355.581 355.581" style="enable-background:new 0 0 355.581 355.581;" xml:space="preserve">
<path style="fill:#FFFFFF;" d="M290.52,204.984h-58.213v6h58.213c6.545,0,11.87,5.325,11.87,11.87v-6
	C302.39,210.31,297.065,204.984,290.52,204.984z"/>
<rect x="138.274" y="204.984" style="fill:#FFFFFF;" width="79.033" height="6"/>
<path style="fill:#FFFFFF;" d="M63.191,222.855c0-6.545,5.324-11.87,11.87-11.87h48.213v-6H65.061c-6.546,0-11.87,5.325-11.87,11.87
	v11.138c0,6.439,5.156,11.686,11.557,11.854c-0.985-1.73-1.557-3.725-1.557-5.854V222.855z"/>
<polygon style="fill:#FFFFFF;" points="114.961,176.561 114.961,171.307 84.262,171.307 84.262,189.984 91.559,189.984 
	91.559,176.561 "/>
<path style="fill:none;" d="M122.461,156.307c4.143,0,7.5,3.357,7.5,7.5v26.178h95.659v-26.178c0-4.143,3.357-7.5,7.5-7.5h9.773
	c-1.189-5.025-4.322-12.227-12.387-19.114c-2.66,9.545-6.608,18.338-11.724,25.903c-10.729,15.868-25.286,24.606-40.992,24.606
	c-15.707,0-30.266-8.738-40.994-24.606c-5.114-7.565-9.063-16.357-11.723-25.901c-8.053,6.878-11.182,14.07-12.374,19.112H122.461z"
	/>
<path style="fill:#FFFFFF;" d="M67.187,266.32c1.037-5.699,5.11-9.665,7.336-11.458h-9.084c-2.225,1.793-6.299,5.759-7.336,11.458
	c-1.069,5.873,1.257,12.565,6.912,19.892c21.981,28.477,24.279,31.453,24.279,48.041v6.328h2.242v-21.514
	c-0.001-0.074-0.136-7.006-4.275-15.536c-3.32-4.568-7.612-10.129-13.162-17.319C68.444,278.886,66.118,272.193,67.187,266.32z"/>
<path style="fill:#FF8269;" d="M297.455,266.194c-1.084-5.686-5.103-9.58-7.291-11.332h-14.727c1.759,2.516,3.262,5.308,4.333,8.363
	c2.603,7.431,3.578,19.077-6.565,32.366c-8.939,11.715-9.16,23.379-9.161,23.496v21.493h2.242v-6.328
	c0-16.589,2.298-19.565,24.279-48.041C296.262,278.833,298.58,272.099,297.455,266.194z"/>
<path style="fill:#FFFFFF;" d="M103.392,139.766c1.057-1.8,2.275-3.629,3.702-5.466c-1.098,0.498-2.207,0.993-3.324,1.486
	c-11.536,5.1-16.251,14.081-18.178,20.52h6.422C93.506,151.32,96.686,144.818,103.392,139.766z"/>
<rect x="240.621" y="171.307" style="fill:#FFFFFF;" width="30.698" height="6.593"/>
<path style="fill:#FF8269;" d="M251.809,135.786c-1.116-0.493-2.225-0.988-3.321-1.486c6.349,8.177,8.767,16.235,9.635,22.007
	h11.869C268.067,149.877,263.353,140.89,251.809,135.786z"/>
<path style="fill:#FFFFFF;" d="M154.745,33.655c0.199,0.015,0.395-0.003,0.592-0.004c1.959-1.184,3.962-2.223,6.013-3.085
	c0.361-0.498,0.683-1.032,0.918-1.624c3.05-7.685,9.967-12.886,18.023-13.788c-0.823-0.092-1.655-0.154-2.5-0.154
	c-9.106,0-17.162,5.473-20.523,13.942c-1.209,3.045-4.246,4.953-7.523,4.713c0,0-11.857-0.286-12.193,11.334
	c-0.045,1.561,0.325,3.078,0.922,4.471c1.321-1.8,2.695-3.498,4.116-5.092C143.328,33.388,154.745,33.655,154.745,33.655z"/>
<path style="fill:#FFFFFF;" d="M187.098,279.702c8.238,0,15.06,1.09,20.375,2.622c-5.277-3.193-15.328-6.5-29.682-6.5
	c-22.075,0-33.983,7.821-33.983,11.02v2.636h9.767C155.937,285.857,167.511,279.702,187.098,279.702z"/>
<path style="fill:#FF8269;" d="M75.061,210.984c-6.546,0-11.87,5.325-11.87,11.87v11.138c0,2.13,0.571,4.124,1.557,5.854
	c0.105,0.003,0.208,0.016,0.313,0.016h58.213v-28.878H75.061z M93.42,227.722c-1.4,1.399-3.33,2.199-5.301,2.199
	c-1.979,0-3.909-0.8-5.31-2.199c-1.39-1.391-2.19-3.32-2.19-5.301c0-1.97,0.801-3.899,2.19-5.3c1.4-1.399,3.33-2.2,5.31-2.2
	c1.971,0,3.9,0.801,5.301,2.2c1.39,1.391,2.189,3.33,2.189,5.3C95.61,224.401,94.81,226.331,93.42,227.722z"/>
<path style="fill:#C03A3A;" d="M88.12,214.921c-1.979,0-3.909,0.801-5.31,2.2c-1.39,1.4-2.19,3.33-2.19,5.3
	c0,1.98,0.801,3.91,2.19,5.301c1.4,1.399,3.33,2.199,5.31,2.199c1.971,0,3.9-0.8,5.301-2.199c1.39-1.391,2.189-3.32,2.189-5.301
	c0-1.97-0.8-3.909-2.189-5.3C92.02,215.722,90.09,214.921,88.12,214.921z"/>
<path style="fill:#FF8269;" d="M290.52,210.984h-58.213v28.878h58.213c6.545,0,11.87-5.325,11.87-11.87v-5.138
	C302.39,216.31,297.065,210.984,290.52,210.984z M272.77,227.722c-1.399,1.399-3.33,2.199-5.3,2.199c-1.979,0-3.91-0.8-5.31-2.199
	c-1.391-1.391-2.2-3.32-2.2-5.301c0-1.97,0.81-3.899,2.2-5.3c1.399-1.399,3.33-2.2,5.31-2.2c1.97,0,3.9,0.801,5.3,2.2
	c1.391,1.4,2.2,3.33,2.2,5.3C274.97,224.401,274.161,226.331,272.77,227.722z"/>
<path style="fill:#C03A3A;" d="M267.47,214.921c-1.979,0-3.91,0.801-5.31,2.2c-1.391,1.4-2.2,3.33-2.2,5.3
	c0,1.98,0.81,3.91,2.2,5.301c1.399,1.399,3.33,2.199,5.31,2.199c1.97,0,3.9-0.8,5.3-2.199c1.391-1.391,2.2-3.32,2.2-5.301
	c0-1.97-0.81-3.899-2.2-5.3C271.371,215.722,269.44,214.921,267.47,214.921z"/>
<path style="fill:#C03A3A;" d="M177.791,214.921c-1.971,0-3.9,0.801-5.301,2.2c-1.399,1.4-2.199,3.33-2.199,5.3
	c0,1.98,0.8,3.91,2.199,5.301c1.391,1.399,3.33,2.199,5.301,2.199c1.979,0,3.91-0.8,5.3-2.199c1.4-1.391,2.2-3.32,2.2-5.301
	c0-1.97-0.8-3.909-2.2-5.3C181.701,215.722,179.76,214.921,177.791,214.921z"/>
<path style="fill:#FFAB97;" d="M153.575,289.479h58.198v-2.636c0-1.118-1.462-2.803-4.3-4.52
	c-5.315-1.532-12.137-2.622-20.375-2.622C167.511,279.702,155.937,285.857,153.575,289.479z"/>
<path style="fill:#C03A3A;" d="M177.792,260.824c-24.342,0-48.983,8.938-48.983,26.02v61.237c0,4.143,3.357,7.5,7.5,7.5
	c4.142,0,7.5-3.357,7.5-7.5v-43.602h67.965v43.602c0,4.143,3.357,7.5,7.5,7.5c4.143,0,7.5-3.357,7.5-7.5v-61.237
	C226.773,269.762,202.132,260.824,177.792,260.824z M143.808,286.844c0-3.198,11.908-11.02,33.983-11.02
	c14.353,0,24.404,3.307,29.682,6.5c2.838,1.717,4.3,3.401,4.3,4.52v2.636h-58.198h-9.767V286.844z"/>
<rect x="240.621" y="171.307" style="fill:none;" width="30.698" height="18.678"/>
<path style="fill:none;" d="M269.992,156.307c-1.925-6.43-6.639-15.417-18.183-20.52c-1.116-0.493-2.225-0.988-3.321-1.486
	c6.349,8.177,8.767,16.235,9.635,22.007H269.992z"/>
<path style="fill:none;" d="M107.094,134.3c-1.098,0.498-2.207,0.993-3.324,1.486c-11.536,5.1-16.251,14.081-18.178,20.52h11.865
	C98.327,150.534,100.743,142.477,107.094,134.3z"/>
<path style="fill:none;" d="M290.164,254.862h-14.727c1.759,2.516,3.262,5.308,4.333,8.363c2.603,7.431,3.578,19.077-6.565,32.366
	c-8.939,11.715-9.16,23.379-9.161,23.496v21.493h2.242v-6.328c0-16.589,2.298-19.565,24.279-48.041
	c5.696-7.379,8.014-14.113,6.889-20.018C296.371,260.508,292.352,256.614,290.164,254.862z"/>
<path style="fill:none;" d="M242.894,156.307c-1.189-5.025-4.322-12.227-12.387-19.114c-2.66,9.545-6.608,18.338-11.724,25.903
	c-10.729,15.868-25.286,24.606-40.992,24.606c-15.707,0-30.266-8.738-40.994-24.606c-5.114-7.565-9.063-16.357-11.723-25.901
	c-8.053,6.878-11.182,14.07-12.374,19.112h9.761c4.143,0,7.5,3.357,7.5,7.5v26.178h95.659v-26.178c0-4.143,3.357-7.5,7.5-7.5
	H242.894z"/>
<rect x="138.274" y="204.984" style="fill:none;" width="79.033" height="34.878"/>
<path style="fill:none;" d="M107.094,134.3c-1.098,0.498-2.207,0.993-3.324,1.486c-11.536,5.1-16.251,14.081-18.178,20.52h11.865
	C98.327,150.534,100.743,142.477,107.094,134.3z"/>
<path style="fill:none;" d="M159.19,165.696c5.75,4.573,12.094,7.006,18.602,7.006c10.569,0,20.714-6.396,28.565-18.008
	c8.46-12.513,13.119-29.289,13.119-47.238c0-17.95-4.659-34.726-13.119-47.238c-0.955-1.413-1.945-2.745-2.966-4.002
	c-7.361-9.069-16.316-14.006-25.6-14.006c-10.57,0-20.716,6.396-28.567,18.008c-8.46,12.513-13.119,29.288-13.119,47.238
	c0,17.949,4.659,34.726,13.119,47.238C152.242,159.157,155.601,162.842,159.19,165.696z"/>
<path style="fill:none;" d="M269.992,156.307c-1.925-6.43-6.639-15.417-18.183-20.52c-1.116-0.493-2.225-0.988-3.321-1.486
	c6.349,8.177,8.767,16.235,9.635,22.007H269.992z"/>
<rect x="240.621" y="171.307" style="fill:none;" width="30.698" height="18.678"/>
<path style="fill:none;" d="M290.164,254.862h-14.727c1.759,2.516,3.262,5.308,4.333,8.363c2.603,7.431,3.578,19.077-6.565,32.366
	c-8.939,11.715-9.16,23.379-9.161,23.496v21.493h2.242v-6.328c0-16.589,2.298-19.565,24.279-48.041
	c5.696-7.379,8.014-14.113,6.889-20.018C296.371,260.508,292.352,256.614,290.164,254.862z"/>
<path style="fill:none;" d="M242.894,156.307c-1.189-5.025-4.322-12.227-12.387-19.114c-2.66,9.545-6.608,18.338-11.724,25.903
	c-10.729,15.868-25.286,24.606-40.992,24.606c-15.707,0-30.266-8.738-40.994-24.606c-5.114-7.565-9.063-16.357-11.723-25.901
	c-8.053,6.878-11.182,14.07-12.374,19.112h9.761c4.143,0,7.5,3.357,7.5,7.5v26.178h95.659v-26.178c0-4.143,3.357-7.5,7.5-7.5
	H242.894z"/>
<rect x="138.274" y="204.984" style="fill:none;" width="79.033" height="34.878"/>
<path style="fill:#FF8269;" d="M142.589,44.368c3.916-4.392,8.2-7.97,12.747-10.717c-0.197,0.001-0.393,0.018-0.592,0.004
	C154.745,33.655,143.328,33.388,142.589,44.368z"/>
<path style="fill:#FF8269;" d="M162.267,28.942c-0.235,0.592-0.557,1.126-0.918,1.624c5.247-2.207,10.768-3.357,16.442-3.357
	c14.906,0,28.771,7.883,39.316,22.249c0.597-1.393,0.987-2.909,0.922-4.47c-0.489-11.709-12.198-11.334-12.198-11.334
	c-3.268,0.243-6.311-1.669-7.519-4.713c-3.05-7.685-9.968-12.887-18.023-13.788C172.233,16.057,165.317,21.258,162.267,28.942z"/>
<path style="fill:none;" d="M103.392,139.766C103.392,139.766,103.393,139.766,103.392,139.766c1.058-1.801,2.275-3.629,3.702-5.466
	c-1.098,0.498-2.207,0.993-3.324,1.486c-11.536,5.1-16.251,14.081-18.178,20.52h6.422C93.506,151.32,96.686,144.818,103.392,139.766
	z"/>
<path style="fill:none;" d="M159.19,165.696c5.75,4.573,12.094,7.006,18.602,7.006c10.569,0,20.714-6.396,28.565-18.008
	c8.46-12.513,13.119-29.289,13.119-47.238c0-17.95-4.659-34.726-13.119-47.238c-0.955-1.413-1.945-2.745-2.966-4.002
	c-7.361-9.069-16.316-14.006-25.6-14.006c-10.57,0-20.716,6.396-28.567,18.008c-8.46,12.513-13.119,29.288-13.119,47.238
	c0,17.949,4.659,34.726,13.119,47.238C152.242,159.157,155.601,162.842,159.19,165.696z"/>
<path style="fill:none;" d="M142.589,44.368c3.916-4.392,8.2-7.97,12.747-10.717c1.959-1.184,3.962-2.223,6.013-3.085
	c5.247-2.207,10.768-3.357,16.442-3.357c14.906,0,28.771,7.883,39.316,22.249c0.597-1.393,0.987-2.909,0.922-4.47
	c-0.489-11.709-12.198-11.334-12.198-11.334c-3.268,0.243-6.311-1.669-7.519-4.713c-3.05-7.685-9.968-12.887-18.023-13.788
	c-0.824-0.092-1.654-0.154-2.499-0.154c-9.106,0-17.162,5.473-20.523,13.942c-1.209,3.045-4.246,4.953-7.523,4.713
	c-0.001,0-11.857-0.286-12.193,11.334c-0.045,1.561,0.325,3.078,0.922,4.471C139.794,47.66,141.168,45.962,142.589,44.368z"/>
<rect x="240.621" y="171.307" style="fill:none;" width="30.698" height="18.678"/>
<path style="fill:none;" d="M269.992,156.307c-1.925-6.43-6.639-15.417-18.183-20.52c-1.116-0.493-2.225-0.988-3.321-1.486
	c6.349,8.177,8.767,16.235,9.635,22.007H269.992z"/>
<path style="fill:none;" d="M242.894,156.307c-1.189-5.025-4.322-12.227-12.387-19.114c-2.66,9.545-6.608,18.338-11.724,25.903
	c-10.729,15.868-25.286,24.606-40.992,24.606c-15.707,0-30.266-8.738-40.994-24.606c-5.114-7.565-9.063-16.357-11.723-25.901
	c-8.053,6.878-11.182,14.07-12.374,19.112h9.761c4.143,0,7.5,3.357,7.5,7.5v26.178h95.659v-26.178c0-4.143,3.357-7.5,7.5-7.5
	H242.894z"/>
<path style="fill:none;" d="M290.164,254.862h-14.727c1.759,2.516,3.262,5.308,4.333,8.363c2.603,7.431,3.578,19.077-6.565,32.366
	c-8.939,11.715-9.16,23.379-9.161,23.496v21.493h2.242v-6.328c0-16.589,2.298-19.565,24.279-48.041
	c5.696-7.379,8.014-14.113,6.889-20.018C296.371,260.508,292.352,256.614,290.164,254.862z"/>
<rect x="138.274" y="204.984" style="fill:none;" width="79.033" height="34.878"/>
<rect x="91.559" y="176.561" style="fill:#FF8269;" width="23.402" height="13.424"/>
<path style="fill:#FF8269;" d="M92.014,156.307h5.443c0.674-4.477,2.287-10.327,5.935-16.542c0,0.001-0.001,0.001-0.001,0.001
	C96.686,144.818,93.506,151.32,92.014,156.307z"/>
<path style="fill:none;" d="M142.589,44.368c3.916-4.392,8.2-7.97,12.747-10.717c1.959-1.184,3.962-2.223,6.013-3.085
	c5.247-2.207,10.768-3.357,16.442-3.357c14.906,0,28.771,7.883,39.316,22.249c0.597-1.393,0.987-2.909,0.922-4.47
	c-0.489-11.709-12.198-11.334-12.198-11.334c-3.268,0.243-6.311-1.669-7.519-4.713c-3.05-7.685-9.968-12.887-18.023-13.788
	c-0.824-0.092-1.654-0.154-2.499-0.154c-9.106,0-17.162,5.473-20.523,13.942c-1.209,3.045-4.246,4.953-7.523,4.713
	c-0.001,0-11.857-0.286-12.193,11.334c-0.045,1.561,0.325,3.078,0.922,4.471C139.794,47.66,141.168,45.962,142.589,44.368z"/>
<path style="fill:none;" d="M97.458,156.307c0.674-4.477,2.287-10.327,5.935-16.542c1.057-1.8,2.275-3.628,3.701-5.465
	c-1.098,0.498-2.207,0.993-3.324,1.486c-11.536,5.1-16.251,14.081-18.178,20.52h6.422H97.458z"/>
<path style="fill:none;" d="M159.19,165.696c5.75,4.573,12.094,7.006,18.602,7.006c10.569,0,20.714-6.396,28.565-18.008
	c8.46-12.513,13.119-29.289,13.119-47.238c0-17.95-4.659-34.726-13.119-47.238c-0.955-1.413-1.945-2.745-2.966-4.002
	c-7.361-9.069-16.316-14.006-25.6-14.006c-10.57,0-20.716,6.396-28.567,18.008c-8.46,12.513-13.119,29.288-13.119,47.238
	c0,17.949,4.659,34.726,13.119,47.238C152.242,159.157,155.601,162.842,159.19,165.696z"/>
<rect x="240.621" y="171.307" style="fill:none;" width="30.698" height="18.678"/>
<path style="fill:none;" d="M269.992,156.307c-1.925-6.43-6.639-15.417-18.183-20.52c-1.116-0.493-2.225-0.988-3.321-1.486
	c6.349,8.177,8.767,16.235,9.635,22.007H269.992z"/>
<polygon style="fill:none;" points="114.961,189.984 114.961,176.561 114.961,171.307 84.262,171.307 84.262,189.984 
	91.559,189.984 "/>
<rect x="138.274" y="204.984" style="fill:none;" width="79.033" height="34.878"/>
<path style="fill:none;" d="M242.894,156.307c-1.189-5.025-4.322-12.227-12.387-19.114c-2.66,9.545-6.608,18.338-11.724,25.903
	c-10.729,15.868-25.286,24.606-40.992,24.606c-15.707,0-30.266-8.738-40.994-24.606c-5.114-7.565-9.063-16.357-11.723-25.901
	c-8.053,6.878-11.182,14.07-12.374,19.112h9.761c4.143,0,7.5,3.357,7.5,7.5v26.178h95.659v-26.178c0-4.143,3.357-7.5,7.5-7.5
	H242.894z"/>
<path style="fill:none;" d="M290.164,254.862h-14.727c1.759,2.516,3.262,5.308,4.333,8.363c2.603,7.431,3.578,19.077-6.565,32.366
	c-8.939,11.715-9.16,23.379-9.161,23.496v21.493h2.242v-6.328c0-16.589,2.298-19.565,24.279-48.041
	c5.696-7.379,8.014-14.113,6.889-20.018C296.371,260.508,292.352,256.614,290.164,254.862z"/>
<path style="fill:none;" d="M97.458,156.307c0.674-4.477,2.287-10.327,5.935-16.542c1.057-1.8,2.275-3.628,3.701-5.465
	c-1.098,0.498-2.207,0.993-3.324,1.486c-11.536,5.1-16.251,14.081-18.178,20.52h6.422H97.458z"/>
<path style="fill:none;" d="M159.19,165.696c5.75,4.573,12.094,7.006,18.602,7.006c10.569,0,20.714-6.396,28.565-18.008
	c8.46-12.513,13.119-29.289,13.119-47.238c0-17.95-4.659-34.726-13.119-47.238c-0.955-1.413-1.945-2.745-2.966-4.002
	c-7.361-9.069-16.316-14.006-25.6-14.006c-10.57,0-20.716,6.396-28.567,18.008c-8.46,12.513-13.119,29.288-13.119,47.238
	c0,17.949,4.659,34.726,13.119,47.238C152.242,159.157,155.601,162.842,159.19,165.696z"/>
<polygon style="fill:none;" points="114.961,189.984 114.961,176.561 114.961,171.307 84.262,171.307 84.262,189.984 
	91.559,189.984 "/>
<path style="fill:none;" d="M142.589,44.368c3.916-4.392,8.2-7.97,12.747-10.717c1.959-1.184,3.962-2.223,6.013-3.085
	c5.247-2.207,10.768-3.357,16.442-3.357c14.906,0,28.771,7.883,39.316,22.249c0.597-1.393,0.987-2.909,0.922-4.47
	c-0.489-11.709-12.198-11.334-12.198-11.334c-3.268,0.243-6.311-1.669-7.519-4.713c-3.05-7.685-9.968-12.887-18.023-13.788
	c-0.824-0.092-1.654-0.154-2.499-0.154c-9.106,0-17.162,5.473-20.523,13.942c-1.209,3.045-4.246,4.953-7.523,4.713
	c-0.001,0-11.857-0.286-12.193,11.334c-0.045,1.561,0.325,3.078,0.922,4.471C139.794,47.66,141.168,45.962,142.589,44.368z"/>
<path style="fill:none;" d="M269.992,156.307c-1.925-6.43-6.639-15.417-18.183-20.52c-1.116-0.493-2.225-0.988-3.321-1.486
	c6.349,8.177,8.767,16.235,9.635,22.007H269.992z"/>
<rect x="240.621" y="171.307" style="fill:none;" width="30.698" height="18.678"/>
<path style="fill:none;" d="M290.164,254.862h-14.727c1.759,2.516,3.262,5.308,4.333,8.363c2.603,7.431,3.578,19.077-6.565,32.366
	c-8.939,11.715-9.16,23.379-9.161,23.496v21.493h2.242v-6.328c0-16.589,2.298-19.565,24.279-48.041
	c5.696-7.379,8.014-14.113,6.889-20.018C296.371,260.508,292.352,256.614,290.164,254.862z"/>
<path style="fill:none;" d="M242.894,156.307c-1.189-5.025-4.322-12.227-12.387-19.114c-2.66,9.545-6.608,18.338-11.724,25.903
	c-10.729,15.868-25.286,24.606-40.992,24.606c-15.707,0-30.266-8.738-40.994-24.606c-5.114-7.565-9.063-16.357-11.723-25.901
	c-8.053,6.878-11.182,14.07-12.374,19.112h9.761c4.143,0,7.5,3.357,7.5,7.5v26.178h95.659v-26.178c0-4.143,3.357-7.5,7.5-7.5
	H242.894z"/>
<path style="fill:none;" d="M53.191,216.855v11.138c0,6.439,5.156,11.686,11.557,11.854c0.105,0.003,0.208,0.016,0.313,0.016h58.213
	v-28.878v-6H65.061C58.515,204.984,53.191,210.31,53.191,216.855z"/>
<rect x="138.274" y="204.984" style="fill:none;" width="79.033" height="34.878"/>
<path style="fill:#FF8269;" d="M67.187,266.32c-1.069,5.873,1.257,12.565,6.912,19.892c5.55,7.19,9.842,12.751,13.162,17.319
	l0.001,0.001c-1.238-2.551-2.829-5.243-4.888-7.94c-10.142-13.289-9.166-24.936-6.563-32.367c1.07-3.055,2.571-5.847,4.329-8.362
	h-5.618C72.297,256.655,68.224,260.621,67.187,266.32z"/>
<path style="fill:none;" d="M53.191,216.855v11.138c0,6.439,5.156,11.686,11.557,11.854c0.105,0.003,0.208,0.016,0.313,0.016h58.213
	v-28.878v-6H65.061C58.515,204.984,53.191,210.31,53.191,216.855z"/>
<path style="fill:none;" d="M82.375,295.592c-10.142-13.289-9.166-24.936-6.563-32.367c1.07-3.055,2.571-5.847,4.329-8.362h-5.618
	h-9.084c-2.225,1.793-6.299,5.759-7.336,11.458c-1.069,5.873,1.257,12.565,6.912,19.892c21.981,28.477,24.279,31.453,24.279,48.041
	v6.328h2.242v-21.514c-0.001-0.074-0.136-7.005-4.274-15.535C86.024,300.981,84.433,298.289,82.375,295.592z"/>
<polygon style="fill:none;" points="114.961,189.984 114.961,176.561 114.961,171.307 84.262,171.307 84.262,189.984 
	91.559,189.984 "/>
<path style="fill:none;" d="M159.19,165.696c5.75,4.573,12.094,7.006,18.602,7.006c10.569,0,20.714-6.396,28.565-18.008
	c8.46-12.513,13.119-29.289,13.119-47.238c0-17.95-4.659-34.726-13.119-47.238c-0.955-1.413-1.945-2.745-2.966-4.002
	c-7.361-9.069-16.316-14.006-25.6-14.006c-10.57,0-20.716,6.396-28.567,18.008c-8.46,12.513-13.119,29.288-13.119,47.238
	c0,17.949,4.659,34.726,13.119,47.238C152.242,159.157,155.601,162.842,159.19,165.696z"/>
<path style="fill:none;" d="M97.458,156.307c0.674-4.477,2.287-10.327,5.935-16.542c1.057-1.8,2.275-3.628,3.701-5.465
	c-1.098,0.498-2.207,0.993-3.324,1.486c-11.536,5.1-16.251,14.081-18.178,20.52h6.422H97.458z"/>
<path style="fill:none;" d="M269.992,156.307c-1.925-6.43-6.639-15.417-18.183-20.52c-1.116-0.493-2.225-0.988-3.321-1.486
	c6.349,8.177,8.767,16.235,9.635,22.007H269.992z"/>
<path style="fill:none;" d="M142.589,44.368c3.916-4.392,8.2-7.97,12.747-10.717c1.959-1.184,3.962-2.223,6.013-3.085
	c5.247-2.207,10.768-3.357,16.442-3.357c14.906,0,28.771,7.883,39.316,22.249c0.597-1.393,0.987-2.909,0.922-4.47
	c-0.489-11.709-12.198-11.334-12.198-11.334c-3.268,0.243-6.311-1.669-7.519-4.713c-3.05-7.685-9.968-12.887-18.023-13.788
	c-0.824-0.092-1.654-0.154-2.499-0.154c-9.106,0-17.162,5.473-20.523,13.942c-1.209,3.045-4.246,4.953-7.523,4.713
	c-0.001,0-11.857-0.286-12.193,11.334c-0.045,1.561,0.325,3.078,0.922,4.471C139.794,47.66,141.168,45.962,142.589,44.368z"/>
<rect x="240.621" y="171.307" style="fill:none;" width="30.698" height="18.678"/>
<path style="fill:none;" d="M290.164,254.862h-14.727c1.759,2.516,3.262,5.308,4.333,8.363c2.603,7.431,3.578,19.077-6.565,32.366
	c-8.939,11.715-9.16,23.379-9.161,23.496v21.493h2.242v-6.328c0-16.589,2.298-19.565,24.279-48.041
	c5.696-7.379,8.014-14.113,6.889-20.018C296.371,260.508,292.352,256.614,290.164,254.862z"/>
<rect x="138.274" y="204.984" style="fill:none;" width="79.033" height="6"/>
<path style="fill:none;" d="M242.894,156.307c-1.189-5.025-4.322-12.227-12.387-19.114c-2.66,9.545-6.608,18.338-11.724,25.903
	c-10.729,15.868-25.286,24.606-40.992,24.606c-15.707,0-30.266-8.738-40.994-24.606c-5.114-7.565-9.063-16.357-11.723-25.901
	c-8.053,6.878-11.182,14.07-12.374,19.112h9.761c4.143,0,7.5,3.357,7.5,7.5v26.178h95.659v-26.178c0-4.143,3.357-7.5,7.5-7.5
	H242.894z"/>
<path style="fill:none;" d="M177.791,229.921c1.979,0,3.91-0.8,5.3-2.199c1.4-1.391,2.2-3.32,2.2-5.301c0-1.97-0.8-3.909-2.2-5.3
	c-1.39-1.399-3.33-2.2-5.3-2.2c-1.971,0-3.9,0.801-5.301,2.2c-1.399,1.4-2.199,3.33-2.199,5.3c0,1.98,0.8,3.91,2.199,5.301
	C173.88,229.121,175.82,229.921,177.791,229.921z"/>
<path style="fill:#FF8269;" d="M138.274,239.862h79.033v-28.878h-79.033V239.862z M172.49,217.121c1.4-1.399,3.33-2.2,5.301-2.2
	c1.97,0,3.91,0.801,5.3,2.2c1.4,1.391,2.2,3.33,2.2,5.3c0,1.98-0.8,3.91-2.2,5.301c-1.39,1.399-3.32,2.199-5.3,2.199
	c-1.971,0-3.91-0.8-5.301-2.199c-1.399-1.391-2.199-3.32-2.199-5.301C170.291,220.451,171.09,218.521,172.49,217.121z"/>
<path style="fill:none;" d="M97.458,156.307c0.674-4.477,2.287-10.327,5.935-16.542c1.057-1.8,2.275-3.628,3.701-5.465
	c-1.098,0.498-2.207,0.993-3.324,1.486c-11.536,5.1-16.251,14.081-18.178,20.52h6.422H97.458z"/>
<path style="fill:none;" d="M159.19,165.696c5.75,4.573,12.094,7.006,18.602,7.006c10.569,0,20.714-6.396,28.565-18.008
	c8.46-12.513,13.119-29.289,13.119-47.238c0-17.95-4.659-34.726-13.119-47.238c-0.955-1.413-1.945-2.745-2.966-4.002
	c-7.361-9.069-16.316-14.006-25.6-14.006c-10.57,0-20.716,6.396-28.567,18.008c-8.46,12.513-13.119,29.288-13.119,47.238
	c0,17.949,4.659,34.726,13.119,47.238C152.242,159.157,155.601,162.842,159.19,165.696z"/>
<polygon style="fill:none;" points="114.961,189.984 114.961,176.561 114.961,171.307 84.262,171.307 84.262,189.984 
	91.559,189.984 "/>
<rect x="240.621" y="171.307" style="fill:none;" width="30.698" height="18.678"/>
<path style="fill:none;" d="M269.992,156.307c-1.925-6.43-6.639-15.417-18.183-20.52c-1.116-0.493-2.225-0.988-3.321-1.486
	c6.349,8.177,8.767,16.235,9.635,22.007H269.992z"/>
<path style="fill:none;" d="M82.375,295.592c-10.142-13.289-9.166-24.936-6.563-32.367c1.07-3.055,2.571-5.847,4.329-8.362h-5.618
	h-9.084c-2.225,1.793-6.299,5.759-7.336,11.458c-1.069,5.873,1.257,12.565,6.912,19.892c21.981,28.477,24.279,31.453,24.279,48.041
	v6.328h2.242v-21.514c-0.001-0.074-0.136-7.005-4.274-15.535C86.024,300.981,84.433,298.289,82.375,295.592z"/>
<path style="fill:none;" d="M142.589,44.368c3.916-4.392,8.2-7.97,12.747-10.717c1.959-1.184,3.962-2.223,6.013-3.085
	c5.247-2.207,10.768-3.357,16.442-3.357c14.906,0,28.771,7.883,39.316,22.249c0.597-1.393,0.987-2.909,0.922-4.47
	c-0.489-11.709-12.198-11.334-12.198-11.334c-3.268,0.243-6.311-1.669-7.519-4.713c-3.05-7.685-9.968-12.887-18.023-13.788
	c-0.824-0.092-1.654-0.154-2.499-0.154c-9.106,0-17.162,5.473-20.523,13.942c-1.209,3.045-4.246,4.953-7.523,4.713
	c-0.001,0-11.857-0.286-12.193,11.334c-0.045,1.561,0.325,3.078,0.922,4.471C139.794,47.66,141.168,45.962,142.589,44.368z"/>
<path style="fill:none;" d="M290.164,254.862h-14.727c1.759,2.516,3.262,5.308,4.333,8.363c2.603,7.431,3.578,19.077-6.565,32.366
	c-8.939,11.715-9.16,23.379-9.161,23.496v21.493h2.242v-6.328c0-16.589,2.298-19.565,24.279-48.041
	c5.696-7.379,8.014-14.113,6.889-20.018C296.371,260.508,292.352,256.614,290.164,254.862z"/>
<polygon style="fill:none;" points="138.274,210.984 138.274,239.862 217.307,239.862 217.307,210.984 217.307,204.984 
	138.274,204.984 "/>
<path style="fill:none;" d="M242.894,156.307c-1.189-5.025-4.322-12.227-12.387-19.114c-2.66,9.545-6.608,18.338-11.724,25.903
	c-10.729,15.868-25.286,24.606-40.992,24.606c-15.707,0-30.266-8.738-40.994-24.606c-5.114-7.565-9.063-16.357-11.723-25.901
	c-8.053,6.878-11.182,14.07-12.374,19.112h9.761c4.143,0,7.5,3.357,7.5,7.5v26.178h95.659v-26.178c0-4.143,3.357-7.5,7.5-7.5
	H242.894z"/>
<path style="fill:none;" d="M53.191,216.855v11.138c0,6.439,5.156,11.686,11.557,11.854c0.105,0.003,0.208,0.016,0.313,0.016h58.213
	v-28.878v-6H65.061C58.515,204.984,53.191,210.31,53.191,216.855z"/>
<path style="fill:none;" d="M159.19,165.696c5.75,4.573,12.094,7.006,18.602,7.006c10.569,0,20.714-6.396,28.565-18.008
	c8.46-12.513,13.119-29.289,13.119-47.238c0-17.95-4.659-34.726-13.119-47.238c-0.955-1.413-1.945-2.745-2.966-4.002
	c-7.361-9.069-16.316-14.006-25.6-14.006c-10.57,0-20.716,6.396-28.567,18.008c-8.46,12.513-13.119,29.288-13.119,47.238
	c0,17.949,4.659,34.726,13.119,47.238C152.242,159.157,155.601,162.842,159.19,165.696z"/>
<path style="fill:none;" d="M97.458,156.307c0.674-4.477,2.287-10.327,5.935-16.542c1.057-1.8,2.275-3.628,3.701-5.465
	c-1.098,0.498-2.207,0.993-3.324,1.486c-11.536,5.1-16.251,14.081-18.178,20.52h6.422H97.458z"/>
<polygon style="fill:none;" points="114.961,189.984 114.961,176.561 114.961,171.307 84.262,171.307 84.262,189.984 
	91.559,189.984 "/>
<path style="fill:none;" d="M142.589,44.368c3.916-4.392,8.2-7.97,12.747-10.717c1.959-1.184,3.962-2.223,6.013-3.085
	c5.247-2.207,10.768-3.357,16.442-3.357c14.906,0,28.771,7.883,39.316,22.249c0.597-1.393,0.987-2.909,0.922-4.47
	c-0.489-11.709-12.198-11.334-12.198-11.334c-3.268,0.243-6.311-1.669-7.519-4.713c-3.05-7.685-9.968-12.887-18.023-13.788
	c-0.824-0.092-1.654-0.154-2.499-0.154c-9.106,0-17.162,5.473-20.523,13.942c-1.209,3.045-4.246,4.953-7.523,4.713
	c-0.001,0-11.857-0.286-12.193,11.334c-0.045,1.561,0.325,3.078,0.922,4.471C139.794,47.66,141.168,45.962,142.589,44.368z"/>
<path style="fill:none;" d="M269.992,156.307c-1.925-6.43-6.639-15.417-18.183-20.52c-1.116-0.493-2.225-0.988-3.321-1.486
	c6.349,8.177,8.767,16.235,9.635,22.007H269.992z"/>
<rect x="240.621" y="171.307" style="fill:none;" width="30.698" height="6.593"/>
<path style="fill:none;" d="M290.52,204.984h-58.213v6v28.878h58.213c6.545,0,11.87-5.325,11.87-11.87v-5.138v-6
	C302.39,210.31,297.065,204.984,290.52,204.984z"/>
<path style="fill:none;" d="M82.375,295.592c-10.142-13.289-9.166-24.936-6.563-32.367c1.07-3.055,2.571-5.847,4.329-8.362h-5.618
	h-9.084c-2.225,1.793-6.299,5.759-7.336,11.458c-1.069,5.873,1.257,12.565,6.912,19.892c21.981,28.477,24.279,31.453,24.279,48.041
	v6.328h2.242v-21.514c-0.001-0.074-0.136-7.005-4.274-15.535C86.024,300.981,84.433,298.289,82.375,295.592z"/>
<path style="fill:none;" d="M242.894,156.307c-1.189-5.025-4.322-12.227-12.387-19.114c-2.66,9.545-6.608,18.338-11.724,25.903
	c-10.729,15.868-25.286,24.606-40.992,24.606c-15.707,0-30.266-8.738-40.994-24.606c-5.114-7.565-9.063-16.357-11.723-25.901
	c-8.053,6.878-11.182,14.07-12.374,19.112h9.761c4.143,0,7.5,3.357,7.5,7.5v26.178h95.659v-26.178c0-4.143,3.357-7.5,7.5-7.5
	H242.894z"/>
<path style="fill:none;" d="M290.164,254.862h-14.727c1.759,2.516,3.262,5.308,4.333,8.363c2.603,7.431,3.578,19.077-6.565,32.366
	c-8.939,11.715-9.16,23.379-9.161,23.496v21.493h2.242v-6.328c0-16.589,2.298-19.565,24.279-48.041
	c5.696-7.379,8.014-14.113,6.889-20.018C296.371,260.508,292.352,256.614,290.164,254.862z"/>
<polygon style="fill:none;" points="138.274,210.984 138.274,239.862 217.307,239.862 217.307,210.984 217.307,204.984 
	138.274,204.984 "/>
<path style="fill:none;" d="M53.191,216.855v11.138c0,6.439,5.156,11.686,11.557,11.854c0.105,0.003,0.208,0.016,0.313,0.016h58.213
	v-28.878v-6H65.061C58.515,204.984,53.191,210.31,53.191,216.855z"/>
<rect x="240.621" y="177.899" style="fill:#FF8269;" width="30.698" height="12.085"/>
<path style="fill:#C03A3A;" d="M317.39,227.992v-11.138c0-14.816-12.054-26.87-26.87-26.87h-4.201v-26.178
	c0-0.003-0.001-0.007-0.001-0.007c0-0.006,0.001-0.008,0.001-0.008c-0.003-1.194-0.39-29.323-28.445-41.725
	c-5.78-2.556-23.369-10.33-23.325-15.435c0.004-0.419-1.924-29.821-9.191-43.059c4.841-4.878,7.673-11.536,7.673-18.585
	c0-13.387-10.023-24.478-22.958-26.161C203.56,7.246,191.372,0,177.791,0c-13.581,0-25.771,7.246-32.282,18.828
	c-12.936,1.684-22.957,12.774-22.957,26.161c0,7.048,2.834,13.707,7.672,18.587c-7.933,16.402-9.149,42.652-9.162,43.098
	c-0.151,5.104-17.574,12.838-23.354,15.394c-28.056,12.401-28.441,40.53-28.444,41.722v0.015v0.003v26.178h-4.201
	c-14.816,0-26.87,12.054-26.87,26.87v11.138c0,9.03,4.481,17.028,11.333,21.902c-2.651,3.493-5.085,7.993-6.133,13.493
	c-1.963,10.304,1.317,21.066,9.75,31.99c21.153,27.403,21.153,27.618,21.153,38.875v13.828c0,4.143,3.357,7.5,7.5,7.5h17.242
	c4.142,0,7.5-3.357,7.5-7.5v-28.98c0.003-0.673-0.067-16.661-12.237-32.608c-4.955-6.494-6.372-12.482-4.331-18.308
	c2.555-7.291,9.638-12.14,12.793-13.322h150.058c3.155,1.183,10.24,6.031,12.795,13.323c2.041,5.824,0.624,11.812-4.332,18.307
	c-12.17,15.947-12.24,31.936-12.237,32.575v29.014c0,4.143,3.357,7.5,7.5,7.5h17.242c4.143,0,7.5-3.357,7.5-7.5v-13.828
	c0-11.258,0-11.473,21.152-38.875c8.434-10.924,11.714-21.686,9.751-31.99c-1.048-5.501-3.482-10-6.134-13.492
	C312.908,245.02,317.39,237.022,317.39,227.992z M240.621,189.984v-12.085v-6.593h30.698v6.593v12.085H240.621z M251.809,135.786
	c11.544,5.104,16.258,14.091,18.183,20.52h-11.869c-0.868-5.771-3.286-13.83-9.635-22.007
	C249.584,134.798,250.693,135.293,251.809,135.786z M149.745,33.655c3.276,0.24,6.314-1.668,7.523-4.713
	C160.628,20.473,168.684,15,177.791,15c0.845,0,1.675,0.062,2.499,0.154c8.056,0.901,14.974,6.103,18.023,13.788
	c1.208,3.044,4.251,4.956,7.519,4.713c0,0,11.709-0.375,12.198,11.334c0.065,1.561-0.325,3.077-0.922,4.47
	c-10.545-14.366-24.41-22.249-39.316-22.249c-5.674,0-11.195,1.149-16.442,3.357c-2.051,0.862-4.054,1.901-6.013,3.085
	c-4.547,2.747-8.831,6.324-12.747,10.717c-1.421,1.594-2.795,3.292-4.116,5.092c-0.597-1.392-0.967-2.91-0.922-4.471
	C137.887,33.369,149.744,33.655,149.745,33.655z M149.224,60.218c7.852-11.612,17.997-18.008,28.567-18.008
	c9.283,0,18.238,4.937,25.6,14.006c1.021,1.257,2.011,2.589,2.966,4.002c8.46,12.513,13.119,29.288,13.119,47.238
	c0,17.949-4.659,34.726-13.119,47.238c-7.852,11.612-17.996,18.008-28.565,18.008c-6.508,0-12.852-2.433-18.602-7.006
	c-3.589-2.855-6.948-6.539-9.966-11.002c-8.46-12.513-13.119-29.289-13.119-47.238C136.105,89.506,140.764,72.73,149.224,60.218z
	 M103.77,135.786c1.117-0.493,2.227-0.988,3.324-1.486c-1.427,1.837-2.644,3.665-3.701,5.465
	c-3.648,6.215-5.262,12.065-5.935,16.542h-5.443h-6.422C87.519,149.867,92.234,140.886,103.77,135.786z M84.262,171.307h30.699
	v5.254v13.424H91.559h-7.297V171.307z M91.537,319.067v21.514h-2.242v-6.328c0-16.588-2.298-19.564-24.279-48.041
	c-5.655-7.326-7.981-14.019-6.912-19.892c1.037-5.699,5.11-9.665,7.336-11.458h9.084h5.618c-1.758,2.516-3.259,5.308-4.329,8.362
	c-2.603,7.431-3.579,19.078,6.563,32.367c2.059,2.697,3.649,5.39,4.888,7.94C91.401,312.062,91.536,318.993,91.537,319.067z
	 M123.274,210.984v28.878H65.061c-0.105,0-0.208-0.013-0.313-0.016c-6.4-0.169-11.557-5.415-11.557-11.854v-11.138
	c0-6.545,5.324-11.87,11.87-11.87h58.213V210.984z M217.307,210.984v28.878h-79.033v-28.878v-6h79.033V210.984z M225.621,163.807
	v26.178h-95.659v-26.178c0-4.143-3.357-7.5-7.5-7.5h-9.761c1.192-5.042,4.321-12.234,12.374-19.112
	c2.659,9.544,6.608,18.336,11.723,25.901c10.729,15.868,25.287,24.606,40.994,24.606c15.706,0,30.264-8.738,40.992-24.606
	c5.115-7.565,9.063-16.358,11.724-25.903c8.064,6.887,11.198,14.089,12.387,19.114h-9.773
	C228.978,156.307,225.621,159.664,225.621,163.807z M290.566,286.212c-21.982,28.476-24.279,31.452-24.279,48.041v6.328h-2.242
	v-21.493c0.001-0.117,0.222-11.781,9.161-23.496c10.143-13.289,9.168-24.936,6.565-32.366c-1.071-3.056-2.574-5.848-4.333-8.363
	h14.727c2.189,1.752,6.207,5.646,7.291,11.332C298.58,272.099,296.262,278.833,290.566,286.212z M302.39,222.855v5.138
	c0,6.545-5.325,11.87-11.87,11.87h-58.213v-28.878v-6h58.213c6.545,0,11.87,5.325,11.87,11.87V222.855z"/>
<path style="fill:#FFAB97;" d="M206.357,60.218c-0.955-1.413-1.945-2.745-2.966-4.002c0,0,0-0.001-0.001-0.001
	c-5.749-4.572-12.092-7.005-18.599-7.005c-2.572,0-5.119,0.386-7.614,1.126h-0.001c0.205-0.006,0.408-0.024,0.615-0.024
	c4.143,0,7.5,3.357,7.5,7.5s-3.357,7.5-7.5,7.5c-9.333,0-19.771,18.023-19.771,42.145c0,4.143-3.358,7.5-7.5,7.5
	c-3.519,0-6.462-2.425-7.271-5.692c-0.087,1.719-0.145,3.448-0.145,5.192c0,17.949,4.659,34.726,13.119,47.238
	c0.955,1.413,1.946,2.746,2.966,4.002c5.75,4.573,12.094,7.006,18.602,7.006c10.569,0,20.714-6.396,28.565-18.008
	c8.46-12.513,13.119-29.289,13.119-47.238C219.476,89.506,214.817,72.73,206.357,60.218z"/>
<path style="fill:none;" d="M143.021,107.456c0-30.19,13.563-54.187,31.439-56.863C156.584,53.27,143.021,77.265,143.021,107.456z"
	/>
<path style="fill:#FFFFFF;" d="M174.46,50.593c0.895-0.134,1.8-0.231,2.716-0.257h0.001c2.495-0.74,5.042-1.126,7.614-1.126
	c6.507,0,12.85,2.433,18.599,7.005c-7.361-9.068-16.315-14.005-25.599-14.005c-10.57,0-20.716,6.396-28.567,18.008
	c-8.46,12.513-13.119,29.288-13.119,47.238c0,17.949,4.659,34.726,13.119,47.238c3.018,4.463,6.377,8.147,9.966,11.002
	c-1.02-1.256-2.011-2.589-2.966-4.002c-8.46-12.513-13.119-29.289-13.119-47.238c0-1.744,0.058-3.474,0.145-5.192
	c-0.144-0.58-0.229-1.184-0.229-1.808C143.021,77.265,156.584,53.27,174.46,50.593z"/>
<path style="fill:#C03A3A;" d="M177.792,50.312c-0.207,0-0.409,0.019-0.614,0.024h-0.001c-0.916,0.025-1.82,0.123-2.716,0.257
	c-17.876,2.677-31.439,26.673-31.439,56.863c0,0.624,0.085,1.228,0.229,1.808c0.81,3.267,3.753,5.692,7.271,5.692
	c4.142,0,7.5-3.357,7.5-7.5c0-24.121,10.438-42.145,19.771-42.145c4.143,0,7.5-3.357,7.5-7.5S181.934,50.312,177.792,50.312z"/>
<g>
</g>
<g>
</g>
<g>
</g>
<g>
</g>
<g>
</g>
<g>
</g>
<g>
</g>
<g>
</g>
<g>
</g>
<g>
</g>
<g>
</g>
<g>
</g>
<g>
</g>
<g>
</g>
<g>
</g>
</svg>
