<?xml version="1.0" encoding="iso-8859-1"?>
<!-- Generator: Adobe Illustrator 19.1.0, SVG Export Plug-In . SVG Version: 6.00 Build 0)  -->
<svg version="1.1" id="Capa_1" xmlns="http://www.w3.org/2000/svg" xmlns:xlink="http://www.w3.org/1999/xlink" x="0px" y="0px"
	 viewBox="0 0 328.945 328.945" style="enable-background:new 0 0 328.945 328.945;" xml:space="preserve">
<g>
	<rect x="92.165" y="191.896" style="fill:#FFFFFF;" width="10" height="51.815"/>
	<rect x="199.913" y="191.896" style="fill:#FFFFFF;" width="10" height="51.815"/>
	<polygon style="fill:#FFFFFF;" points="267.786,23.639 267.786,15 61.158,15 61.158,122.852 69.797,122.852 69.797,23.639 	"/>
	<rect x="103.971" y="137.852" style="fill:none;" width="121.004" height="4.186"/>
	<polygon style="fill:#FFFFFF;" points="267.786,164.235 267.786,157.037 61.158,157.037 61.158,313.945 69.823,313.945 
		69.823,164.235 	"/>
	<path style="fill:#FF8269;" d="M216.365,283.802h-66.809c0.085,0.776,0.131,1.563,0.131,2.359s-0.046,1.582-0.131,2.358h66.809
		c1.301,0,2.359-1.058,2.359-2.358C218.724,284.86,217.665,283.802,216.365,283.802z"/>
	<path style="fill:#FFFFFF;" d="M130.394,281.58c0.972,0,1.916,0.101,2.829,0.272c-2.087-2.912-6.18-4.942-10.769-4.942
		c-6.631,0-12.233,4.236-12.233,9.251c0,4.279,4.085,7.982,9.403,8.978c-0.93-1.295-1.464-2.765-1.464-4.309
		C118.16,285.816,123.763,281.58,130.394,281.58z"/>
	<rect x="103.971" y="137.852" style="fill:none;" width="121.004" height="4.186"/>
	<rect x="103.971" y="137.852" style="fill:none;" width="121.004" height="4.186"/>
	<polygon style="fill:none;" points="267.786,23.639 267.786,15 61.158,15 61.158,122.852 69.797,122.852 267.786,122.852 	"/>
	<path style="fill:#C03A3A;" d="M275.286,137.852c4.143,0,7.5-3.358,7.5-7.5V7.5c0-4.142-3.357-7.5-7.5-7.5H53.658
		c-4.143,0-7.5,3.358-7.5,7.5v122.852c0,4.142,3.357,7.5,7.5,7.5h35.312v4.186H53.658c-4.143,0-7.5,3.358-7.5,7.5v171.908
		c0,4.142,3.357,7.5,7.5,7.5h221.628c4.143,0,7.5-3.358,7.5-7.5V149.537c0-4.142-3.357-7.5-7.5-7.5h-35.311v-4.186H275.286z
		 M267.786,157.037v7.198v149.709H69.823h-8.664V157.037H267.786z M103.971,142.037v-4.186h121.004v4.186H103.971z M69.797,122.852
		h-8.639V15h206.628v8.639v99.212H69.797z"/>
	<path style="fill:none;" d="M216.365,283.802h-66.809c0.085,0.776,0.131,1.563,0.131,2.359s-0.046,1.582-0.131,2.358h66.809
		c1.301,0,2.359-1.058,2.359-2.358C218.724,284.86,217.665,283.802,216.365,283.802z"/>
	<path style="fill:#FFAB97;" d="M130.394,281.58c-6.631,0-12.233,4.236-12.233,9.25c0,1.544,0.534,3.013,1.464,4.309l0,0
		c0.913,0.171,1.858,0.272,2.83,0.272c6.631,0,12.232-4.236,12.232-9.25c0-1.544-0.535-3.013-1.463-4.309c-0.001,0-0.001,0-0.001,0
		C132.31,281.681,131.366,281.58,130.394,281.58z"/>
	<path style="fill:none;" d="M244.28,176.896H84.665c-4.143,0-7.5,3.358-7.5,7.5v66.815c0,4.142,3.357,7.5,7.5,7.5H244.28
		c4.143,0,7.5-3.358,7.5-7.5v-66.815C251.78,180.254,248.422,176.896,244.28,176.896z"/>
	<path style="fill:#FFAB97;" d="M69.823,164.235v149.709h197.964V164.235H69.823z M216.365,303.519h-74.921
		c-4.909,4.26-11.609,6.892-18.989,6.892c-15.017,0-27.233-10.879-27.233-24.25c0-13.372,12.217-24.251,27.233-24.251
		c7.38,0,14.079,2.632,18.989,6.892h74.921c9.572,0,17.359,7.787,17.359,17.359C233.724,295.732,225.937,303.519,216.365,303.519z
		 M251.78,251.212c0,4.142-3.357,7.5-7.5,7.5H84.665c-4.143,0-7.5-3.358-7.5-7.5v-66.815c0-4.142,3.357-7.5,7.5-7.5H244.28
		c4.143,0,7.5,3.358,7.5,7.5V251.212z"/>
	<path style="fill:#C03A3A;" d="M216.365,268.802h-74.921c-4.91-4.26-11.609-6.892-18.989-6.892
		c-15.017,0-27.233,10.879-27.233,24.251c0,13.372,12.217,24.25,27.233,24.25c7.38,0,14.08-2.632,18.989-6.892h74.921
		c9.572,0,17.359-7.787,17.359-17.358C233.724,276.589,225.937,268.802,216.365,268.802z M122.454,295.411
		c-0.972,0-1.917-0.101-2.83-0.272c-5.318-0.996-9.403-4.699-9.403-8.978c0-5.014,5.603-9.251,12.233-9.251
		c4.589,0,8.682,2.03,10.77,4.942c0.928,1.296,1.463,2.765,1.463,4.309C134.687,291.175,129.085,295.411,122.454,295.411z
		 M216.365,288.519h-66.809c0.085-0.776,0.131-1.562,0.131-2.358s-0.046-1.583-0.131-2.359h66.809c1.301,0,2.359,1.058,2.359,2.359
		C218.724,287.461,217.665,288.519,216.365,288.519z"/>
	<path style="fill:#FFAB97;" d="M69.797,23.639v99.212h197.989V23.639H69.797z M166.792,40.619H85.617v23.306
		c0,4.142-3.357,7.5-7.5,7.5c-4.143,0-7.5-3.358-7.5-7.5V33.119c0-4.142,3.357-7.5,7.5-7.5h88.676c4.143,0,7.5,3.358,7.5,7.5
		S170.935,40.619,166.792,40.619z"/>
	<path style="fill:#C03A3A;" d="M166.792,25.619H78.117c-4.143,0-7.5,3.358-7.5,7.5v30.806c0,4.142,3.357,7.5,7.5,7.5
		c4.143,0,7.5-3.358,7.5-7.5V40.619h81.176c4.143,0,7.5-3.358,7.5-7.5S170.935,25.619,166.792,25.619z"/>
	<rect x="199.913" y="191.896" style="fill:none;" width="36.866" height="51.815"/>
	<rect x="92.165" y="191.896" style="fill:none;" width="10" height="51.815"/>
	<rect x="102.165" y="191.896" style="fill:#FF8269;" width="82.748" height="51.815"/>
	<polygon style="fill:none;" points="92.165,191.896 92.165,243.712 102.165,243.712 184.913,243.712 184.913,191.896 
		102.165,191.896 	"/>
	<rect x="199.913" y="191.896" style="fill:none;" width="10" height="51.815"/>
	<rect x="209.913" y="191.896" style="fill:#FF8269;" width="26.866" height="51.815"/>
	<path style="fill:#C03A3A;" d="M244.28,176.896H84.665c-4.143,0-7.5,3.358-7.5,7.5v66.815c0,4.142,3.357,7.5,7.5,7.5H244.28
		c4.143,0,7.5-3.358,7.5-7.5v-66.815C251.78,180.254,248.422,176.896,244.28,176.896z M184.913,243.712h-82.748h-10v-51.815h10
		h82.748V243.712z M209.913,243.712h-10v-51.815h10h26.866v51.815H209.913z"/>
</g>
<g>
</g>
<g>
</g>
<g>
</g>
<g>
</g>
<g>
</g>
<g>
</g>
<g>
</g>
<g>
</g>
<g>
</g>
<g>
</g>
<g>
</g>
<g>
</g>
<g>
</g>
<g>
</g>
<g>
</g>
</svg>
