<?xml version="1.0" encoding="iso-8859-1"?>
<!-- Generator: Adobe Illustrator 19.1.0, SVG Export Plug-In . SVG Version: 6.00 Build 0)  -->
<svg version="1.1" id="Capa_1" xmlns="http://www.w3.org/2000/svg" xmlns:xlink="http://www.w3.org/1999/xlink" x="0px" y="0px"
	 viewBox="0 0 311.398 311.398" style="enable-background:new 0 0 311.398 311.398;" xml:space="preserve">
<g>
	<path style="fill:#FFAB97;" d="M296.398,212.238v-80.126h-30.207c-0.019,0.875-0.064,1.743-0.129,2.605h-0.011
		c-0.072,0.853-0.172,1.698-0.301,2.535l14.352,4.059c3.986,1.127,6.303,5.273,5.176,9.258c-0.934,3.304-3.941,5.461-7.213,5.461
		c-0.676,0-1.363-0.092-2.045-0.285l-15.379-4.35c-1.614,2.699-3.542,5.189-5.731,7.421l9.107,9.107
		c2.929,2.929,2.929,7.678,0.001,10.606c-1.464,1.465-3.384,2.197-5.304,2.197s-3.838-0.732-5.303-2.196l-11.075-11.074
		c-2.569,1.109-5.278,1.949-8.092,2.493v13.33c0,4.143-3.358,7.5-7.5,7.5c-4.142,0-7.5-3.357-7.5-7.5v-13.33
		c-2.815-0.544-5.525-1.385-8.094-2.494l-11.071,11.073c-1.464,1.465-3.384,2.197-5.304,2.197c-1.92,0-3.838-0.732-5.303-2.196
		c-2.929-2.929-2.93-7.678-0.001-10.606l9.106-9.107c-2.036-2.077-3.845-4.376-5.386-6.859l-13.396,3.789
		c-0.682,0.193-1.369,0.285-2.045,0.285c-3.271,0-6.279-2.157-7.213-5.461c-1.127-3.985,1.19-8.131,5.176-9.258l12.138-3.434
		c-0.322-1.88-0.508-3.805-0.553-5.766h-65.523c-0.019,0.875-0.064,1.743-0.129,2.605h-0.011c-0.072,0.853-0.172,1.698-0.301,2.535
		l14.352,4.059c3.986,1.127,6.303,5.273,5.176,9.258c-0.934,3.304-3.941,5.461-7.213,5.461c-0.676,0-1.363-0.092-2.045-0.285
		l-15.379-4.35c-1.614,2.699-3.541,5.188-5.73,7.421l9.107,9.107c2.929,2.929,2.929,7.678,0,10.606
		c-1.464,1.465-3.384,2.197-5.304,2.197c-1.919,0-3.838-0.732-5.303-2.196l-11.075-11.074c-2.569,1.109-5.278,1.949-8.092,2.493
		v13.33c0,4.143-3.358,7.5-7.5,7.5c-4.142,0-7.5-3.357-7.5-7.5v-13.33c-2.815-0.544-5.524-1.385-8.093-2.494l-11.072,11.073
		c-1.464,1.465-3.384,2.197-5.304,2.197c-1.919,0-3.838-0.732-5.303-2.196c-2.929-2.929-2.93-7.678-0.001-10.606l9.106-9.107
		c-2.036-2.077-3.845-4.376-5.386-6.859l-13.396,3.789c-0.682,0.193-1.369,0.285-2.045,0.285c-3.271,0-6.279-2.157-7.213-5.461
		c-1.127-3.985,1.19-8.131,5.176-9.258l12.138-3.434c-0.322-1.88-0.508-3.805-0.553-5.766H25v80.126H296.398z"/>
	<rect x="15" y="132.112" style="fill:#FFFFFF;" width="10" height="80.126"/>
	<path style="fill:#FFAB97;" d="M106.775,132.112H57.881c0.48,13.072,11.258,23.561,24.446,23.561
		C95.516,155.673,106.294,145.185,106.775,132.112z"/>
	<path style="fill:#FFAB97;" d="M251.192,132.112h-48.894c0.48,13.072,11.258,23.561,24.446,23.561
		C239.933,155.673,250.711,145.185,251.192,132.112z"/>
	<polygon style="fill:#FFFFFF;" points="296.398,106.16 296.398,99.16 15,99.16 15,117.112 25,117.112 25,106.16 	"/>
	<path style="fill:none;" d="M82.327,155.673c13.188,0,23.967-10.488,24.448-23.561H57.881
		C58.362,145.185,69.14,155.673,82.327,155.673z"/>
	<path style="fill:none;" d="M226.744,155.673c13.189,0,23.967-10.488,24.448-23.561h-48.894
		C202.779,145.185,213.557,155.673,226.744,155.673z"/>
	<polygon style="fill:none;" points="25,106.16 296.398,106.16 296.398,99.16 15,99.16 15,117.112 25,117.112 	"/>
	<path style="fill:none;" d="M265.751,137.253l14.352,4.059c3.986,1.127,6.303,5.273,5.176,9.258
		c-0.934,3.304-3.941,5.461-7.213,5.461c-0.676,0-1.363-0.092-2.045-0.285l-15.379-4.35c-1.614,2.699-3.542,5.189-5.731,7.421
		l9.107,9.107c2.929,2.929,2.929,7.678,0.001,10.606c-1.464,1.465-3.384,2.197-5.304,2.197s-3.838-0.732-5.303-2.196l-11.075-11.074
		c-2.569,1.109-5.278,1.949-8.092,2.493v13.33c0,4.143-3.358,7.5-7.5,7.5c-4.142,0-7.5-3.357-7.5-7.5v-13.33
		c-2.815-0.544-5.525-1.385-8.094-2.494l-11.071,11.073c-1.464,1.465-3.384,2.197-5.304,2.197c-1.92,0-3.838-0.732-5.303-2.196
		c-2.929-2.929-2.93-7.678-0.001-10.606l9.106-9.107c-2.036-2.077-3.845-4.376-5.386-6.859l-13.396,3.789
		c-0.682,0.193-1.369,0.285-2.045,0.285c-3.271,0-6.279-2.157-7.213-5.461c-1.127-3.985,1.19-8.131,5.176-9.258l12.138-3.434
		c-0.322-1.88-0.508-3.805-0.553-5.766h-65.523c-0.04,1.742-0.181,3.46-0.441,5.141l14.352,4.059
		c3.986,1.127,6.303,5.273,5.176,9.258c-0.934,3.304-3.941,5.461-7.213,5.461c-0.676,0-1.363-0.092-2.045-0.285l-15.379-4.35
		c-1.614,2.699-3.541,5.188-5.73,7.421l9.107,9.107c2.929,2.929,2.929,7.678,0,10.606c-1.464,1.465-3.384,2.197-5.304,2.197
		c-1.919,0-3.838-0.732-5.303-2.196l-11.075-11.074c-2.569,1.109-5.278,1.949-8.092,2.493v13.33c0,4.143-3.358,7.5-7.5,7.5
		c-4.142,0-7.5-3.357-7.5-7.5v-13.33c-2.815-0.544-5.524-1.385-8.093-2.494l-11.072,11.073c-1.464,1.465-3.384,2.197-5.304,2.197
		c-1.919,0-3.838-0.732-5.303-2.196c-2.929-2.929-2.93-7.678-0.001-10.606l9.106-9.107c-2.036-2.077-3.845-4.376-5.386-6.859
		l-13.396,3.789c-0.682,0.193-1.369,0.285-2.045,0.285c-3.271,0-6.279-2.157-7.213-5.461c-1.127-3.985,1.19-8.131,5.176-9.258
		l12.138-3.434c-0.322-1.88-0.508-3.805-0.553-5.766H15v80.126h281.398v-80.126h-30.207
		C266.152,133.854,266.011,135.572,265.751,137.253z"/>
	<rect x="25" y="106.16" style="fill:#FFAB97;" width="271.398" height="10.952"/>
	<polygon style="fill:none;" points="296.398,117.112 296.398,106.16 296.398,99.16 15,99.16 15,117.112 25,117.112 	"/>
	<path style="fill:none;" d="M266.192,132.112c-0.02,0.875-0.066,1.744-0.14,2.605h0.011
		C266.127,133.855,266.173,132.987,266.192,132.112z"/>
	<rect x="15" y="132.112" style="fill:none;" width="10" height="80.126"/>
	<path style="fill:none;" d="M121.775,132.112c-0.02,0.875-0.066,1.744-0.14,2.605h0.011
		C121.71,133.855,121.756,132.987,121.775,132.112z"/>
	<path style="fill:#C03A3A;" d="M303.898,84.16H7.5c-4.142,0-7.5,3.357-7.5,7.5v128.078c0,4.143,3.358,7.5,7.5,7.5h296.398
		c4.142,0,7.5-3.357,7.5-7.5V91.66C311.398,87.518,308.04,84.16,303.898,84.16z M15,99.16h281.398v7v10.952H25H15V99.16z
		 M250.953,134.718c-1.71,11.832-11.909,20.955-24.209,20.955c-12.298,0-22.497-9.123-24.206-20.955
		c-0.124-0.855-0.207-1.724-0.239-2.605h48.894C251.16,132.994,251.077,133.862,250.953,134.718z M106.536,134.718
		c-1.709,11.832-11.909,20.955-24.208,20.955c-12.298,0-22.497-9.123-24.207-20.955c-0.124-0.855-0.207-1.724-0.239-2.605h48.894
		C106.743,132.994,106.66,133.862,106.536,134.718z M15,132.112h10h17.881c0.045,1.961,0.231,3.886,0.553,5.766l-12.138,3.434
		c-3.986,1.127-6.303,5.273-5.176,9.258c0.934,3.304,3.941,5.461,7.213,5.461c0.676,0,1.363-0.092,2.045-0.285l13.396-3.789
		c1.542,2.483,3.35,4.782,5.386,6.859l-9.106,9.107c-2.929,2.929-2.928,7.678,0.001,10.606c1.464,1.464,3.383,2.196,5.303,2.196
		c1.919,0,3.839-0.732,5.304-2.197l11.072-11.073c2.569,1.109,5.278,1.95,8.093,2.494v13.33c0,4.143,3.358,7.5,7.5,7.5
		c4.142,0,7.5-3.357,7.5-7.5v-13.33c2.814-0.544,5.523-1.384,8.092-2.493l11.075,11.074c1.465,1.464,3.384,2.196,5.303,2.196
		c1.92,0,3.839-0.732,5.304-2.197c2.929-2.929,2.928-7.678,0-10.606l-9.107-9.107c2.189-2.233,4.116-4.722,5.73-7.421l15.379,4.35
		c0.682,0.193,1.369,0.285,2.045,0.285c3.271,0,6.279-2.157,7.213-5.461c1.128-3.985-1.19-8.131-5.176-9.258l-14.352-4.059
		c0.129-0.837,0.229-1.683,0.301-2.535c0.073-0.861,0.12-1.73,0.14-2.605h10h55.523c0.045,1.961,0.231,3.886,0.553,5.766
		l-12.138,3.434c-3.986,1.127-6.303,5.273-5.176,9.258c0.934,3.304,3.941,5.461,7.213,5.461c0.676,0,1.363-0.092,2.045-0.285
		l13.396-3.789c1.541,2.483,3.35,4.782,5.386,6.859l-9.106,9.107c-2.929,2.929-2.928,7.678,0.001,10.606
		c1.464,1.465,3.383,2.196,5.303,2.196c1.919,0,3.839-0.732,5.304-2.197l11.071-11.073c2.569,1.109,5.279,1.95,8.094,2.494v13.33
		c0,4.143,3.358,7.5,7.5,7.5c4.142,0,7.5-3.357,7.5-7.5v-13.33c2.814-0.544,5.523-1.384,8.092-2.493l11.075,11.074
		c1.465,1.464,3.384,2.196,5.303,2.196s3.839-0.732,5.304-2.197c2.929-2.929,2.928-7.678-0.001-10.606l-9.107-9.107
		c2.189-2.232,4.117-4.722,5.731-7.421l15.379,4.35c0.682,0.193,1.369,0.285,2.045,0.285c3.272,0,6.279-2.157,7.213-5.461
		c1.127-3.985-1.19-8.131-5.176-9.258l-14.352-4.059c0.129-0.837,0.229-1.683,0.301-2.535c0.073-0.861,0.12-1.73,0.14-2.605h10
		h20.207v80.126H25H15V132.112z"/>
</g>
<g>
</g>
<g>
</g>
<g>
</g>
<g>
</g>
<g>
</g>
<g>
</g>
<g>
</g>
<g>
</g>
<g>
</g>
<g>
</g>
<g>
</g>
<g>
</g>
<g>
</g>
<g>
</g>
<g>
</g>
</svg>
