<?xml version="1.0" encoding="iso-8859-1"?>
<!-- Generator: Adobe Illustrator 19.1.0, SVG Export Plug-In . SVG Version: 6.00 Build 0)  -->
<svg version="1.1" id="Capa_1" xmlns="http://www.w3.org/2000/svg" xmlns:xlink="http://www.w3.org/1999/xlink" x="0px" y="0px"
	 viewBox="0 0 331.666 331.666" style="enable-background:new 0 0 331.666 331.666;" xml:space="preserve">
<g>
	<rect x="209.287" y="51.987" style="fill:#FFFFFF;" width="3.026" height="147.237"/>
	<path style="fill:#FFFFFF;" d="M217.753,19.323c0.549,0,1.08,0.073,1.591,0.198c-0.916-2.628-3.411-4.521-6.347-4.521
		c-3.709,0-6.726,3.018-6.726,6.727v15.261h4.756V26.05C211.027,22.341,214.044,19.323,217.753,19.323z"/>
	<polygon style="fill:#FFFFFF;" points="233.713,221.225 233.713,214.225 192.281,214.225 192.281,229.587 202.281,229.587 
		202.281,221.225 	"/>
	<rect x="192.281" y="244.587" style="fill:#FFFFFF;" width="10" height="72.079"/>
	<polygon style="fill:#FFFFFF;" points="128.697,59.209 128.697,55.902 108.641,55.902 108.641,63.076 118.641,63.076 
		118.641,59.209 	"/>
	<rect x="108.641" y="78.076" style="fill:#FFFFFF;" width="10" height="7.174"/>
	<polygon style="fill:#FFFFFF;" points="139.385,107.25 139.385,100.25 97.953,100.25 97.953,316.666 107.953,316.666 
		107.953,107.25 	"/>
	<rect x="108.641" y="78.076" style="fill:none;" width="20.057" height="7.174"/>
	<rect x="108.641" y="55.902" style="fill:none;" width="20.057" height="7.174"/>
	<polygon style="fill:none;" points="107.953,107.25 139.385,107.25 139.385,100.25 97.953,100.25 97.953,316.666 107.953,316.666 	
		"/>
	<rect x="107.953" y="107.25" style="fill:#FF8269;" width="31.432" height="209.416"/>
	<rect x="108.641" y="78.076" style="fill:none;" width="10" height="7.174"/>
	<rect x="108.641" y="55.902" style="fill:none;" width="20.057" height="7.174"/>
	<polygon style="fill:none;" points="97.953,316.666 107.953,316.666 139.385,316.666 139.385,107.25 139.385,100.25 97.953,100.25 
			"/>
	<rect x="118.641" y="78.076" style="fill:#FFAB97;" width="10.057" height="7.174"/>
	<polygon style="fill:none;" points="128.697,85.25 128.697,78.076 118.641,78.076 108.641,78.076 108.641,85.25 118.641,85.25 	"/>
	<polygon style="fill:none;" points="118.641,59.209 128.697,59.209 128.697,55.902 108.641,55.902 108.641,63.076 118.641,63.076 	
		"/>
	<polygon style="fill:none;" points="97.953,316.666 107.953,316.666 139.385,316.666 139.385,107.25 139.385,100.25 97.953,100.25 
			"/>
	<rect x="118.641" y="59.209" style="fill:#FFAB97;" width="10.057" height="3.867"/>
	<path style="fill:#C03A3A;" d="M146.885,85.25h-3.188V48.402c0-4.143-3.357-7.5-7.5-7.5h-35.057c-4.143,0-7.5,3.357-7.5,7.5V85.25
		h-3.188c-4.143,0-7.5,3.357-7.5,7.5v231.416c0,4.143,3.357,7.5,7.5,7.5h56.432c4.143,0,7.5-3.357,7.5-7.5V92.75
		C154.385,88.607,151.027,85.25,146.885,85.25z M108.641,55.902h20.057v3.307v3.867h-10.057h-10V55.902z M108.641,78.076h10h10.057
		v7.174h-10.057h-10V78.076z M139.385,107.25v209.416h-31.432h-10V100.25h41.432V107.25z"/>
	<rect x="202.281" y="221.225" style="fill:#FF8269;" width="31.432" height="8.362"/>
	<polygon style="fill:none;" points="233.713,229.587 233.713,221.225 233.713,214.225 192.281,214.225 192.281,229.587 
		202.281,229.587 	"/>
	<rect x="202.281" y="244.587" style="fill:#FF8269;" width="31.432" height="72.079"/>
	<polygon style="fill:none;" points="192.281,244.587 192.281,316.666 202.281,316.666 233.713,316.666 233.713,244.587 
		202.281,244.587 	"/>
	<polygon style="fill:none;" points="192.281,229.587 202.281,229.587 233.713,229.587 233.713,221.225 233.713,214.225 
		192.281,214.225 	"/>
	<path style="fill:#FFAB97;" d="M217.753,19.323c-3.709,0-6.726,3.018-6.726,6.727v10.938h8.695V21.727
		c0-0.774-0.138-1.513-0.379-2.205l0,0C218.833,19.396,218.302,19.323,217.753,19.323z"/>
	<polygon style="fill:none;" points="192.281,244.587 192.281,316.666 202.281,316.666 233.713,316.666 233.713,244.587 
		202.281,244.587 	"/>
	<polygon style="fill:none;" points="192.281,229.587 202.281,229.587 233.713,229.587 233.713,221.225 233.713,214.225 
		192.281,214.225 	"/>
	<rect x="212.314" y="51.987" style="fill:#FFAB97;" width="4.393" height="147.237"/>
	<path style="fill:#C03A3A;" d="M241.213,199.225h-9.506V50.489c1.827-1.368,3.016-3.543,3.016-6.002V21.727
		C234.723,9.746,224.977,0,212.997,0c-11.98,0-21.726,9.746-21.726,21.727v22.761c0,2.459,1.189,4.634,3.016,6.002v148.735h-9.506
		c-4.143,0-7.5,3.357-7.5,7.5v117.441c0,4.143,3.357,7.5,7.5,7.5h56.432c4.143,0,7.5-3.357,7.5-7.5V206.725
		C248.713,202.582,245.355,199.225,241.213,199.225z M216.707,199.225h-4.393h-3.026V51.987h3.026h4.393V199.225z M206.271,21.727
		c0-3.709,3.017-6.727,6.726-6.727c2.936,0,5.432,1.893,6.347,4.521c0.241,0.692,0.379,1.432,0.379,2.205v15.261h-8.695h-4.756
		V21.727z M233.713,316.666h-31.432h-10v-72.079h10h31.432V316.666z M233.713,221.225v8.362h-31.432h-10v-15.362h41.432V221.225z"/>
</g>
<g>
</g>
<g>
</g>
<g>
</g>
<g>
</g>
<g>
</g>
<g>
</g>
<g>
</g>
<g>
</g>
<g>
</g>
<g>
</g>
<g>
</g>
<g>
</g>
<g>
</g>
<g>
</g>
<g>
</g>
</svg>
