<?xml version="1.0" encoding="iso-8859-1"?>
<!-- Generator: Adobe Illustrator 19.1.0, SVG Export Plug-In . SVG Version: 6.00 Build 0)  -->
<svg version="1.1" id="Capa_1" xmlns="http://www.w3.org/2000/svg" xmlns:xlink="http://www.w3.org/1999/xlink" x="0px" y="0px"
	 viewBox="0 0 413.36 413.36" style="enable-background:new 0 0 413.36 413.36;" xml:space="preserve">
<g>
	<path style="fill:#FFFFFF;" d="M164.975,15h-2.446v10h2.446c7.671,0,13.911,6.241,13.911,13.912v-10
		C178.886,21.241,172.646,15,164.975,15z"/>
	<g>
		<path style="fill:#FFFFFF;" d="M153.308,343.552c0.003-0.182-1.104-19.015-1.369-23.521c-2.06-0.168-4.085-0.486-6.057-0.969
			c0,0,1.43,24.283,1.426,24.49c0.107,3.511,3.398,6.338,7.426,6.338h0.307c1.008,0,1.969-0.177,2.846-0.498
			C155.258,348.432,153.389,346.184,153.308,343.552z"/>
		<path style="fill:#FFFFFF;" d="M95.181,46.694c-0.767-3.636-0.142-7.399,1.953-10.467c0.966-1.414,2.021-2.504,3.08-3.369
			l-2.078-11.119c0,0-6.465-0.149-11.002,6.488c-2.096,3.068-2.721,6.831-1.953,10.467c0.012,0.056,46.516,247.619,46.516,247.619
			c1.567,7.682,6.971,13.896,13.934,16.897c-1.888-2.611-3.265-5.618-3.934-8.897C141.696,294.314,95.192,46.75,95.181,46.694z"/>
		<path style="fill:#FFAB97;" d="M97.134,36.228c-2.096,3.068-2.721,6.831-1.953,10.467c0.012,0.056,46.516,247.619,46.516,247.619
			c0.669,3.279,2.046,6.286,3.934,8.897c2.905,1.252,6.075,1.958,9.361,1.958c17.192,0,26.092-15.924,23.374-28.796
			c-2.318-10.97-12.122-18.933-23.311-18.933c-1.655,0-3.324,0.176-4.963,0.521c-1.975,0.421-4.036,0.021-5.717-1.102
			c-1.679-1.121-2.835-2.873-3.206-4.858L100.214,32.858C99.154,33.724,98.1,34.814,97.134,36.228z"/>
		<path style="fill:none;" d="M163.688,319.171c0.026-0.006,0.038-0.009,0.06-0.014C163.73,319.161,163.708,319.166,163.688,319.171
			z"/>
		<path style="fill:none;" d="M162.781,319.365c0.005-0.001,0.009-0.002,0.014-0.003
			C162.79,319.363,162.785,319.364,162.781,319.365z"/>
		<path style="fill:none;" d="M163.834,320.052c0.034-0.586,0.055-0.928,0.055-0.928S163.868,319.466,163.834,320.052
			L163.834,320.052z"/>
		<path style="fill:#FF8269;" d="M153.308,343.552c0.081,2.632,1.95,4.88,4.578,5.84c0,0,0,0,0.001,0
			c2.641-0.965,4.516-3.231,4.579-5.881c-0.003-0.171,1.108-19.041,1.368-23.459l0,0c0.034-0.586,0.055-0.928,0.055-0.928
			c-0.021,0.005-0.074,0.017-0.141,0.033c-0.022,0.005-0.034,0.008-0.06,0.014c-0.186,0.043-0.489,0.11-0.893,0.191
			c-0.005,0.001-0.009,0.002-0.014,0.003c-1.543,0.31-4.504,0.804-7.79,0.804c-1.026,0-2.043-0.057-3.053-0.139
			c0,0.001,0,0.001,0,0.001C152.204,324.537,153.311,343.37,153.308,343.552z"/>
		<g>
			<path style="fill:none;" d="M178.365,276.373c-2.318-10.97-12.122-18.933-23.311-18.933c-1.655,0-3.324,0.176-4.963,0.521
				c-1.975,0.421-4.036,0.021-5.717-1.102c-1.679-1.121-2.835-2.873-3.206-4.858L100.214,32.858l-2.078-11.119
				c0,0-6.465-0.149-11.002,6.488c-2.096,3.068-2.721,6.831-1.953,10.467c0.012,0.056,46.516,247.619,46.516,247.619
				c1.567,7.682,6.971,13.896,13.934,16.897c2.905,1.252,6.075,1.958,9.361,1.958C172.184,305.169,181.083,289.245,178.365,276.373z
				"/>
			<path style="fill:none;" d="M178.886,38.912v-10c0-7.671-6.24-13.912-13.911-13.912h-2.446v10h2.446
				C172.646,25,178.886,31.241,178.886,38.912z"/>
			<path style="fill:none;" d="M163.834,320.052c0.034-0.586,0.055-0.928,0.055-0.928c-0.021,0.005-0.074,0.017-0.141,0.033
				c-0.018,0.004-0.04,0.009-0.06,0.014c-0.186,0.043-0.489,0.11-0.893,0.191c-0.005,0.001-0.01,0.002-0.014,0.003
				c-1.543,0.31-4.504,0.804-7.79,0.804c-1.026,0-2.043-0.057-3.053-0.139c-2.06-0.167-4.086-0.486-6.057-0.968
				c0,0,1.43,24.283,1.426,24.49c0.107,3.511,3.398,6.338,7.426,6.338h0.307c1.008,0,1.97-0.178,2.847-0.498
				c2.641-0.965,4.516-3.231,4.579-5.881C162.463,343.34,163.574,324.47,163.834,320.052z"/>
			<path style="fill:#FFAB97;" d="M178.886,38.912c0-7.671-6.24-13.912-13.911-13.912h-2.446v218.183
				c6.025,1.198,11.614,3.816,16.357,7.521V38.912z"/>
			<path style="fill:#C03A3A;" d="M335.99,398.36h-64.121c-8.768,0-15.898-7.132-15.898-15.897v-33.189
				c0-17.036-13.861-30.896-30.898-30.896c0,0,0,0-0.002,0c-8.252,0-16.01,3.214-21.846,9.049
				c-5.836,5.836-9.049,13.596-9.049,21.849v33.188c0,4.247-1.654,8.239-4.656,11.242c-3.002,3.002-6.994,4.655-11.24,4.655
				c-8.766,0-15.898-7.132-15.898-15.897V363.7c8.714-2.905,15.003-10.823,15.086-20.141l1.896-31.985
				c8.753-7.062,14.177-17.741,14.486-29.24c0.021-0.235,0.035-253.422,0.035-253.422C193.884,12.97,180.916,0,164.975,0h-9.946
				c-4.143,0-7.5,3.358-7.5,7.5v196.88L111.471,11.437c-0.371-1.985-1.527-3.737-3.206-4.859c-1.68-1.121-3.74-1.519-5.717-1.101
				l-9.731,2.056c-7.556,1.596-14.038,6.039-18.252,12.511c-4.197,6.445-5.645,14.134-4.079,21.661
				c0,0,46.506,247.578,46.518,247.633c1.871,8.853,6.739,16.499,13.393,21.965l1.909,32.22c0.065,9.33,6.356,17.264,15.077,20.175
				v18.768c0,17.036,13.86,30.897,30.897,30.897c0,0,0,0,0.001,0c8.252,0,16.01-3.214,21.846-9.049
				c5.834-5.836,9.049-13.596,9.049-21.849v-33.188c0-4.247,1.652-8.239,4.656-11.242c3.002-3.002,6.994-4.655,11.24-4.655
				c8.766,0,15.898,7.132,15.898,15.896v33.189c0,17.036,13.861,30.897,30.898,30.897h64.121c4.143,0,7.5-3.357,7.5-7.5
				C343.49,401.719,340.132,398.36,335.99,398.36z M162.528,25V15h2.446c7.671,0,13.911,6.241,13.911,13.912v10v211.792
				c-4.743-3.705-10.332-6.323-16.357-7.521V25z M131.696,286.314c0,0-46.504-247.564-46.516-247.619
				c-0.767-3.636-0.142-7.399,1.953-10.467c4.537-6.638,11.002-6.488,11.002-6.488l2.078,11.119l40.954,219.144
				c0.371,1.985,1.527,3.737,3.206,4.858c1.681,1.123,3.742,1.522,5.717,1.102c1.639-0.346,3.308-0.521,4.963-0.521
				c11.189,0,20.993,7.963,23.311,18.933c2.718,12.872-6.182,28.796-23.374,28.796c-3.286,0-6.456-0.706-9.361-1.958
				C138.667,300.209,133.264,293.996,131.696,286.314z M157.887,349.392c-0.877,0.32-1.839,0.498-2.847,0.498h-0.307
				c-4.028,0-7.318-2.827-7.426-6.338c0.004-0.207-1.426-24.49-1.426-24.49c1.971,0.482,3.997,0.801,6.057,0.968
				c1.01,0.082,2.026,0.139,3.053,0.139c3.286,0,6.247-0.494,7.79-0.804c0.004-0.001,0.009-0.002,0.014-0.003
				c0.403-0.081,0.707-0.148,0.893-0.191c0.02-0.005,0.043-0.01,0.06-0.014c0.066-0.016,0.119-0.028,0.141-0.033
				c0,0-0.021,0.342-0.055,0.928c-0.26,4.418-1.371,23.288-1.368,23.459C162.402,346.16,160.527,348.427,157.887,349.392z"/>
		</g>
	</g>
</g>
<g>
</g>
<g>
</g>
<g>
</g>
<g>
</g>
<g>
</g>
<g>
</g>
<g>
</g>
<g>
</g>
<g>
</g>
<g>
</g>
<g>
</g>
<g>
</g>
<g>
</g>
<g>
</g>
<g>
</g>
</svg>
