<?xml version="1.0" encoding="iso-8859-1"?>
<!-- Generator: Adobe Illustrator 19.1.0, SVG Export Plug-In . SVG Version: 6.00 Build 0)  -->
<svg version="1.1" id="Capa_1" xmlns="http://www.w3.org/2000/svg" xmlns:xlink="http://www.w3.org/1999/xlink" x="0px" y="0px"
	 viewBox="0 0 388.207 388.207" style="enable-background:new 0 0 388.207 388.207;" xml:space="preserve">
<g>
	<path style="fill:#FFFFFF;" d="M164.215,200.4V35.729c0-11.43,9.3-20.729,20.73-20.729h-9.798c-11.431,0-20.73,9.299-20.73,20.729
		V200.4c0,11.43,9.3,20.729,20.73,20.729h9.798C173.515,221.129,164.215,211.83,164.215,200.4z"/>
	<path style="fill:#FFFFFF;" d="M192.903,362.006V236.129h-10v125.877c0,6.176,5.024,11.201,11.201,11.201
		c1.798,0,3.492-0.436,4.999-1.192C195.433,370.173,192.903,366.384,192.903,362.006z"/>
	<path style="fill:#FFAB97;" d="M199.103,372.015c3.67-1.841,6.2-5.63,6.2-10.008V236.129h-12.4v125.877
		C192.903,366.384,195.433,370.173,199.103,372.015z"/>
	<path style="fill:#FF8269;" d="M213.059,15h-28.113c-11.431,0-20.73,9.299-20.73,20.729V200.4c0,11.43,9.3,20.729,20.73,20.729
		h28.113c11.431,0,20.73-9.299,20.73-20.729V35.729C233.789,24.299,224.49,15,213.059,15z M180.703,198.647
		c-1.399,1.4-3.33,2.2-5.3,2.2c-1.98,0-3.91-0.8-5.309-2.2c-1.391-1.4-2.191-3.329-2.191-5.3c0-1.98,0.8-3.91,2.191-5.31
		c1.399-1.39,3.33-2.2,5.309-2.2c1.97,0,3.9,0.809,5.3,2.2c1.4,1.4,2.2,3.33,2.2,5.31
		C182.903,195.318,182.103,197.247,180.703,198.647z M180.703,168.538c-1.399,1.4-3.33,2.2-5.3,2.2c-1.98,0-3.91-0.8-5.309-2.2
		c-1.391-1.4-2.191-3.33-2.191-5.3c0-1.98,0.8-3.91,2.191-5.311c1.399-1.39,3.33-2.199,5.309-2.199c1.97,0,3.9,0.81,5.3,2.199
		c1.4,1.4,2.2,3.33,2.2,5.311C182.903,165.208,182.103,167.137,180.703,168.538z M180.703,138.427c-1.399,1.4-3.33,2.2-5.3,2.2
		c-1.98,0-3.91-0.8-5.309-2.2c-1.391-1.4-2.191-3.33-2.191-5.3c0-1.98,0.8-3.91,2.191-5.31c1.399-1.39,3.33-2.2,5.309-2.2
		c1.97,0,3.9,0.81,5.3,2.2c1.4,1.4,2.2,3.33,2.2,5.31C182.903,135.098,182.103,137.027,180.703,138.427z M180.703,108.317
		c-1.399,1.4-3.33,2.2-5.3,2.2c-1.98,0-3.91-0.8-5.309-2.2c-1.391-1.4-2.191-3.33-2.191-5.3c0-1.98,0.8-3.91,2.191-5.31
		c1.399-1.39,3.33-2.2,5.309-2.2c1.97,0,3.9,0.81,5.3,2.2c1.4,1.4,2.2,3.33,2.2,5.31
		C182.903,104.988,182.103,106.918,180.703,108.317z M180.703,78.207c-1.399,1.4-3.33,2.2-5.3,2.2c-1.98,0-3.91-0.8-5.309-2.2
		c-1.391-1.4-2.191-3.33-2.191-5.3c0-1.98,0.8-3.91,2.191-5.311c1.399-1.39,3.33-2.199,5.309-2.199c1.97,0,3.9,0.81,5.3,2.199
		c1.4,1.4,2.2,3.33,2.2,5.311C182.903,74.877,182.103,76.807,180.703,78.207z M180.703,48.097c-1.399,1.4-3.33,2.2-5.3,2.2
		c-1.98,0-3.91-0.8-5.309-2.2c-1.391-1.4-2.191-3.33-2.191-5.3c0-1.98,0.8-3.91,2.191-5.31c1.399-1.39,3.33-2.2,5.309-2.2
		c1.97,0,3.9,0.81,5.3,2.2c1.4,1.4,2.2,3.33,2.2,5.31C182.903,44.768,182.103,46.697,180.703,48.097z M218.103,198.647
		c-1.399,1.4-3.33,2.2-5.3,2.2c-1.98,0-3.91-0.8-5.31-2.2c-1.391-1.4-2.19-3.329-2.19-5.3c0-1.98,0.8-3.91,2.19-5.31
		c1.399-1.39,3.33-2.2,5.31-2.2c1.97,0,3.9,0.809,5.3,2.2c1.4,1.4,2.2,3.33,2.2,5.31
		C220.303,195.318,219.503,197.247,218.103,198.647z M218.103,168.538c-1.399,1.4-3.33,2.2-5.3,2.2c-1.98,0-3.91-0.8-5.31-2.2
		c-1.391-1.4-2.19-3.33-2.19-5.3c0-1.98,0.8-3.91,2.19-5.311c1.399-1.39,3.33-2.199,5.31-2.199c1.97,0,3.9,0.81,5.3,2.199
		c1.4,1.4,2.2,3.33,2.2,5.311C220.303,165.208,219.503,167.137,218.103,168.538z M218.103,138.427c-1.399,1.4-3.33,2.2-5.3,2.2
		c-1.98,0-3.91-0.8-5.31-2.2c-1.391-1.4-2.19-3.33-2.19-5.3c0-1.98,0.8-3.91,2.19-5.31c1.399-1.39,3.33-2.2,5.31-2.2
		c1.97,0,3.9,0.81,5.3,2.2c1.4,1.4,2.2,3.33,2.2,5.31C220.303,135.098,219.503,137.027,218.103,138.427z M218.103,108.317
		c-1.399,1.4-3.33,2.2-5.3,2.2c-1.98,0-3.91-0.8-5.31-2.2c-1.391-1.4-2.19-3.33-2.19-5.3c0-1.98,0.8-3.91,2.19-5.31
		c1.399-1.39,3.33-2.2,5.31-2.2c1.97,0,3.9,0.81,5.3,2.2c1.4,1.4,2.2,3.33,2.2,5.31
		C220.303,104.988,219.503,106.918,218.103,108.317z M218.103,78.207c-1.399,1.4-3.33,2.2-5.3,2.2c-1.98,0-3.91-0.8-5.31-2.2
		c-1.391-1.4-2.19-3.33-2.19-5.3c0-1.98,0.8-3.91,2.19-5.311c1.399-1.39,3.33-2.199,5.31-2.199c1.97,0,3.9,0.81,5.3,2.199
		c1.4,1.4,2.2,3.33,2.2,5.311C220.303,74.877,219.503,76.807,218.103,78.207z M218.103,48.097c-1.399,1.4-3.33,2.2-5.3,2.2
		c-1.98,0-3.91-0.8-5.31-2.2c-1.391-1.4-2.19-3.33-2.19-5.3c0-1.98,0.8-3.91,2.19-5.31c1.399-1.39,3.33-2.2,5.31-2.2
		c1.97,0,3.9,0.81,5.3,2.2c1.4,1.4,2.2,3.33,2.2,5.31C220.303,44.768,219.503,46.697,218.103,48.097z"/>
	<path style="fill:#C03A3A;" d="M175.403,185.838c-1.98,0-3.91,0.809-5.309,2.2c-1.391,1.4-2.191,3.33-2.191,5.31
		c0,1.97,0.8,3.9,2.191,5.3c1.399,1.4,3.33,2.2,5.309,2.2c1.97,0,3.9-0.8,5.3-2.2c1.4-1.4,2.2-3.329,2.2-5.3
		c0-1.98-0.8-3.91-2.2-5.31C179.303,186.647,177.373,185.838,175.403,185.838z"/>
	<path style="fill:#C03A3A;" d="M175.403,35.288c-1.98,0-3.91,0.81-5.309,2.2c-1.391,1.4-2.191,3.33-2.191,5.31
		c0,1.97,0.8,3.9,2.191,5.3c1.399,1.4,3.33,2.2,5.309,2.2c1.97,0,3.9-0.8,5.3-2.2c1.4-1.4,2.2-3.33,2.2-5.3
		c0-1.98-0.8-3.91-2.2-5.31C179.303,36.097,177.373,35.288,175.403,35.288z"/>
	<path style="fill:#C03A3A;" d="M175.403,65.398c-1.98,0-3.91,0.81-5.309,2.199c-1.391,1.4-2.191,3.33-2.191,5.311
		c0,1.97,0.8,3.899,2.191,5.3c1.399,1.4,3.33,2.2,5.309,2.2c1.97,0,3.9-0.8,5.3-2.2c1.4-1.4,2.2-3.33,2.2-5.3
		c0-1.98-0.8-3.91-2.2-5.311C179.303,66.207,177.373,65.398,175.403,65.398z"/>
	<path style="fill:#C03A3A;" d="M175.403,95.508c-1.98,0-3.91,0.81-5.309,2.2c-1.391,1.4-2.191,3.33-2.191,5.31
		c0,1.97,0.8,3.9,2.191,5.3c1.399,1.4,3.33,2.2,5.309,2.2c1.97,0,3.9-0.8,5.3-2.2c1.4-1.4,2.2-3.33,2.2-5.3
		c0-1.98-0.8-3.91-2.2-5.31C179.303,96.317,177.373,95.508,175.403,95.508z"/>
	<path style="fill:#C03A3A;" d="M175.403,125.618c-1.98,0-3.91,0.81-5.309,2.2c-1.391,1.4-2.191,3.33-2.191,5.31
		c0,1.97,0.8,3.9,2.191,5.3c1.399,1.4,3.33,2.2,5.309,2.2c1.97,0,3.9-0.8,5.3-2.2c1.4-1.4,2.2-3.33,2.2-5.3
		c0-1.98-0.8-3.91-2.2-5.31C179.303,126.427,177.373,125.618,175.403,125.618z"/>
	<path style="fill:#C03A3A;" d="M175.403,155.728c-1.98,0-3.91,0.81-5.309,2.199c-1.391,1.4-2.191,3.33-2.191,5.311
		c0,1.97,0.8,3.899,2.191,5.3c1.399,1.4,3.33,2.2,5.309,2.2c1.97,0,3.9-0.8,5.3-2.2c1.4-1.4,2.2-3.33,2.2-5.3
		c0-1.98-0.8-3.91-2.2-5.311C179.303,156.538,177.373,155.728,175.403,155.728z"/>
	<path style="fill:#C03A3A;" d="M212.803,185.838c-1.98,0-3.91,0.809-5.31,2.2c-1.391,1.4-2.19,3.33-2.19,5.31
		c0,1.97,0.8,3.9,2.19,5.3c1.399,1.4,3.33,2.2,5.31,2.2c1.97,0,3.9-0.8,5.3-2.2c1.4-1.4,2.2-3.329,2.2-5.3c0-1.98-0.8-3.91-2.2-5.31
		C216.704,186.647,214.773,185.838,212.803,185.838z"/>
	<path style="fill:#C03A3A;" d="M212.803,35.288c-1.98,0-3.91,0.81-5.31,2.2c-1.391,1.4-2.19,3.33-2.19,5.31
		c0,1.97,0.8,3.9,2.19,5.3c1.399,1.4,3.33,2.2,5.31,2.2c1.97,0,3.9-0.8,5.3-2.2c1.4-1.4,2.2-3.33,2.2-5.3c0-1.98-0.8-3.91-2.2-5.31
		C216.704,36.097,214.773,35.288,212.803,35.288z"/>
	<path style="fill:#C03A3A;" d="M212.803,65.398c-1.98,0-3.91,0.81-5.31,2.199c-1.391,1.4-2.19,3.33-2.19,5.311
		c0,1.97,0.8,3.899,2.19,5.3c1.399,1.4,3.33,2.2,5.31,2.2c1.97,0,3.9-0.8,5.3-2.2c1.4-1.4,2.2-3.33,2.2-5.3
		c0-1.98-0.8-3.91-2.2-5.311C216.704,66.207,214.773,65.398,212.803,65.398z"/>
	<path style="fill:#C03A3A;" d="M212.803,95.508c-1.98,0-3.91,0.81-5.31,2.2c-1.391,1.4-2.19,3.33-2.19,5.31
		c0,1.97,0.8,3.9,2.19,5.3c1.399,1.4,3.33,2.2,5.31,2.2c1.97,0,3.9-0.8,5.3-2.2c1.4-1.4,2.2-3.33,2.2-5.3c0-1.98-0.8-3.91-2.2-5.31
		C216.704,96.317,214.773,95.508,212.803,95.508z"/>
	<path style="fill:#C03A3A;" d="M212.803,125.618c-1.98,0-3.91,0.81-5.31,2.2c-1.391,1.4-2.19,3.33-2.19,5.31
		c0,1.97,0.8,3.9,2.19,5.3c1.399,1.4,3.33,2.2,5.31,2.2c1.97,0,3.9-0.8,5.3-2.2c1.4-1.4,2.2-3.33,2.2-5.3c0-1.98-0.8-3.91-2.2-5.31
		C216.704,126.427,214.773,125.618,212.803,125.618z"/>
	<path style="fill:#C03A3A;" d="M212.803,155.728c-1.98,0-3.91,0.81-5.31,2.199c-1.391,1.4-2.19,3.33-2.19,5.311
		c0,1.97,0.8,3.899,2.19,5.3c1.399,1.4,3.33,2.2,5.31,2.2c1.97,0,3.9-0.8,5.3-2.2c1.4-1.4,2.2-3.33,2.2-5.3
		c0-1.98-0.8-3.91-2.2-5.311C216.704,156.538,214.773,155.728,212.803,155.728z"/>
	<path style="fill:none;" d="M213.059,15h-37.911c-11.431,0-20.73,9.299-20.73,20.729V200.4c0,11.43,9.3,20.729,20.73,20.729h37.911
		c11.431,0,20.73-9.299,20.73-20.729V35.729C233.789,24.299,224.49,15,213.059,15z"/>
	<path style="fill:none;" d="M192.903,362.006V236.129h-10v125.877c0,6.176,5.024,11.201,11.201,11.201
		c1.798,0,3.492-0.436,4.999-1.192C195.433,370.173,192.903,366.384,192.903,362.006z"/>
	<path style="fill:none;" d="M182.903,236.129v125.877c0,6.176,5.024,11.201,11.201,11.201c1.798,0,3.492-0.436,4.999-1.192
		c3.67-1.841,6.2-5.63,6.2-10.008V236.129h-12.4H182.903z"/>
	<path style="fill:none;" d="M164.215,200.4V35.729c0-11.43,9.3-20.729,20.73-20.729h-9.798c-11.431,0-20.73,9.299-20.73,20.729
		V200.4c0,11.43,9.3,20.729,20.73,20.729h9.798C173.515,221.129,164.215,211.83,164.215,200.4z"/>
	<path style="fill:#C03A3A;" d="M273.282,80.397c4.143,0,7.5-3.358,7.5-7.5c0-4.142-3.357-7.5-7.5-7.5h-24.493V50.287h24.493
		c4.143,0,7.5-3.358,7.5-7.5s-3.357-7.5-7.5-7.5h-24.505C248.539,15.79,232.612,0,213.059,0h-37.911
		c-19.554,0-35.48,15.79-35.719,35.287h-24.504c-4.143,0-7.5,3.358-7.5,7.5s3.357,7.5,7.5,7.5h24.492v15.111h-24.492
		c-4.143,0-7.5,3.358-7.5,7.5c0,4.142,3.357,7.5,7.5,7.5h24.492v15.112h-24.492c-4.143,0-7.5,3.358-7.5,7.5s3.357,7.5,7.5,7.5
		h24.492v15.111h-24.492c-4.143,0-7.5,3.358-7.5,7.5s3.357,7.5,7.5,7.5h24.492v15.111h-24.492c-4.143,0-7.5,3.358-7.5,7.5
		s3.357,7.5,7.5,7.5h24.492v15.111h-24.492c-4.143,0-7.5,3.358-7.5,7.5c0,4.142,3.357,7.5,7.5,7.5h24.504
		c0.208,17.022,12.373,31.218,28.474,34.547v126.616c0,14.447,11.754,26.201,26.201,26.201c14.446,0,26.199-11.753,26.199-26.201
		V235.39c16.1-3.329,28.266-17.524,28.474-34.547h24.505c4.143,0,7.5-3.358,7.5-7.5c0-4.142-3.357-7.5-7.5-7.5h-24.493v-15.111
		h24.493c4.143,0,7.5-3.358,7.5-7.5s-3.357-7.5-7.5-7.5h-24.493V140.62h24.493c4.143,0,7.5-3.358,7.5-7.5s-3.357-7.5-7.5-7.5
		h-24.493v-15.111h24.493c4.143,0,7.5-3.358,7.5-7.5s-3.357-7.5-7.5-7.5h-24.493V80.397H273.282z M205.303,362.006
		c0,4.378-2.53,8.167-6.2,10.008c-1.507,0.756-3.201,1.192-4.999,1.192c-6.177,0-11.201-5.024-11.201-11.201V236.129h10h12.4
		V362.006z M184.946,221.129h-9.798c-11.431,0-20.73-9.299-20.73-20.729V35.729c0-11.43,9.3-20.729,20.73-20.729h9.798h28.113
		c11.431,0,20.73,9.299,20.73,20.729V200.4c0,11.43-9.299,20.729-20.73,20.729H184.946z"/>
</g>
<g>
</g>
<g>
</g>
<g>
</g>
<g>
</g>
<g>
</g>
<g>
</g>
<g>
</g>
<g>
</g>
<g>
</g>
<g>
</g>
<g>
</g>
<g>
</g>
<g>
</g>
<g>
</g>
<g>
</g>
</svg>
