<?xml version="1.0" encoding="iso-8859-1"?>
<!-- Generator: Adobe Illustrator 19.1.0, SVG Export Plug-In . SVG Version: 6.00 Build 0)  -->
<svg version="1.1" id="Capa_1" xmlns="http://www.w3.org/2000/svg" xmlns:xlink="http://www.w3.org/1999/xlink" x="0px" y="0px"
	 viewBox="0 0 302.461 302.461" style="enable-background:new 0 0 302.461 302.461;" xml:space="preserve">
<g>
	<path style="fill:#FFFFFF;" d="M255.139,155.755c1.095,0,3.333,1.181,6.15,3.71c-4.194-4.611-7.69-6.71-9.15-6.71
		c-0.024,0-0.05,0-0.073,0.002l-9.264,4.135c0.43,0.387,2.465,2.369,3.043,2.98l9.221-4.115
		C255.089,155.755,255.114,155.755,255.139,155.755z"/>
	<path style="fill:#FF8269;" d="M92.745,231.17c-1.866,2.246-2.931,15.229,5.415,33.926c4.727,10.592,10.298,18.014,14.784,22.301
		c0.104,0.018,0.221,0.054,0.315,0.06c1.867-2.244,2.934-15.228-5.412-33.926c-4.729-10.591-10.299-18.014-14.786-22.3l0,0
		C92.958,231.213,92.841,231.176,92.745,231.17z"/>
	<path style="fill:#FFFFFF;" d="M98.16,265.096c-8.346-18.697-7.281-31.68-5.415-33.926c0.096,0.006,0.213,0.043,0.316,0.061
		c-2.939-2.809-5.419-4.283-6.875-4.374c-1.866,2.246-2.931,15.229,5.415,33.926c7.624,17.079,17.441,25.954,21.343,26.614
		C108.458,283.11,102.888,275.688,98.16,265.096z"/>
	<path style="fill:#FFAB97;" d="M169.787,173.056v-2.685c-9.204,4.044-21.447,5.975-33.24,5.975c-4.143,0-7.5-3.357-7.5-7.5
		c0-4.143,3.357-7.5,7.5-7.5c20.807,0,32.262-6.468,33.24-9.008v-7.077c-9.204,4.044-21.447,5.975-33.24,5.975
		c-4.143,0-7.5-3.357-7.5-7.5c0-4.143,3.357-7.5,7.5-7.5c20.807,0,32.262-6.469,33.24-9.008v-7.077
		c-9.204,4.044-21.447,5.975-33.24,5.975c-4.143,0-7.5-3.357-7.5-7.5c0-4.143,3.357-7.5,7.5-7.5c20.807,0,32.262-6.468,33.24-9.008
		V95.04c-9.204,4.044-21.447,5.975-33.24,5.975c-4.143,0-7.5-3.357-7.5-7.5s3.357-7.5,7.5-7.5c20.807,0,32.262-6.469,33.24-9.008
		V69.93c-9.204,4.044-21.447,5.975-33.24,5.975c-4.143,0-7.5-3.357-7.5-7.5c0-4.142,3.357-7.5,7.5-7.5
		c20.807,0,32.262-6.468,33.24-9.008v-10.08c-9.204,4.044-21.447,5.975-33.24,5.975c-7.895,0-15.988-0.87-23.24-2.656v153.131
		L169.787,173.056z"/>
	<path style="fill:#FFFFFF;" d="M103.307,41.816V202.73l10-4.464V45.135C109.728,44.254,106.349,43.152,103.307,41.816z"/>
	<path style="fill:#FFFFFF;" d="M31.825,205.562V45.135c-3.58-0.881-6.958-1.982-10-3.318v163.745
		c0.979,2.54,12.437,9.008,33.241,9.008c1.733,0,3.396-0.049,5-0.132C42.431,213.515,32.724,207.89,31.825,205.562z"/>
	<g>
		<path style="fill:#FFFFFF;" d="M118.775,26.362c1.263-2.613,12.686-8.896,33.192-8.896c1.982,0,3.879,0.061,5.69,0.168
			C152.309,16.133,145.25,15,136.548,15c-20.506,0-31.93,6.282-33.192,8.896c1.141,2.36,10.574,7.714,27.501,8.728
			C123.603,30.585,119.502,27.867,118.775,26.362z"/>
		<path style="fill:#FF8269;" d="M118.775,26.362c0.727,1.505,4.827,4.223,12.08,6.261c1.812,0.107,3.709,0.168,5.692,0.168
			c20.505,0,31.928-6.282,33.191-8.896c-0.727-1.505-4.828-4.223-12.082-6.261c-1.811-0.107-3.707-0.168-5.689-0.168
			C131.462,17.467,120.038,23.749,118.775,26.362z"/>
	</g>
	<path style="fill:#FFFFFF;" d="M143.901,211.878c-4.278-4.704-7.83-6.798-9.228-6.723l-6.52,2.91
		c0.43,0.387,2.465,2.37,3.043,2.981l6.477-2.892C138.727,208.1,141.009,209.279,143.901,211.878z"/>
	<path style="fill:#FFFFFF;" d="M229.467,167.214c1.095,0,3.335,1.181,6.151,3.71c-4.194-4.611-7.689-6.71-9.151-6.71
		c-0.024,0-6.595,2.912-6.595,2.912c0.43,0.387,2.465,2.37,3.043,2.981C222.915,170.107,229.442,167.214,229.467,167.214z"/>
	<path style="fill:#FFFFFF;" d="M206.538,177.448c1.095,0,3.332,1.181,6.148,3.708c-4.193-4.609-7.688-6.708-9.148-6.708
		c-0.025,0-0.049,0.001-0.074,0.002l-6.52,2.91c0.429,0.387,2.464,2.37,3.042,2.981
		C199.985,180.342,206.513,177.448,206.538,177.448z"/>
	<path style="fill:#FFFFFF;" d="M183.607,187.684c1.095,0,3.335,1.181,6.151,3.71c-4.194-4.612-7.689-6.71-9.151-6.71
		c-0.025,0-0.051,0.001-0.074,0.002l-6.462,2.884c1.023,0.929,2.031,1.932,3.024,2.989
		C177.096,190.559,183.582,187.684,183.607,187.684z"/>
	<path style="fill:#FFFFFF;" d="M105.729,222.413c0,0,9.063-4.025,9.089-4.025c1.095,0,3.333,1.181,6.149,3.708
		c-4.193-4.609-7.688-6.708-9.149-6.708c-0.025,0-9.295,4.117-9.295,4.117c1.031,0.932,2.042,1.933,3.032,2.985l0.06-0.026
		C105.654,222.447,105.691,222.431,105.729,222.413z"/>
	<path style="fill:#FFFFFF;" d="M160.679,197.918c1.094,0,3.332,1.18,6.146,3.707c-4.192-4.609-7.687-6.707-9.146-6.707
		c-0.025,0-6.536,2.886-6.536,2.886c1.022,0.929,2.031,1.932,3.024,2.989C154.167,200.793,160.653,197.918,160.679,197.918z"/>
	<path style="fill:#FFFFFF;" d="M37.294,26.362c1.263-2.613,12.687-8.896,33.192-8.896c1.982,0,3.879,0.061,5.69,0.168
		C70.828,16.133,63.769,15,55.066,15c-20.506,0-31.93,6.282-33.192,8.896c1.141,2.36,10.574,7.714,27.501,8.728
		C42.121,30.585,38.02,27.867,37.294,26.362z"/>
	<path style="fill:none;" d="M88.307,205.562v-10.08c-9.205,4.044-21.447,5.975-33.24,5.975c-4.142,0-7.5-3.357-7.5-7.5
		s3.358-7.5,7.5-7.5c20.808,0,32.263-6.469,33.24-9.008v-7.077c-9.205,4.044-21.447,5.975-33.24,5.975c-4.142,0-7.5-3.357-7.5-7.5
		c0-4.143,3.358-7.5,7.5-7.5c20.805,0,32.261-6.468,33.24-9.008v-7.077c-9.205,4.044-21.447,5.975-33.24,5.975
		c-4.142,0-7.5-3.357-7.5-7.5c0-4.143,3.358-7.5,7.5-7.5c20.805,0,32.261-6.469,33.24-9.008v-7.077
		c-9.205,4.044-21.447,5.975-33.24,5.975c-4.142,0-7.5-3.357-7.5-7.5c0-4.143,3.358-7.5,7.5-7.5c20.808,0,32.263-6.468,33.24-9.008
		V95.04c-9.205,4.044-21.447,5.975-33.24,5.975c-4.142,0-7.5-3.357-7.5-7.5s3.358-7.5,7.5-7.5c20.804,0,32.26-6.467,33.24-9.008
		V69.93c-9.205,4.044-21.447,5.975-33.24,5.975c-4.142,0-7.5-3.357-7.5-7.5c0-4.142,3.358-7.5,7.5-7.5
		c20.808,0,32.263-6.468,33.24-9.008v-10.08c-9.205,4.044-21.447,5.975-33.24,5.975c-11.793,0-24.037-1.931-33.241-5.975v163.745
		c0.979,2.54,12.437,9.008,33.241,9.008C75.872,214.569,87.328,208.102,88.307,205.562z"/>
	<path style="fill:none;" d="M169.787,170.371c-9.204,4.044-21.447,5.975-33.24,5.975c-4.143,0-7.5-3.357-7.5-7.5
		c0-4.143,3.357-7.5,7.5-7.5c20.807,0,32.262-6.468,33.24-9.008v-7.077c-9.204,4.044-21.447,5.975-33.24,5.975
		c-4.143,0-7.5-3.357-7.5-7.5c0-4.143,3.357-7.5,7.5-7.5c20.807,0,32.262-6.469,33.24-9.008v-7.077
		c-9.204,4.044-21.447,5.975-33.24,5.975c-4.143,0-7.5-3.357-7.5-7.5c0-4.143,3.357-7.5,7.5-7.5c20.807,0,32.262-6.468,33.24-9.008
		V95.04c-9.204,4.044-21.447,5.975-33.24,5.975c-4.143,0-7.5-3.357-7.5-7.5s3.357-7.5,7.5-7.5c20.807,0,32.262-6.469,33.24-9.008
		V69.93c-9.204,4.044-21.447,5.975-33.24,5.975c-4.143,0-7.5-3.357-7.5-7.5c0-4.142,3.357-7.5,7.5-7.5
		c20.807,0,32.262-6.468,33.24-9.008v-10.08c-9.204,4.044-21.447,5.975-33.24,5.975s-24.035-1.931-33.24-5.975V202.73l66.48-29.674
		V170.371z"/>
	<path style="fill:none;" d="M136.547,32.791c20.505,0,31.929-6.282,33.191-8.896C168.475,21.282,157.052,15,136.547,15
		c-20.506,0-31.929,6.282-33.191,8.896C104.618,26.509,116.041,32.791,136.547,32.791z"/>
	<path style="fill:none;" d="M136.547,32.791c20.505,0,31.929-6.282,33.191-8.896C168.475,21.282,157.052,15,136.547,15
		c-20.506,0-31.929,6.282-33.191,8.896C104.618,26.509,116.041,32.791,136.547,32.791z"/>
	<path style="fill:none;" d="M136.547,60.904c20.807,0,32.262-6.468,33.24-9.008v-10.08c-9.204,4.044-21.447,5.975-33.24,5.975
		s-24.035-1.931-33.24-5.975V202.73l66.48-29.674v-2.685c-9.204,4.044-21.447,5.975-33.24,5.975c-4.143,0-7.5-3.357-7.5-7.5
		c0-4.143,3.357-7.5,7.5-7.5c20.807,0,32.262-6.468,33.24-9.008v-7.077c-9.204,4.044-21.447,5.975-33.24,5.975
		c-4.143,0-7.5-3.357-7.5-7.5c0-4.143,3.357-7.5,7.5-7.5c20.807,0,32.262-6.469,33.24-9.008v-7.077
		c-9.204,4.044-21.447,5.975-33.24,5.975c-4.143,0-7.5-3.357-7.5-7.5c0-4.143,3.357-7.5,7.5-7.5c20.807,0,32.262-6.468,33.24-9.008
		V95.04c-9.204,4.044-21.447,5.975-33.24,5.975c-4.143,0-7.5-3.357-7.5-7.5s3.357-7.5,7.5-7.5c20.807,0,32.262-6.469,33.24-9.008
		V69.93c-9.204,4.044-21.447,5.975-33.24,5.975c-4.143,0-7.5-3.357-7.5-7.5C129.047,64.262,132.404,60.904,136.547,60.904z"/>
	<path style="fill:none;" d="M88.307,205.562v-10.08c-9.205,4.044-21.447,5.975-33.24,5.975c-4.142,0-7.5-3.357-7.5-7.5
		s3.358-7.5,7.5-7.5c20.808,0,32.263-6.469,33.24-9.008v-7.077c-9.205,4.044-21.447,5.975-33.24,5.975c-4.142,0-7.5-3.357-7.5-7.5
		c0-4.143,3.358-7.5,7.5-7.5c20.805,0,32.261-6.468,33.24-9.008v-7.077c-9.205,4.044-21.447,5.975-33.24,5.975
		c-4.142,0-7.5-3.357-7.5-7.5c0-4.143,3.358-7.5,7.5-7.5c20.805,0,32.261-6.469,33.24-9.008v-7.077
		c-9.205,4.044-21.447,5.975-33.24,5.975c-4.142,0-7.5-3.357-7.5-7.5c0-4.143,3.358-7.5,7.5-7.5c20.808,0,32.263-6.468,33.24-9.008
		V95.04c-9.205,4.044-21.447,5.975-33.24,5.975c-4.142,0-7.5-3.357-7.5-7.5s3.358-7.5,7.5-7.5c20.804,0,32.26-6.467,33.24-9.008
		V69.93c-9.205,4.044-21.447,5.975-33.24,5.975c-4.142,0-7.5-3.357-7.5-7.5c0-4.142,3.358-7.5,7.5-7.5
		c20.808,0,32.263-6.468,33.24-9.008v-10.08c-9.205,4.044-21.447,5.975-33.24,5.975c-11.793,0-24.037-1.931-33.241-5.975v163.745
		c0.979,2.54,12.437,9.008,33.241,9.008C75.872,214.569,87.328,208.102,88.307,205.562z"/>
	<path style="fill:#FF8269;" d="M37.294,26.362c0.727,1.505,4.827,4.223,12.08,6.261c1.812,0.107,3.709,0.168,5.692,0.168
		c20.505,0,31.928-6.282,33.191-8.896c-0.728-1.505-4.828-4.223-12.082-6.261c-1.81-0.107-3.707-0.168-5.689-0.168
		C49.98,17.467,38.557,23.749,37.294,26.362z"/>
	<path style="fill:none;" d="M136.547,32.791c20.505,0,31.929-6.282,33.191-8.896C168.475,21.282,157.052,15,136.547,15
		c-20.506,0-31.929,6.282-33.191,8.896C104.618,26.509,116.041,32.791,136.547,32.791z"/>
	<path style="fill:none;" d="M49.374,32.623c1.812,0.107,3.709,0.168,5.692,0.168c20.505,0,31.928-6.282,33.191-8.896
		c-0.728-1.505-4.828-4.223-12.082-6.261C70.828,16.133,63.769,15,55.066,15c-20.506,0-31.93,6.282-33.192,8.896
		C23.015,26.256,32.448,31.609,49.374,32.623z"/>
	<path style="fill:none;" d="M169.787,170.371c-9.204,4.044-21.447,5.975-33.24,5.975c-4.143,0-7.5-3.357-7.5-7.5
		c0-4.143,3.357-7.5,7.5-7.5c20.807,0,32.262-6.468,33.24-9.008v-7.077c-9.204,4.044-21.447,5.975-33.24,5.975
		c-4.143,0-7.5-3.357-7.5-7.5c0-4.143,3.357-7.5,7.5-7.5c20.807,0,32.262-6.469,33.24-9.008v-7.077
		c-9.204,4.044-21.447,5.975-33.24,5.975c-4.143,0-7.5-3.357-7.5-7.5c0-4.143,3.357-7.5,7.5-7.5c20.807,0,32.262-6.468,33.24-9.008
		V95.04c-9.204,4.044-21.447,5.975-33.24,5.975c-4.143,0-7.5-3.357-7.5-7.5s3.357-7.5,7.5-7.5c20.807,0,32.262-6.469,33.24-9.008
		V69.93c-9.204,4.044-21.447,5.975-33.24,5.975c-4.143,0-7.5-3.357-7.5-7.5c0-4.142,3.357-7.5,7.5-7.5
		c20.807,0,32.262-6.468,33.24-9.008v-10.08c-9.204,4.044-21.447,5.975-33.24,5.975s-24.035-1.931-33.24-5.975V202.73l66.48-29.674
		V170.371z"/>
	<path style="fill:none;" d="M31.825,205.562V45.135l0,0c-3.58-0.881-6.958-1.982-10-3.318v163.745
		c0.979,2.54,12.437,9.008,33.241,9.008c1.733,0,3.396-0.049,4.999-0.132C42.431,213.515,32.724,207.89,31.825,205.562z"/>
	<path style="fill:#FFAB97;" d="M31.825,205.562c0.899,2.328,10.605,7.953,28.24,8.876c17.637-0.922,27.345-6.548,28.241-8.876
		v-10.08c-9.205,4.044-21.447,5.975-33.24,5.975c-4.142,0-7.5-3.357-7.5-7.5s3.358-7.5,7.5-7.5c20.808,0,32.263-6.469,33.24-9.008
		v-7.077c-9.205,4.044-21.447,5.975-33.24,5.975c-4.142,0-7.5-3.357-7.5-7.5c0-4.143,3.358-7.5,7.5-7.5
		c20.805,0,32.261-6.468,33.24-9.008v-7.077c-9.205,4.044-21.447,5.975-33.24,5.975c-4.142,0-7.5-3.357-7.5-7.5
		c0-4.143,3.358-7.5,7.5-7.5c20.805,0,32.261-6.469,33.24-9.008v-7.077c-9.205,4.044-21.447,5.975-33.24,5.975
		c-4.142,0-7.5-3.357-7.5-7.5c0-4.143,3.358-7.5,7.5-7.5c20.808,0,32.263-6.468,33.24-9.008V95.04
		c-9.205,4.044-21.447,5.975-33.24,5.975c-4.142,0-7.5-3.357-7.5-7.5s3.358-7.5,7.5-7.5c20.804,0,32.26-6.467,33.24-9.008V69.93
		c-9.205,4.044-21.447,5.975-33.24,5.975c-4.142,0-7.5-3.357-7.5-7.5c0-4.142,3.358-7.5,7.5-7.5c20.808,0,32.263-6.468,33.24-9.008
		v-10.08c-9.205,4.044-21.447,5.975-33.24,5.975c-7.896,0-15.988-0.87-23.241-2.656l0,0V205.562z"/>
	<path style="fill:none;" d="M113.307,45.135c-3.58-0.881-6.958-1.982-10-3.318V202.73l10-4.464V45.135z"/>
	<path style="fill:none;" d="M49.374,32.623c1.812,0.107,3.709,0.168,5.692,0.168c20.505,0,31.928-6.282,33.191-8.896
		c-0.728-1.505-4.828-4.223-12.082-6.261C70.828,16.133,63.769,15,55.066,15c-20.506,0-31.93,6.282-33.192,8.896
		C23.015,26.256,32.448,31.609,49.374,32.623z"/>
	<path style="fill:none;" d="M136.547,32.791c20.505,0,31.929-6.282,33.191-8.896C168.475,21.282,157.052,15,136.547,15
		c-20.506,0-31.929,6.282-33.191,8.896C104.618,26.509,116.041,32.791,136.547,32.791z"/>
	<path style="fill:none;" d="M88.307,205.562v-10.08c-9.205,4.044-21.447,5.975-33.24,5.975c-4.142,0-7.5-3.357-7.5-7.5
		s3.358-7.5,7.5-7.5c20.808,0,32.263-6.469,33.24-9.008v-7.077c-9.205,4.044-21.447,5.975-33.24,5.975c-4.142,0-7.5-3.357-7.5-7.5
		c0-4.143,3.358-7.5,7.5-7.5c20.805,0,32.261-6.468,33.24-9.008v-7.077c-9.205,4.044-21.447,5.975-33.24,5.975
		c-4.142,0-7.5-3.357-7.5-7.5c0-4.143,3.358-7.5,7.5-7.5c20.805,0,32.261-6.469,33.24-9.008v-7.077
		c-9.205,4.044-21.447,5.975-33.24,5.975c-4.142,0-7.5-3.357-7.5-7.5c0-4.143,3.358-7.5,7.5-7.5c20.808,0,32.263-6.468,33.24-9.008
		V95.04c-9.205,4.044-21.447,5.975-33.24,5.975c-4.142,0-7.5-3.357-7.5-7.5s3.358-7.5,7.5-7.5c20.804,0,32.26-6.467,33.24-9.008
		V69.93c-9.205,4.044-21.447,5.975-33.24,5.975c-4.142,0-7.5-3.357-7.5-7.5c0-4.142,3.358-7.5,7.5-7.5
		c20.808,0,32.263-6.468,33.24-9.008v-10.08c-9.205,4.044-21.447,5.975-33.24,5.975c-7.896,0-15.988-0.87-23.241-2.656
		c-3.58-0.881-6.958-1.982-10-3.318v163.745c0.979,2.54,12.437,9.008,33.241,9.008c1.733,0,3.396-0.049,4.999-0.132
		C77.702,213.516,87.41,207.89,88.307,205.562z"/>
	<path style="fill:none;" d="M49.374,32.623c1.812,0.107,3.709,0.168,5.692,0.168c20.505,0,31.928-6.282,33.191-8.896
		c-0.728-1.505-4.828-4.223-12.082-6.261C70.828,16.133,63.769,15,55.066,15c-20.506,0-31.93,6.282-33.192,8.896
		C23.015,26.256,32.448,31.609,49.374,32.623z"/>
	<path style="fill:none;" d="M88.307,205.562v-10.08c-9.205,4.044-21.447,5.975-33.24,5.975c-4.142,0-7.5-3.357-7.5-7.5
		s3.358-7.5,7.5-7.5c20.808,0,32.263-6.469,33.24-9.008v-7.077c-9.205,4.044-21.447,5.975-33.24,5.975c-4.142,0-7.5-3.357-7.5-7.5
		c0-4.143,3.358-7.5,7.5-7.5c20.805,0,32.261-6.468,33.24-9.008v-7.077c-9.205,4.044-21.447,5.975-33.24,5.975
		c-4.142,0-7.5-3.357-7.5-7.5c0-4.143,3.358-7.5,7.5-7.5c20.805,0,32.261-6.469,33.24-9.008v-7.077
		c-9.205,4.044-21.447,5.975-33.24,5.975c-4.142,0-7.5-3.357-7.5-7.5c0-4.143,3.358-7.5,7.5-7.5c20.808,0,32.263-6.468,33.24-9.008
		V95.04c-9.205,4.044-21.447,5.975-33.24,5.975c-4.142,0-7.5-3.357-7.5-7.5s3.358-7.5,7.5-7.5c20.804,0,32.26-6.467,33.24-9.008
		V69.93c-9.205,4.044-21.447,5.975-33.24,5.975c-4.142,0-7.5-3.357-7.5-7.5c0-4.142,3.358-7.5,7.5-7.5
		c20.808,0,32.263-6.468,33.24-9.008v-10.08c-9.205,4.044-21.447,5.975-33.24,5.975c-7.896,0-15.988-0.87-23.241-2.656
		c-3.58-0.881-6.958-1.982-10-3.318v163.745c0.979,2.54,12.437,9.008,33.241,9.008c1.733,0,3.396-0.049,4.999-0.132
		C77.702,213.516,87.41,207.89,88.307,205.562z"/>
	<path style="fill:none;" d="M169.787,173.056v-2.685c-9.204,4.044-21.447,5.975-33.24,5.975c-4.143,0-7.5-3.357-7.5-7.5
		c0-4.143,3.357-7.5,7.5-7.5c20.807,0,32.262-6.468,33.24-9.008v-7.077c-9.204,4.044-21.447,5.975-33.24,5.975
		c-4.143,0-7.5-3.357-7.5-7.5c0-4.143,3.357-7.5,7.5-7.5c20.807,0,32.262-6.469,33.24-9.008v-7.077
		c-9.204,4.044-21.447,5.975-33.24,5.975c-4.143,0-7.5-3.357-7.5-7.5c0-4.143,3.357-7.5,7.5-7.5c20.807,0,32.262-6.468,33.24-9.008
		V95.04c-9.204,4.044-21.447,5.975-33.24,5.975c-4.143,0-7.5-3.357-7.5-7.5s3.357-7.5,7.5-7.5c20.807,0,32.262-6.469,33.24-9.008
		V69.93c-9.204,4.044-21.447,5.975-33.24,5.975c-4.143,0-7.5-3.357-7.5-7.5c0-4.142,3.357-7.5,7.5-7.5
		c20.807,0,32.262-6.468,33.24-9.008v-10.08c-9.204,4.044-21.447,5.975-33.24,5.975c-7.895,0-15.988-0.87-23.24-2.656
		c-3.58-0.881-6.958-1.982-10-3.318V202.73l10-4.464L169.787,173.056z"/>
	<path style="fill:none;" d="M136.547,32.791c20.505,0,31.929-6.282,33.191-8.896C168.475,21.282,157.052,15,136.547,15
		c-20.506,0-31.929,6.282-33.191,8.896C104.618,26.509,116.041,32.791,136.547,32.791z"/>
	<path style="fill:#FFAB97;" d="M105.556,222.49l-0.009,0.004c1.355,1.44,2.674,2.971,3.941,4.589
		c4.854,6.201,9.008,13.504,12.057,20.334c4.816,10.792,7.659,21.816,8.002,31.041c0.023,0.608,0.03,1.195,0.031,1.773
		l149.585-66.768c1.92-1.929,3.156-15.025-5.323-34.025c-4.072-9.122-8.625-15.659-12.562-19.983c-2.811-2.521-5.045-3.7-6.139-3.7
		c-0.024,0-0.05,0-0.073,0.002l-9.221,4.115l-0.001,0.001c0.134,0.143,2.584,2.874,3.605,4.149
		c4.629,5.782,8.918,12.92,12.417,20.76c1.689,3.783-0.009,8.218-3.791,9.906c-0.993,0.443-2.032,0.653-3.054,0.653
		c-2.869,0-5.607-1.655-6.852-4.444c-4.068-9.114-8.617-15.648-12.552-19.974c-2.816-2.529-5.056-3.71-6.15-3.71
		c-0.024,0-6.552,2.894-6.552,2.894h-0.001c0.133,0.141,2.622,2.918,3.662,4.221c4.605,5.77,8.874,12.882,12.359,20.689
		c1.689,3.783-0.009,8.218-3.791,9.906c-0.993,0.443-2.032,0.653-3.054,0.653c-2.869,0-5.607-1.655-6.853-4.444
		c-4.068-9.115-8.618-15.651-12.553-19.977c-2.816-2.528-5.053-3.708-6.147-3.708c-0.025,0-0.049,0.001-0.074,0.002l-6.479,2.892
		h-0.001c0.129,0.137,2.666,2.97,3.719,4.292c4.584,5.758,8.831,12.843,12.302,20.619c1.689,3.782-0.01,8.217-3.792,9.905
		c-0.993,0.443-2.031,0.653-3.053,0.653c-2.869,0-5.607-1.655-6.853-4.445c-4.069-9.116-8.617-15.649-12.553-19.975
		c-2.814-2.527-5.054-3.707-6.147-3.707c-0.025,0-6.512,2.875-6.512,2.875l-0.005,0.002c1.283,1.365,2.542,2.82,3.764,4.368
		c4.718,5.978,8.927,13.18,12.221,20.559c1.689,3.783-0.009,8.218-3.791,9.906c-0.993,0.443-2.032,0.653-3.054,0.653
		c-2.869,0-5.607-1.655-6.852-4.444c-4.072-9.12-8.623-15.657-12.559-19.982c-2.812-2.525-5.048-3.703-6.141-3.703
		c-0.025,0-6.512,2.875-6.512,2.875l-0.005,0.002c1.302,1.387,2.579,2.865,3.818,4.439c4.696,5.964,8.885,13.138,12.166,20.488
		c1.688,3.783-0.009,8.218-3.791,9.906c-0.993,0.443-2.032,0.653-3.054,0.653c-2.869,0-5.607-1.655-6.852-4.444
		c-4.07-9.117-8.625-15.649-12.564-19.974c-2.885-2.589-5.159-3.765-6.212-3.709l-6.477,2.892h-0.001
		c0.131,0.138,2.793,3.121,3.887,4.505c4.52,5.718,8.705,12.726,12.134,20.406c1.688,3.782-0.009,8.217-3.792,9.905
		c-0.992,0.443-2.031,0.653-3.053,0.653c-2.869,0-5.607-1.655-6.853-4.445c-4.071-9.123-8.625-15.659-12.561-19.984
		c-2.812-2.521-5.045-3.699-6.139-3.699C114.793,218.388,105.556,222.49,105.556,222.49z"/>
	<path style="fill:none;" d="M223.312,170.535c0.031,0.035,0.064,0.07,0.097,0.105c-0.017-0.02-0.03-0.04-0.047-0.059
		C223.346,170.566,223.328,170.551,223.312,170.535z"/>
	<path style="fill:none;" d="M200.371,180.758c0.041,0.045,0.082,0.089,0.123,0.133c-0.023-0.025-0.042-0.054-0.066-0.079
		C200.41,180.794,200.391,180.775,200.371,180.758z"/>
	<path style="fill:none;" d="M246.246,160.305c0.031,0.034,0.062,0.067,0.094,0.102c-0.016-0.018-0.029-0.039-0.046-0.057
		C246.278,160.335,246.262,160.32,246.246,160.305z"/>
	<path style="fill:none;" d="M169.787,173.056v-2.685c-9.204,4.044-21.447,5.975-33.24,5.975c-4.143,0-7.5-3.357-7.5-7.5
		c0-4.143,3.357-7.5,7.5-7.5c20.807,0,32.262-6.468,33.24-9.008v-7.077c-9.204,4.044-21.447,5.975-33.24,5.975
		c-4.143,0-7.5-3.357-7.5-7.5c0-4.143,3.357-7.5,7.5-7.5c20.807,0,32.262-6.469,33.24-9.008v-7.077
		c-9.204,4.044-21.447,5.975-33.24,5.975c-4.143,0-7.5-3.357-7.5-7.5c0-4.143,3.357-7.5,7.5-7.5c20.807,0,32.262-6.468,33.24-9.008
		V95.04c-9.204,4.044-21.447,5.975-33.24,5.975c-4.143,0-7.5-3.357-7.5-7.5s3.357-7.5,7.5-7.5c20.807,0,32.262-6.469,33.24-9.008
		V69.93c-9.204,4.044-21.447,5.975-33.24,5.975c-4.143,0-7.5-3.357-7.5-7.5c0-4.142,3.357-7.5,7.5-7.5
		c20.807,0,32.262-6.468,33.24-9.008v-10.08c-9.204,4.044-21.447,5.975-33.24,5.975c-7.895,0-15.988-0.87-23.24-2.656
		c-3.58-0.881-6.958-1.982-10-3.318V202.73l10-4.464L169.787,173.056z"/>
	<path style="fill:none;" d="M255.065,155.757c0.023-0.002,0.049-0.002,0.073-0.002c1.094,0,3.327,1.179,6.139,3.7
		c-0.165-0.182-0.33-0.365-0.493-0.539c-3.969-4.231-7.243-6.161-8.645-6.161c-0.024,0-0.05,0-0.073,0.002l-9.264,4.135
		c0.43,0.387,0.861,0.784,1.299,1.207c0.585,0.564,1.165,1.162,1.743,1.774l0.001-0.001L255.065,155.757z"/>
	<path style="fill:none;" d="M136.547,32.791c20.505,0,31.929-6.282,33.191-8.896C168.475,21.282,157.052,15,136.547,15
		c-20.506,0-31.929,6.282-33.191,8.896C104.618,26.509,116.041,32.791,136.547,32.791z"/>
	<path style="fill:none;" d="M88.307,205.562v-10.08c-9.205,4.044-21.447,5.975-33.24,5.975c-4.142,0-7.5-3.357-7.5-7.5
		s3.358-7.5,7.5-7.5c20.808,0,32.263-6.469,33.24-9.008v-7.077c-9.205,4.044-21.447,5.975-33.24,5.975c-4.142,0-7.5-3.357-7.5-7.5
		c0-4.143,3.358-7.5,7.5-7.5c20.805,0,32.261-6.468,33.24-9.008v-7.077c-9.205,4.044-21.447,5.975-33.24,5.975
		c-4.142,0-7.5-3.357-7.5-7.5c0-4.143,3.358-7.5,7.5-7.5c20.805,0,32.261-6.469,33.24-9.008v-7.077
		c-9.205,4.044-21.447,5.975-33.24,5.975c-4.142,0-7.5-3.357-7.5-7.5c0-4.143,3.358-7.5,7.5-7.5c20.808,0,32.263-6.468,33.24-9.008
		V95.04c-9.205,4.044-21.447,5.975-33.24,5.975c-4.142,0-7.5-3.357-7.5-7.5s3.358-7.5,7.5-7.5c20.804,0,32.26-6.467,33.24-9.008
		V69.93c-9.205,4.044-21.447,5.975-33.24,5.975c-4.142,0-7.5-3.357-7.5-7.5c0-4.142,3.358-7.5,7.5-7.5
		c20.808,0,32.263-6.468,33.24-9.008v-10.08c-9.205,4.044-21.447,5.975-33.24,5.975c-7.896,0-15.988-0.87-23.241-2.656
		c-3.58-0.881-6.958-1.982-10-3.318v163.745c0.979,2.54,12.437,9.008,33.241,9.008c1.733,0,3.396-0.049,4.999-0.132
		C77.702,213.516,87.41,207.89,88.307,205.562z"/>
	<path style="fill:none;" d="M49.374,32.623c1.812,0.107,3.709,0.168,5.692,0.168c20.505,0,31.928-6.282,33.191-8.896
		c-0.728-1.505-4.828-4.223-12.082-6.261C70.828,16.133,63.769,15,55.066,15c-20.506,0-31.93,6.282-33.192,8.896
		C23.015,26.256,32.448,31.609,49.374,32.623z"/>
	<path style="fill:none;" d="M93.062,231.23c-2.94-2.809-5.419-4.283-6.875-4.374c-1.866,2.246-2.931,15.229,5.415,33.926
		c7.624,17.079,17.441,25.954,21.343,26.614c0.104,0.018,0.221,0.054,0.315,0.06c1.867-2.244,2.934-15.228-5.412-33.926
		C103.119,242.939,97.549,235.517,93.062,231.23z"/>
	<path style="fill:none;" d="M131.586,211.468c0.054,0.058,0.107,0.116,0.161,0.175c-0.036-0.041-0.066-0.081-0.104-0.121
		C131.624,211.504,131.605,211.485,131.586,211.468z"/>
	<path style="fill:#C03A3A;" d="M287.537,173.324c-4.818-10.792-11.127-20.269-17.765-26.684
		c-11.217-10.843-19.677-9.431-23.719-7.627l-61.267,27.347V23.896C184.787,7.478,159.781,0,136.547,0
		c-15.406,0-31.583,3.292-40.74,10.294C86.648,3.292,70.472,0,55.066,0C31.832,0,6.825,7.478,6.825,23.896v181.778
		c0,16.418,25.007,23.895,48.241,23.895c5.035,0,10.154-0.353,15.084-1.07c-1.473,10.975,2.016,25.539,7.754,38.396
		c7.323,16.406,21.014,35.565,35.498,35.565c1.828,0,3.578-0.337,5.227-0.964c0.255-0.082,166.752-74.382,166.752-74.382
		C300.369,220.423,297.006,194.541,287.537,173.324z M136.547,15c20.505,0,31.929,6.282,33.191,8.896
		c-1.263,2.613-12.687,8.896-33.191,8.896c-20.506,0-31.929-6.282-33.191-8.896C104.618,21.282,116.041,15,136.547,15z
		 M103.307,41.816c3.042,1.336,6.42,2.438,10,3.318c7.252,1.786,15.345,2.656,23.24,2.656c11.793,0,24.036-1.931,33.24-5.975v10.08
		c-0.979,2.54-12.434,9.008-33.24,9.008c-4.143,0-7.5,3.358-7.5,7.5c0,4.143,3.357,7.5,7.5,7.5c11.793,0,24.036-1.931,33.24-5.975
		v7.077c-0.979,2.539-12.434,9.008-33.24,9.008c-4.143,0-7.5,3.357-7.5,7.5s3.357,7.5,7.5,7.5c11.793,0,24.036-1.931,33.24-5.975
		v7.077c-0.979,2.54-12.434,9.008-33.24,9.008c-4.143,0-7.5,3.357-7.5,7.5c0,4.143,3.357,7.5,7.5,7.5
		c11.793,0,24.036-1.931,33.24-5.975v7.077c-0.979,2.539-12.434,9.008-33.24,9.008c-4.143,0-7.5,3.357-7.5,7.5
		c0,4.143,3.357,7.5,7.5,7.5c11.793,0,24.036-1.931,33.24-5.975v7.077c-0.979,2.54-12.434,9.008-33.24,9.008
		c-4.143,0-7.5,3.357-7.5,7.5c0,4.143,3.357,7.5,7.5,7.5c11.793,0,24.036-1.931,33.24-5.975v2.685l-56.48,25.21l-10,4.464V41.816z
		 M111.818,215.388c1.447,0,4.89,2.058,9.029,6.577c0.036,0.039,0.073,0.082,0.109,0.122c3.937,4.325,8.49,10.861,12.561,19.984
		c1.245,2.79,3.983,4.445,6.853,4.445c1.021,0,2.061-0.21,3.053-0.653c3.783-1.688,5.48-6.123,3.792-9.905
		c-3.429-7.681-7.614-14.688-12.134-20.406c-1.094-1.384-3.756-4.367-3.887-4.505c-0.578-0.611-2.612-2.595-3.042-2.981l6.52-2.91
		c1.378-0.073,4.843,1.956,9.034,6.511c0.059,0.064,0.119,0.133,0.178,0.198c3.939,4.324,8.494,10.856,12.564,19.974
		c1.245,2.789,3.983,4.444,6.852,4.444c1.021,0,2.061-0.21,3.054-0.653c3.782-1.688,5.479-6.123,3.791-9.906
		c-3.281-7.351-7.47-14.524-12.166-20.488c-1.239-1.574-2.517-3.053-3.818-4.439c-0.992-1.057-1.998-2.064-3.02-2.991
		c0,0,6.511-2.886,6.536-2.886c1.432,0,4.819,2.015,8.904,6.44c0.078,0.085,0.158,0.176,0.236,0.263
		c3.935,4.324,8.486,10.861,12.559,19.982c1.245,2.789,3.983,4.444,6.852,4.444c1.021,0,2.061-0.21,3.054-0.653
		c3.782-1.689,5.48-6.123,3.791-9.906c-3.294-7.379-7.503-14.581-12.221-20.559c-1.222-1.548-2.48-3.003-3.764-4.368
		c-0.992-1.057-1.998-2.063-3.02-2.991c0,0,6.511-2.886,6.536-2.886c1.426,0,4.786,1.993,8.844,6.371
		c0.101,0.108,0.203,0.225,0.304,0.336c3.936,4.326,8.483,10.859,12.553,19.975c1.245,2.79,3.983,4.445,6.853,4.445
		c1.021,0,2.06-0.21,3.053-0.653c3.782-1.688,5.48-6.123,3.792-9.905c-3.471-7.776-7.718-14.861-12.302-20.619
		c-1.053-1.322-3.59-4.155-3.719-4.292c-0.578-0.611-2.612-2.595-3.041-2.981c0,0,6.569-2.912,6.595-2.912
		c1.418,0,4.751,1.972,8.78,6.304c0.121,0.13,0.244,0.27,0.367,0.404c3.935,4.325,8.484,10.861,12.553,19.977
		c1.245,2.789,3.983,4.444,6.853,4.444c1.021,0,2.061-0.21,3.054-0.653c3.782-1.689,5.48-6.123,3.791-9.906
		c-3.485-7.808-7.754-14.92-12.359-20.689c-1.04-1.303-3.529-4.08-3.662-4.221c-0.578-0.611-2.612-2.595-3.042-2.981
		c0,0,6.57-2.912,6.595-2.912c1.411,0,4.717,1.951,8.718,6.235c0.143,0.152,0.288,0.315,0.433,0.475
		c3.935,4.325,8.483,10.859,12.552,19.974c1.245,2.789,3.983,4.444,6.852,4.444c1.021,0,2.061-0.21,3.054-0.653
		c3.782-1.689,5.479-6.123,3.791-9.906c-3.499-7.84-7.788-14.978-12.417-20.76c-1.021-1.275-3.472-4.007-3.605-4.149
		c-0.578-0.612-2.612-2.595-3.042-2.981l9.264-4.135c0.023-0.002,0.049-0.002,0.073-0.002c1.402,0,4.677,1.93,8.645,6.161
		c0.163,0.174,0.328,0.357,0.493,0.539c3.938,4.324,8.49,10.861,12.562,19.983c8.48,19,7.243,32.097,5.323,34.025l-149.585,66.768
		c-0.001-0.578-0.009-1.165-0.031-1.773c-0.343-9.225-3.186-20.249-8.002-31.041c-3.049-6.83-7.202-14.133-12.057-20.334
		c-1.268-1.618-2.586-3.148-3.941-4.589c-0.988-1.051-1.994-2.059-3.023-2.989C102.523,219.505,111.793,215.388,111.818,215.388z
		 M55.066,15c8.702,0,15.762,1.133,21.109,2.635c7.254,2.038,11.354,4.756,12.082,6.261c-1.264,2.613-12.687,8.896-33.191,8.896
		c-1.983,0-3.88-0.061-5.692-0.168c-16.926-1.014-26.359-6.367-27.5-8.728C23.137,21.282,34.561,15,55.066,15z M60.065,214.438
		c-1.603,0.083-3.266,0.132-4.999,0.132c-20.805,0-32.262-6.468-33.241-9.008V41.816c3.042,1.336,6.42,2.438,10,3.318
		c7.253,1.786,15.346,2.656,23.241,2.656c11.793,0,24.035-1.931,33.24-5.975v10.08c-0.978,2.54-12.433,9.008-33.24,9.008
		c-4.142,0-7.5,3.358-7.5,7.5c0,4.143,3.358,7.5,7.5,7.5c11.793,0,24.035-1.931,33.24-5.975v7.077
		c-0.98,2.541-12.437,9.008-33.24,9.008c-4.142,0-7.5,3.357-7.5,7.5s3.358,7.5,7.5,7.5c11.793,0,24.035-1.931,33.24-5.975v7.077
		c-0.978,2.54-12.433,9.008-33.24,9.008c-4.142,0-7.5,3.357-7.5,7.5c0,4.143,3.358,7.5,7.5,7.5c11.793,0,24.035-1.931,33.24-5.975
		v7.077c-0.979,2.539-12.436,9.008-33.24,9.008c-4.142,0-7.5,3.357-7.5,7.5c0,4.143,3.358,7.5,7.5,7.5
		c11.793,0,24.035-1.931,33.24-5.975v7.077c-0.979,2.54-12.436,9.008-33.24,9.008c-4.142,0-7.5,3.357-7.5,7.5
		c0,4.143,3.358,7.5,7.5,7.5c11.793,0,24.035-1.931,33.24-5.975v7.077c-0.978,2.539-12.433,9.008-33.24,9.008
		c-4.142,0-7.5,3.357-7.5,7.5s3.358,7.5,7.5,7.5c11.793,0,24.035-1.931,33.24-5.975v10.08
		C87.41,207.89,77.702,213.516,60.065,214.438z M113.26,287.456c-0.095-0.006-0.212-0.042-0.315-0.06
		c-3.901-0.66-13.719-9.535-21.343-26.614c-8.346-18.697-7.281-31.68-5.415-33.926c1.456,0.091,3.935,1.565,6.875,4.374
		c4.487,4.286,10.058,11.709,14.786,22.3C116.193,272.228,115.127,285.212,113.26,287.456z"/>
</g>
<g>
</g>
<g>
</g>
<g>
</g>
<g>
</g>
<g>
</g>
<g>
</g>
<g>
</g>
<g>
</g>
<g>
</g>
<g>
</g>
<g>
</g>
<g>
</g>
<g>
</g>
<g>
</g>
<g>
</g>
</svg>
