<?xml version="1.0" encoding="iso-8859-1"?>
<!-- Generator: Adobe Illustrator 19.1.0, SVG Export Plug-In . SVG Version: 6.00 Build 0)  -->
<svg version="1.1" id="Capa_1" xmlns="http://www.w3.org/2000/svg" xmlns:xlink="http://www.w3.org/1999/xlink" x="0px" y="0px"
	 viewBox="0 0 411.582 411.582" style="enable-background:new 0 0 411.582 411.582;" xml:space="preserve">
<g>
	<path style="fill:#FFFFFF;" d="M214.105,83.101c8.618,0,16.789,2.814,24.112,7.823c-9.199-9.329-20.376-14.823-32.427-14.823
		c-31.292,0-56.751,36.936-56.751,82.336c0,32.896,13.371,61.336,32.639,74.513c-14.689-14.896-24.324-39.596-24.324-67.513
		C157.354,120.036,182.813,83.101,214.105,83.101z"/>
	<path style="fill:#FFAB97;" d="M238.219,90.925c-0.001,0-0.002-0.001-0.002-0.001c-7.323-5.009-15.494-7.823-24.112-7.823
		c-31.292,0-56.751,36.936-56.751,82.336c0,27.917,9.635,52.616,24.324,67.513c7.323,5.009,15.494,7.823,24.112,7.823
		c31.293,0,56.751-36.936,56.751-82.336C262.542,130.52,252.908,105.821,238.219,90.925z M205.791,106.046
		c-16.786,0-30.968,23.992-30.968,52.391c0,4.143-3.357,7.5-7.5,7.5c-4.142,0-7.5-3.357-7.5-7.5
		c0-37.789,20.191-67.391,45.968-67.391c4.143,0,7.5,3.357,7.5,7.5S209.933,106.046,205.791,106.046z"/>
	<path style="fill:none;" d="M222.292,386.116c-0.153,0.359-0.316,0.708-0.482,1.053
		C221.976,386.824,222.138,386.476,222.292,386.116z"/>
	<path style="fill:none;" d="M221.11,388.511c0.185-0.324,0.359-0.66,0.53-1.001C221.469,387.851,221.293,388.186,221.11,388.511
		C221.109,388.511,221.109,388.511,221.11,388.511z"/>
	<path style="fill:none;" d="M223.279,383.436c-0.278,0.883-0.59,1.729-0.931,2.541
		C222.689,385.166,223.001,384.319,223.279,383.436z"/>
	<path style="fill:#FF8269;" d="M235.181,18.589c-0.203-0.136-0.409-0.265-0.616-0.393c0.07,0.148,0.15,0.291,0.219,0.442
		C234.915,18.616,235.049,18.609,235.181,18.589z"/>
	<path style="fill:#C03A3A;" d="M268.535,64.214c2.182-4.385,3.346-9.255,3.346-14.187c0-17.547-14.275-31.822-31.822-31.822
		c-1.649,0-3.274,0.139-4.877,0.385c-0.132,0.021-0.267,0.027-0.397,0.05c-0.068-0.151-0.148-0.294-0.219-0.442
		C229.44,7.283,218.435,0,205.792,0c-12.816,0-23.963,7.477-28.992,18.639c-1.729-0.289-3.49-0.435-5.273-0.435
		c-17.547,0-31.823,14.275-31.823,31.822c0,4.933,1.164,9.801,3.345,14.185c-21.387,23.595-33.544,57.556-33.544,94.225
		c0,27.125,6.64,52.877,19.201,74.472c11.746,20.193,28.274,35.466,46.793,43.357c2.025,5.296,6.07,18.755,2.919,35.614
		c-0.353,1.882-0.777,4.013-1.24,6.344c-4.682,23.535-12.519,62.926,3.436,82.366c5.986,7.295,14.457,10.993,25.179,10.993
		c10.721,0,19.192-3.698,25.179-10.992c15.953-19.44,8.118-58.83,3.438-82.365c-0.464-2.331-0.888-4.464-1.24-6.346
		c-3.117-16.677,0.926-30.272,2.941-35.626c18.509-7.893,35.028-23.163,46.77-43.348c12.561-21.595,19.201-47.346,19.201-74.469
		C302.079,121.769,289.921,87.809,268.535,64.214z M192.208,391.073c-11.453-13.956-3.934-51.758-0.32-69.924
		c0.477-2.394,0.912-4.582,1.273-6.515c4.991-26.698-4.871-46.713-5.294-47.552c-0.378-0.751-0.87-1.406-1.438-1.965
		c-0.842-0.829-1.856-1.441-2.957-1.797c-0.288-0.11-0.568-0.24-0.855-0.354c-34.276-13.742-58.114-56.467-58.114-104.53
		c0-34.498,12.437-67.365,33.268-87.919c2.732-2.694,2.988-7.016,0.597-10.015c-2.398-3.008-3.666-6.631-3.666-10.476
		c0-9.275,7.547-16.822,16.823-16.822c2.47,0,4.854,0.526,7.084,1.565c2.133,0.993,4.608,0.929,6.686-0.178
		c2.078-1.104,3.517-3.119,3.887-5.442C190.489,20.951,197.473,15,205.792,15c4.439,0,8.489,1.707,11.509,4.534
		c2.638,2.471,4.492,5.793,5.101,9.616c0.37,2.323,1.809,4.338,3.887,5.442c1.949,1.036,4.245,1.143,6.284,0.335
		c0.134-0.054,0.27-0.099,0.401-0.159c2.229-1.038,4.613-1.564,7.084-1.564c4.739,0,9.02,1.978,12.08,5.143
		c2.929,3.029,4.742,7.144,4.742,11.68c0,3.847-1.268,7.47-3.667,10.476c-2.393,2.999-2.136,7.321,0.596,10.016
		c20.832,20.554,33.27,53.421,33.27,87.918c0,48.467-24.236,91.525-58.98,104.887c-1.838,0.597-3.447,1.897-4.385,3.761
		c-0.423,0.839-10.283,20.852-5.292,47.551c0.361,1.933,0.796,4.122,1.273,6.517c3.078,15.477,8.981,45.192,3.584,62.285
		c-0.278,0.883-0.59,1.729-0.931,2.541c-0.02,0.045-0.037,0.093-0.057,0.139c-0.153,0.359-0.316,0.708-0.482,1.053
		c-0.055,0.114-0.111,0.228-0.169,0.341c-0.171,0.341-0.346,0.677-0.53,1.001c-0.525,0.92-1.098,1.783-1.736,2.562
		c-3.084,3.759-7.4,5.509-13.583,5.509c-1.176,0-2.265-0.085-3.31-0.213C198.031,395.822,194.705,394.117,192.208,391.073z"/>
	<path style="fill:none;" d="M213.293,378.229c0-0.666-0.098-1.325-0.272-1.962c-0.942,0.374-1.809,0.932-2.528,1.652
		c-1.4,1.399-2.2,3.33-2.2,5.31c0,0.664,0.099,1.321,0.272,1.958c0.938-0.376,1.804-0.935,2.527-1.658
		C212.493,382.13,213.293,380.199,213.293,378.229z"/>
	<path style="fill:#FFFFFF;" d="M134.813,172.825c-0.511-4.725-0.773-9.53-0.773-14.389c0-25.547,7.181-49.656,20.219-67.887
		c3.696-5.168,7.744-9.698,12.07-13.563c0.479-0.494,0.956-0.988,1.443-1.469c2.732-2.694,2.988-7.016,0.597-10.015
		c-2.398-3.008-3.666-6.631-3.666-10.476c0-9.275,7.547-16.822,16.823-16.822c2.47,0,4.854,0.526,7.084,1.565
		c2.133,0.993,4.608,0.929,6.686-0.178c2.078-1.104,3.517-3.119,3.887-5.442C200.489,25.951,207.473,20,215.792,20
		c0.726,0,1.439,0.062,2.143,0.149C214.862,16.951,210.547,15,205.792,15c-8.318,0-15.303,5.951-16.609,14.149
		c-0.37,2.323-1.809,4.339-3.887,5.442c-2.077,1.106-4.553,1.171-6.686,0.178c-2.23-1.039-4.614-1.565-7.084-1.565
		c-9.276,0-16.823,7.547-16.823,16.822c0,3.846,1.268,7.469,3.666,10.476c2.392,2.999,2.135,7.32-0.597,10.015
		c-20.832,20.554-33.268,53.421-33.268,87.919c0,48.064,23.838,90.787,58.113,104.529
		C155.898,246.847,137.374,212.235,134.813,172.825z"/>
	<path style="fill:#FFFFFF;" d="M236.289,39.593c2.077,1.104,4.553,1.167,6.686,0.176c2.229-1.038,4.613-1.564,7.084-1.564
		c0.706,0,1.397,0.058,2.08,0.143c-3.061-3.164-7.341-5.143-12.08-5.143c-2.471,0-4.855,0.526-7.084,1.564
		c-0.132,0.061-0.268,0.105-0.401,0.159C233.111,36.918,234.446,38.613,236.289,39.593z"/>
	<path style="fill:#FFFFFF;" d="M201.887,326.149c0.477-2.394,0.912-4.582,1.273-6.515c4.991-26.698-4.871-46.713-5.294-47.552
		c-0.939-1.865-2.552-3.167-4.395-3.762c-2.401-0.924-4.747-2.004-7.043-3.203c0.567,0.559,1.06,1.214,1.438,1.965
		c0.423,0.839,10.285,20.853,5.294,47.552c-0.361,1.933-0.797,4.121-1.273,6.515c-3.613,18.166-11.133,55.968,0.32,69.924
		c2.497,3.044,5.823,4.749,10.273,5.296c-0.089-0.103-0.186-0.19-0.273-0.296C190.754,382.117,198.274,344.315,201.887,326.149z"/>
	<path style="fill:#C03A3A;" d="M205.791,255.773c19.648,0,37.95-10.459,51.532-29.449c13.038-18.23,20.219-42.34,20.219-67.887
		c0-25.547-7.181-49.656-20.219-67.887c-13.582-18.99-31.884-29.449-51.532-29.449c-14.304,0-27.89,5.547-39.464,15.888
		c-4.326,3.864-8.373,8.395-12.068,13.562c-13.038,18.23-20.219,42.34-20.219,67.887c0,4.858,0.264,9.664,0.773,14.389
		c2.173,20.115,8.887,38.734,19.445,53.498C167.84,245.314,186.141,255.773,205.791,255.773z M205.791,76.101
		c12.052,0,23.228,5.494,32.429,14.824c14.689,14.896,24.322,39.596,24.322,67.512c0,45.4-25.458,82.336-56.751,82.336
		c-8.618,0-16.789-2.815-24.112-7.823c-19.268-13.177-32.639-41.616-32.639-74.513C149.04,113.036,174.499,76.101,205.791,76.101z"
		/>
	<path style="fill:#C03A3A;" d="M205.791,91.046c-25.776,0-45.968,29.602-45.968,67.391c0,4.143,3.358,7.5,7.5,7.5
		c4.143,0,7.5-3.357,7.5-7.5c0-28.398,14.182-52.391,30.968-52.391c4.143,0,7.5-3.357,7.5-7.5S209.933,91.046,205.791,91.046z"/>
	<path style="fill:#FF8269;" d="M253.809,70.519c-2.732-2.694-2.988-7.017-0.596-10.016c2.399-3.007,3.667-6.63,3.667-10.476
		c0-4.536-1.813-8.65-4.742-11.68c-0.683-0.085-1.374-0.143-2.08-0.143c-2.471,0-4.855,0.526-7.084,1.564
		c-2.133,0.991-4.608,0.929-6.686-0.176c-1.843-0.979-3.178-2.675-3.716-4.665c-2.039,0.808-4.335,0.701-6.284-0.335
		c-2.078-1.104-3.517-3.119-3.887-5.442c-0.609-3.823-2.464-7.146-5.101-9.616c-0.802,0.285-1.362,0.466-1.509,0.466
		c-8.318,0-15.303,5.951-16.609,14.149c-0.37,2.323-1.809,4.339-3.887,5.442c-2.077,1.106-4.553,1.171-6.686,0.178
		c-2.23-1.039-4.614-1.565-7.084-1.565c-9.276,0-16.823,7.547-16.823,16.822c0,3.846,1.268,7.469,3.666,10.476
		c2.392,2.999,2.135,7.32-0.597,10.015c-0.487,0.48-0.965,0.975-1.443,1.469c0,0.001-0.001,0.001-0.002,0.002
		c11.574-10.341,25.16-15.888,39.464-15.888c19.648,0,37.95,10.459,51.532,29.449c13.038,18.23,20.219,42.34,20.219,67.887
		c0,25.547-7.181,49.656-20.219,67.887c-13.582,18.99-31.884,29.449-51.532,29.449c-19.649,0-37.95-10.459-51.532-29.449
		c-10.559-14.764-17.272-33.383-19.445-53.498c2.561,39.41,21.085,74.021,47.804,90.141c0.001,0,0.001,0,0.001,0.001
		c0.286,0.114,0.566,0.244,0.855,0.354c1.101,0.355,2.115,0.968,2.957,1.797c2.296,1.199,4.642,2.279,7.043,3.203
		c1.843,0.595,3.455,1.897,4.395,3.762c0.423,0.839,10.285,20.853,5.294,47.552c-0.361,1.933-0.797,4.121-1.273,6.515
		c-3.613,18.166-11.133,55.968,0.32,69.924c0.087,0.105,0.185,0.193,0.273,0.296c1.045,0.128,2.134,0.213,3.31,0.213
		c6.183,0,10.499-1.75,13.583-5.509c0.639-0.779,2.381-3.79,2.436-3.904c0.167-0.345,1.191-2.85,1.47-3.733
		c5.397-17.093-0.506-46.809-3.584-62.285c-0.477-2.395-0.911-4.584-1.273-6.517c-4.991-26.698,4.869-46.712,5.292-47.551
		c0.938-1.863,2.547-3.164,4.385-3.761c34.743-13.361,58.98-56.42,58.98-104.887C287.079,123.939,274.641,91.072,253.809,70.519z
		 M211.092,383.529c-1.4,1.4-3.33,2.2-5.3,2.2c-1.97,0-3.91-0.8-5.3-2.2c-1.4-1.399-2.2-3.33-2.2-5.3c0-1.979,0.8-3.91,2.2-5.31
		c1.39-1.391,3.32-2.19,5.3-2.19c1.97,0,3.899,0.8,5.3,2.19c1.4,1.399,2.2,3.33,2.2,5.31
		C213.293,380.199,212.493,382.13,211.092,383.529z"/>
	<path style="fill:#C03A3A;" d="M205.793,370.729c-1.98,0-3.91,0.8-5.3,2.19c-1.4,1.399-2.2,3.33-2.2,5.31c0,1.97,0.8,3.9,2.2,5.3
		c1.39,1.4,3.33,2.2,5.3,2.2c1.97,0,3.899-0.8,5.3-2.2c1.4-1.399,2.2-3.33,2.2-5.3c0-1.979-0.8-3.91-2.2-5.31
		C209.692,371.529,207.762,370.729,205.793,370.729z"/>
</g>
<g>
</g>
<g>
</g>
<g>
</g>
<g>
</g>
<g>
</g>
<g>
</g>
<g>
</g>
<g>
</g>
<g>
</g>
<g>
</g>
<g>
</g>
<g>
</g>
<g>
</g>
<g>
</g>
<g>
</g>
</svg>
