<?xml version="1.0" encoding="iso-8859-1"?>
<!-- Generator: Adobe Illustrator 19.1.0, SVG Export Plug-In . SVG Version: 6.00 Build 0)  -->
<svg version="1.1" id="Capa_1" xmlns="http://www.w3.org/2000/svg" xmlns:xlink="http://www.w3.org/1999/xlink" x="0px" y="0px"
	 viewBox="0 0 302.188 302.188" style="enable-background:new 0 0 302.188 302.188;" xml:space="preserve">
<g>
	<path style="fill:#FFFFFF;" d="M230.363,235.784c1.092-3.559,4.324-5.949,8.041-5.949c0.832,0,1.664,0.127,2.475,0.375
		c0.102,0.031,0.195,0.073,0.295,0.107c-0.856-2.438-2.809-4.458-5.463-5.274c-0.809-0.248-1.643-0.375-2.475-0.375
		c-3.717,0-6.947,2.391-8.041,5.949c-1.33,4.336,1.033,8.93,5.279,10.41C229.9,239.391,229.816,237.567,230.363,235.784z"/>
	<path style="fill:#FFFFFF;" d="M210.645,253.737c2.121-1.883,2.999-4.799,2.271-7.537c-0.729-2.74-2.939-4.842-5.714-5.416
		c-0.421-0.087-0.82-0.176-1.225-0.266c0.582,2.645-0.293,5.408-2.332,7.219c-1.811,1.605-3.54,3.346-5.141,5.17
		c-5.855,6.68-8.342,12.658-7.885,14.402c0.014,0.053,3.234-0.049,5.588,2.393c0.622,0.645,1.113,1.389,1.471,2.191
		c0.543-2.609,3.076-7.566,7.826-12.986C207.104,257.082,208.834,255.342,210.645,253.737z"/>
	<path style="fill:#FFFFFF;" d="M232.793,266.229c-0.539-0.149-1.086-0.219-1.631-0.244c1.923,9.557,5.891,17.037,8.763,19.943
		c0.993,1.006,1.62,1.211,1.733,1.211c0,0,0.011,0,0.019-0.002c0.02-0.006,0.304-0.719,1.069-1.53
		c-1.802-3.606-3.512-8.292-4.585-13.626C237.603,269.203,235.525,266.977,232.793,266.229z"/>
	<path style="fill:#FFFFFF;" d="M190.014,225.281c0.533-1.932,0.23-4.016-0.783-5.746c0,0-0.011-0.055-0.014-0.105
		c0.025-0.17,6.808-5.293,23.579,1.412c0.131,0.053,0.267,0.08,0.4,0.123c2.257-3.76,5.499-6.764,9.332-8.727
		c-0.055-0.271-0.114-0.544-0.201-0.812c-3.002-9.275-3.205-17.74-2.124-21.68c0.375-1.367,0.841-1.889,0.933-1.914
		c0.044-0.012,0.081-0.019,0.109-0.023l0.005,0.002c1.738,1.062,3.857,1.328,5.828,0.816c1.386-0.361,2.633-1.133,3.601-2.174
		c-1.408-2.799-2.868-4.936-4.12-6.203c-0.993-1.006-1.619-1.211-1.732-1.211c-0.05,0.012-0.089,0.024-0.119,0.033
		c-1.002,1.742-2.684,3.047-4.629,3.555c-1.971,0.512-4.09,0.246-5.828-0.816l-0.005-0.002c-0.028,0.004-0.065,0.012-0.109,0.023
		c-0.092,0.025-0.558,0.547-0.933,1.914c-1.081,3.939-0.878,12.404,2.124,21.68c0.872,2.695,0.151,5.652-1.864,7.645
		c-2.016,1.992-5.036,2.824-7.666,1.771c-16.771-6.705-23.555-1.582-23.579-1.412c0.003,0.051,0.014,0.105,0.014,0.105
		c1.014,1.73,1.316,3.814,0.783,5.746c-0.951,3.445-3.699,4.711-3.72,4.73c0.006-0.002,0.385,3.119,7.122,6.419
		c-0.1-0.268-0.121-0.419-0.122-0.419C186.314,229.992,189.063,228.727,190.014,225.281z"/>
	<path style="fill:#FFFFFF;" d="M247.689,211.949c2.733,0.754,5.655-0.104,7.553-2.207c5.953-6.598,12.56-10.571,16.604-12.25
		c-0.63-0.293-1.196-0.631-1.569-1.012c-1.399-1.436-2.168-3.371-2.132-5.375c0.004-0.033-0.912-0.492-2.188-0.045
		c-3.856,1.354-11.185,5.443-17.716,12.682c-1.523,1.688-3.706,2.557-5.922,2.45c0,0,0.001,0.003,0.001,0.005
		C242.88,208.975,244.957,211.201,247.689,211.949z"/>
	<path style="fill:#FFFFFF;" d="M25,228.006c0-27.266,48.256-50.301,105.374-50.301c24.724,0,48.368,4.281,67.246,11.951
		c-0.003-0.469-0.01-0.943,0.001-1.402c-20.121-10.553-47.94-16.549-77.247-16.549C63.256,171.705,15,194.74,15,222.006
		c0,12.9,10.804,24.85,28.232,33.865C31.767,247.834,25,238.217,25,228.006z"/>
	<path style="fill:#10AD4B;" d="M184.927,245.774c-0.829-0.334-1.648-0.691-2.459-1.06c0.663,0.536,1.355,1.054,2.073,1.556
		C184.67,246.104,184.799,245.935,184.927,245.774z"/>
	<path style="fill:#FF8269;" d="M180.344,197.946c2.579-0.674,5.602-1.018,8.984-1.018c2.824,0,5.816,0.24,8.868,0.697
		c-0.381-2.754-0.565-5.428-0.576-7.969c-18.878-7.67-42.523-11.951-67.246-11.951C73.256,177.705,25,200.74,25,228.006
		c0,10.211,6.767,19.827,18.23,27.863c19.413,10.041,47.046,16.439,77.144,16.439c19.658,0,38.698-2.678,55.383-7.754
		c0.877-6.957,5.287-13.881,9.17-18.781c-9.422-3.801-18.005-9.787-20.117-17.861c-1.208-4.619-0.216-9.297,2.495-12.902
		c-0.059-0.574-0.087-1.16-0.084-1.752C167.254,207.766,170.712,200.465,180.344,197.946z M120.377,198.662c-0.023,0-0.047,0-0.07,0
		c-36.26-0.381-69.727,10.105-77.864,24.279c-1.386,2.416-3.913,3.768-6.511,3.768c-1.268,0-2.551-0.322-3.728-0.998
		c-3.593-2.062-4.832-6.646-2.77-10.238c12.879-22.432,54.959-32.107,91.009-31.811c4.143,0.037,7.469,3.426,7.432,7.568
		C127.837,195.348,124.486,198.662,120.377,198.662z"/>
	<path style="fill:#C03A3A;" d="M120.443,183.662c-36.05-0.297-78.13,9.379-91.009,31.811c-2.062,3.592-0.823,8.176,2.77,10.238
		c1.177,0.676,2.46,0.998,3.728,0.998c2.598,0,5.125-1.352,6.511-3.768c8.138-14.174,41.604-24.66,77.864-24.279
		c0.023,0,0.047,0,0.07,0c4.109,0,7.46-3.314,7.498-7.432C127.912,187.088,124.586,183.699,120.443,183.662z"/>
	<path style="fill:none;" d="M120.374,66.311c33.708,0,57.198-13.508,57.198-25.631c0-4.021-2.598-8.193-7.283-11.975
		c-9.439-7.62-27.389-13.655-49.915-13.655c-33.708,0-57.198,13.508-57.198,25.631c0,6.32,6.395,13.013,17.283,17.975
		C90.455,63.211,104.239,66.311,120.374,66.311z"/>
	<path style="fill:none;" d="M179.367,144.291c13.835-7.084,21.77-16.301,21.77-25.283c0-6.795-4.546-13.721-12.744-19.758
		c-2.641-1.945-5.654-3.799-9.025-5.525c-15.633-8.006-36.583-12.414-58.993-12.414c-22.409,0-43.36,4.408-58.993,12.414
		c-13.834,7.084-21.77,16.299-21.77,25.283c0,8.982,7.936,18.199,21.77,25.283c0.319,0.164,0.654,0.316,0.978,0.476
		c15.524,7.698,36.063,11.938,58.016,11.938C142.783,156.705,163.734,152.297,179.367,144.291z"/>
	<path style="fill:none;" d="M120.374,66.311c33.708,0,57.198-13.508,57.198-25.631c0-4.021-2.598-8.193-7.283-11.975
		c-9.439-7.62-27.389-13.655-49.915-13.655c-33.708,0-57.198,13.508-57.198,25.631c0,6.32,6.395,13.013,17.283,17.975
		C90.455,63.211,104.239,66.311,120.374,66.311z"/>
	<path style="fill:none;" d="M179.367,144.291c13.835-7.084,21.77-16.301,21.77-25.283c0-6.795-4.546-13.721-12.744-19.758
		c-2.641-1.945-5.654-3.799-9.025-5.525c-15.633-8.006-36.583-12.414-58.993-12.414c-22.409,0-43.36,4.408-58.993,12.414
		c-13.834,7.084-21.77,16.299-21.77,25.283c0,8.982,7.936,18.199,21.77,25.283c0.319,0.164,0.654,0.316,0.978,0.476
		c15.524,7.698,36.063,11.938,58.016,11.938C142.783,156.705,163.734,152.297,179.367,144.291z"/>
	<path style="fill:none;" d="M120.374,66.311c33.708,0,57.198-13.508,57.198-25.631c0-4.021-2.598-8.193-7.283-11.975
		c-9.439-7.62-27.389-13.655-49.915-13.655c-33.708,0-57.198,13.508-57.198,25.631c0,6.32,6.395,13.013,17.283,17.975
		C90.455,63.211,104.239,66.311,120.374,66.311z"/>
	<path style="fill:#C03A3A;" d="M296.668,229.867c-3.484-3.527-8.843-6.803-15.097-9.357c6.361-7.932,10.917-17.355,8.805-25.438
		c-1.209-4.617-4.364-8.211-8.492-10.027c-0.231-0.531-0.493-1.057-0.787-1.572c-2.722-4.783-7.821-7.637-13.642-7.637
		c-1.7,0-3.48,0.24-5.292,0.713c-4.821,1.262-10.365,4.285-15.727,8.455c-2.482-6.32-5.705-11.75-9.206-15.293
		c-4.628-4.688-9.301-5.672-12.405-5.672c-1.283,0-2.566,0.166-3.817,0.492c-1.883,0.494-3.586,1.287-5.075,2.352
		c-1.813-0.199-3.701-0.057-5.592,0.438c-2.331,0.611-5.957,2.188-8.738,6.178c-8.508-4.158-18.062-7.629-28.367-10.303
		c26.023-9.322,42.901-25.471,42.901-44.188c0-20.402-20.056-37.752-50.146-46.539c1.21-0.541,2.4-1.1,3.55-1.688
		c14.852-7.606,23.031-18.295,23.031-30.102c0-11.807-8.18-22.498-23.031-30.104c-13.258-6.789-30.719-10.527-49.167-10.527
		c-18.448,0-35.909,3.738-49.167,10.527C56.355,18.182,48.176,28.873,48.176,40.68c0,11.807,8.18,22.496,23.031,30.102
		c1.148,0.588,2.336,1.148,3.546,1.689c-30.088,8.787-50.142,26.135-50.142,46.537c0,18.686,16.831,34.805,42.778,44.137
		C27.157,173.6,0,195.764,0,222.006c0,36.619,52.875,65.303,120.374,65.303c21.379,0,42.171-2.971,60.429-8.607
		c1.134,0.988,2.402,1.818,3.795,2.43c0.231,0.533,0.495,1.059,0.789,1.574c2.723,4.783,7.821,7.637,13.639,7.637
		c1.701,0,3.483-0.24,5.296-0.715c4.822-1.26,10.365-4.283,15.725-8.451c2.482,6.32,5.706,11.75,9.209,15.295
		c4.628,4.685,9.3,5.668,12.403,5.668c1.283,0,2.565-0.164,3.813-0.49c1.885-0.494,3.589-1.287,5.08-2.354
		c1.811,0.199,3.709,0.055,5.585-0.436c3.296-0.861,9.186-3.623,11.608-12.455c1.319-4.807,1.473-11.123,0.542-17.852
		c3.05,0.459,6.041,0.697,8.865,0.697c0.001,0,0.001,0,0.001,0c3.381,0,6.403-0.342,8.983-1.018
		c9.623-2.516,13.085-9.811,13.126-15.312c0.003-0.592-0.025-1.174-0.084-1.75c1.127-1.496,1.967-3.193,2.469-5.027
		C302.549,242.858,303.101,236.373,296.668,229.867z M63.176,40.68c0-12.123,23.49-25.631,57.198-25.631
		c22.526,0,40.476,6.035,49.915,13.655c4.686,3.782,7.283,7.954,7.283,11.975c0,12.123-23.49,25.631-57.198,25.631
		c-16.135,0-29.919-3.1-39.915-7.656C69.57,53.693,63.176,47,63.176,40.68z M62.358,144.768c-0.323-0.16-0.658-0.312-0.978-0.476
		c-13.834-7.084-21.77-16.301-21.77-25.283c0-8.984,7.936-18.199,21.77-25.283c15.633-8.006,36.584-12.414,58.993-12.414
		c22.41,0,43.36,4.408,58.993,12.414c3.371,1.727,6.385,3.58,9.025,5.525c8.198,6.037,12.744,12.963,12.744,19.758
		c0,8.982-7.935,18.199-21.77,25.283c-15.633,8.006-36.584,12.414-58.993,12.414C98.422,156.705,77.883,152.466,62.358,144.768z
		 M175.757,264.555c-16.685,5.076-35.725,7.754-55.383,7.754c-30.098,0-57.731-6.398-77.144-16.439
		C25.804,246.856,15,234.905,15,222.006c0-27.266,48.256-50.301,105.374-50.301c29.307,0,57.126,5.996,77.247,16.549
		c-0.011,0.459-0.004,0.934-0.001,1.402c0.011,2.541,0.195,5.215,0.576,7.969c-3.052-0.457-6.044-0.697-8.868-0.697
		c-3.383,0-6.405,0.344-8.984,1.018c-9.632,2.52-13.09,9.82-13.123,15.312c-0.003,0.592,0.025,1.178,0.084,1.752
		c-2.711,3.605-3.703,8.283-2.495,12.902c2.112,8.074,10.695,14.061,20.117,17.861C181.044,250.674,176.634,257.598,175.757,264.555
		z M241.661,287.139c-0.116,0-0.743-0.205-1.736-1.211c-2.872-2.906-6.84-10.387-8.763-19.943c0-0.002-0.001-0.002-0.001-0.004
		c-0.559-2.777-2.636-5.004-5.368-5.752c-0.656-0.182-1.323-0.268-1.984-0.268c-2.092,0-4.126,0.877-5.568,2.477
		c-6.528,7.234-13.729,11.766-17.714,12.678c-1.581,0.363-2.192-0.008-2.189-0.043c0.02-1.107-0.217-2.189-0.66-3.181
		c-0.358-0.802-0.85-1.546-1.471-2.191c-2.354-2.441-5.574-2.34-5.588-2.393c-0.457-1.744,2.03-7.723,7.885-14.402
		c1.6-1.824,3.33-3.564,5.141-5.17c2.039-1.811,2.914-4.574,2.332-7.219c-0.023-0.105-0.033-0.213-0.061-0.318
		c-0.729-2.74-2.939-4.842-5.714-5.416c-6.304-1.301-10.707-2.846-13.785-4.353c-6.737-3.3-7.116-6.421-7.122-6.419
		c0.021-0.02,2.769-1.285,3.72-4.73c0.533-1.932,0.23-4.016-0.783-5.746c0,0-0.011-0.055-0.014-0.105
		c0.025-0.17,6.808-5.293,23.579,1.412c2.63,1.053,5.65,0.221,7.666-1.771c2.016-1.992,2.736-4.949,1.864-7.645
		c-3.002-9.275-3.205-17.74-2.124-21.68c0.375-1.367,0.841-1.889,0.933-1.914c0.044-0.012,0.081-0.019,0.109-0.023l0.005,0.002
		c1.738,1.062,3.857,1.328,5.828,0.816c1.945-0.508,3.627-1.812,4.629-3.555c0.03-0.01,0.069-0.021,0.119-0.033
		c0.113,0,0.739,0.205,1.732,1.211c1.252,1.267,2.712,3.404,4.12,6.203c1.822,3.621,3.559,8.352,4.644,13.744
		c0.559,2.777,2.636,5.004,5.368,5.752c0.539,0.148,1.086,0.217,1.631,0.243c2.216,0.107,4.398-0.762,5.922-2.45
		c6.531-7.238,13.859-11.328,17.716-12.682c1.275-0.447,2.191,0.012,2.188,0.045c-0.036,2.004,0.732,3.939,2.132,5.375
		c0.373,0.382,0.939,0.72,1.569,1.012c1.734,0.807,3.952,1.26,3.965,1.26c0.016,0.021,3.025,5.676-12.969,19.676
		c-2.137,1.869-3.045,4.779-2.335,7.529c0.71,2.75,2.913,4.863,5.689,5.457c9.515,2.041,16.933,6.094,19.802,8.998
		c0.992,1.004,1.21,1.664,1.189,1.748c-0.003,0.006-2.875,1.256-3.719,4.74c-0.472,1.947-0.228,4.014,0.784,5.742
		c0,0.002,0.011,0.057,0.014,0.104c-0.023,0.17-0.612,0.633-1.923,0.975c-0.923,0.242-2.571,0.529-5.189,0.529h-0.001
		c-4.972,0-10.973-1.062-16.465-2.914c-2.688-0.906-5.651-0.219-7.667,1.773c-2.016,1.99-2.736,4.949-1.864,7.645
		c3.002,9.273,3.205,17.738,2.122,21.682c-0.4,1.461-0.874,1.895-0.936,1.91c-0.042,0.012-2.456-1.641-5.94-0.795
		c-1.78,0.433-2.935,1.288-3.657,2.055c-0.766,0.812-1.049,1.525-1.069,1.531C241.669,287.139,241.661,287.139,241.661,287.139z"/>
	<path style="fill:#FFAB97;" d="M287.188,242.16c0.021-0.084-0.196-0.744-1.189-1.748c-2.869-2.904-10.287-6.957-19.802-8.998
		c-2.776-0.594-4.98-2.707-5.689-5.457c-0.71-2.75,0.198-5.66,2.335-7.529c15.994-14,12.984-19.654,12.969-19.676
		c-0.013,0-2.23-0.453-3.965-1.26c-4.045,1.679-10.651,5.652-16.604,12.25c-1.897,2.104-4.819,2.961-7.553,2.207
		c-2.732-0.748-4.81-2.975-5.368-5.752c0-0.002-0.001-0.004-0.001-0.004c-0.545-0.027-1.092-0.096-1.631-0.244
		c-2.732-0.748-4.81-2.975-5.368-5.752c-1.085-5.393-2.821-10.123-4.644-13.744c-0.968,1.041-2.215,1.812-3.601,2.174
		c-1.971,0.512-4.09,0.246-5.828-0.816l-0.005-0.002c-0.028,0.004-0.065,0.012-0.109,0.023c-0.092,0.025-0.558,0.547-0.933,1.914
		c-1.081,3.939-0.878,12.404,2.124,21.68c0.087,0.269,0.146,0.541,0.201,0.812l0,0c3.229-1.652,6.875-2.57,10.71-2.57
		c2.326,0,4.641,0.35,6.878,1.035c12.343,3.793,19.3,16.918,15.51,29.26c-3.04,9.896-12.034,16.545-22.379,16.545
		c-2.326,0-4.641-0.348-6.879-1.035c-12.343-3.791-19.3-16.916-15.511-29.258c0.575-1.875,1.367-3.632,2.339-5.25
		c-0.133-0.043-0.269-0.07-0.4-0.123c-16.771-6.705-23.555-1.582-23.579-1.412c0.003,0.051,0.014,0.105,0.014,0.105
		c1.014,1.73,1.316,3.814,0.783,5.746c-0.951,3.445-3.699,4.711-3.72,4.73c0.001,0,0.023,0.151,0.122,0.419
		c3.078,1.507,7.481,3.052,13.785,4.353c2.775,0.574,4.985,2.676,5.714,5.416c0.028,0.105,0.038,0.213,0.061,0.318
		c0.404,0.09,0.804,0.179,1.225,0.266c2.775,0.574,4.985,2.676,5.714,5.416c0.729,2.738-0.149,5.654-2.271,7.537
		c-1.811,1.605-3.54,3.346-5.141,5.17c-4.75,5.419-7.283,10.376-7.826,12.985c0.443,0.991,0.68,2.073,0.66,3.181
		c-0.004,0.035,0.608,0.406,2.189,0.043c3.984-0.912,11.186-5.443,17.714-12.678c1.442-1.6,3.477-2.477,5.568-2.477
		c0.661,0,1.328,0.086,1.984,0.268c2.732,0.748,4.81,2.975,5.368,5.752c0,0.002,0.001,0.002,0.001,0.004
		c0.545,0.025,1.092,0.095,1.631,0.244c2.732,0.748,4.81,2.975,5.368,5.752c1.073,5.334,2.783,10.02,4.585,13.625
		c0.723-0.767,1.877-1.622,3.657-2.055c3.484-0.846,5.898,0.807,5.94,0.795c0.062-0.016,0.535-0.449,0.936-1.91
		c1.083-3.943,0.88-12.408-2.122-21.682c-0.872-2.695-0.151-5.654,1.864-7.645c2.016-1.992,4.979-2.68,7.667-1.773
		c5.492,1.852,11.493,2.914,16.465,2.914h0.001c2.618,0,4.267-0.287,5.189-0.529c1.311-0.342,1.899-0.805,1.923-0.975
		c-0.003-0.047-0.014-0.102-0.014-0.104c-1.013-1.729-1.256-3.795-0.784-5.742C284.313,243.416,287.185,242.166,287.188,242.16z"/>
	<path style="fill:#FF8269;" d="M240.879,230.21c-0.811-0.248-1.643-0.375-2.475-0.375c-3.717,0-6.949,2.391-8.041,5.949
		c-0.547,1.782-0.463,3.607,0.111,5.243c0.1,0.035,0.194,0.076,0.296,0.107c0.809,0.248,1.643,0.373,2.475,0.373
		c3.716,0,6.946-2.391,8.04-5.949c0.547-1.781,0.462-3.604-0.112-5.241l0,0C241.074,230.283,240.98,230.241,240.879,230.21z"/>
	<path style="fill:#C03A3A;" d="M240.115,210.703c-2.237-0.686-4.552-1.035-6.878-1.035c-3.835,0-7.482,0.918-10.71,2.57
		c-3.833,1.963-7.075,4.967-9.332,8.727c-0.972,1.618-1.764,3.375-2.339,5.25c-3.789,12.342,3.168,25.467,15.511,29.258
		c2.238,0.688,4.553,1.035,6.879,1.035c10.345,0,19.339-6.648,22.379-16.545C259.415,227.621,252.458,214.496,240.115,210.703z
		 M225.196,230.617c1.093-3.559,4.324-5.949,8.041-5.949c0.832,0,1.665,0.127,2.475,0.375c2.654,0.816,4.606,2.836,5.462,5.274
		c0.574,1.637,0.659,3.46,0.112,5.241c-1.094,3.559-4.324,5.949-8.04,5.949c-0.833,0-1.666-0.125-2.475-0.373
		c-0.102-0.031-0.196-0.072-0.296-0.107C226.229,239.547,223.865,234.953,225.196,230.617z"/>
	<path style="fill:#FF8269;" d="M170.289,28.704c-9.998-4.556-23.78-7.655-39.915-7.655c-8.66,0-16.639,0.896-23.725,2.427
		c-0.001,0-0.001,0.001-0.002,0.001c4.541-0.624,9.209-0.95,13.78-0.922c4.143,0.029,7.476,3.41,7.447,7.553
		c-0.029,4.123-3.382,7.447-7.499,7.447c-0.2,0.002-0.397-0.002-0.596-0.002c-13.101,0-25,3.336-30.58,6.477
		c-1.163,0.656-2.427,0.967-3.673,0.967c-2.621,0-5.165-1.375-6.542-3.822c-0.766-1.359-1.061-2.857-0.938-4.303
		c-3.151,3.176-4.871,6.542-4.871,9.809c0,4.021,2.599,8.193,7.283,11.975c9.996,4.557,23.78,7.656,39.915,7.656
		c33.708,0,57.198-13.508,57.198-25.631C177.572,36.658,174.975,32.487,170.289,28.704z"/>
	<path style="fill:none;" d="M81.841,30.959c0.59-0.332,1.212-0.654,1.849-0.97C83.053,30.305,82.431,30.627,81.841,30.959z"/>
	<path style="fill:#FFFFFF;" d="M130.374,21.049c16.135,0,29.918,3.1,39.915,7.655c-9.439-7.62-27.389-13.655-49.915-13.655
		c-33.708,0-57.198,13.508-57.198,25.631c0,6.32,6.395,13.013,17.283,17.976c-4.685-3.782-7.283-7.954-7.283-11.976
		c0-3.267,1.72-6.633,4.871-9.809c0.201-2.392,1.545-4.645,3.794-5.912c0.59-0.332,1.212-0.654,1.849-0.97
		c5.305-2.635,12.148-4.7,19.513-5.977c1.139-0.197,2.288-0.377,3.447-0.536C113.735,21.946,121.714,21.049,130.374,21.049z"/>
	<path style="fill:#C03A3A;" d="M81.841,30.959c-2.249,1.268-3.593,3.521-3.794,5.912c-0.122,1.446,0.173,2.943,0.938,4.303
		c1.377,2.447,3.921,3.822,6.542,3.822c1.246,0,2.51-0.311,3.673-0.967c5.58-3.141,17.479-6.477,30.58-6.477
		c0.198,0,0.396,0.004,0.596,0.002c4.117,0,7.47-3.324,7.499-7.447c0.029-4.143-3.305-7.524-7.447-7.553
		c-4.571-0.028-9.239,0.298-13.78,0.922c-1.158,0.158-2.308,0.338-3.445,0.535c-7.364,1.277-14.208,3.343-19.513,5.977
		C83.053,30.305,82.431,30.627,81.841,30.959z"/>
	<path style="fill:#FF8269;" d="M188.393,99.25c-15.525-7.699-36.064-11.939-58.019-11.939c-14.737,0-28.833,1.918-41.212,5.501
		c10.139-2.106,21.045-3.065,31.277-2.979c4.143,0.035,7.471,3.422,7.436,7.564c-0.035,4.119-3.387,7.436-7.498,7.436
		c-0.022,0-0.045,0-0.066,0c-28.6-0.256-50.76,7.859-55.623,15.84c-1.412,2.318-3.881,3.6-6.412,3.6
		c-1.329,0-2.676-0.354-3.895-1.096c-1.785-1.088-2.953-2.805-3.396-4.691c-0.899,2.166-1.373,4.352-1.373,6.523
		c0,6.795,4.548,13.721,12.747,19.76c15.524,7.698,36.063,11.938,58.016,11.938c22.409,0,43.36-4.408,58.993-12.414
		c13.835-7.084,21.77-16.301,21.77-25.283C201.137,112.213,196.591,105.287,188.393,99.25z"/>
	<path style="fill:none;" d="M61.997,103.002c-4.331,2.806-7.815,6.086-10.118,9.865C54.182,109.088,57.666,105.808,61.997,103.002z
		"/>
	<path style="fill:none;" d="M62.685,102.582c0.51-0.318,1.015-0.639,1.545-0.943C63.7,101.944,63.195,102.264,62.685,102.582z"/>
	<path style="fill:#FFFFFF;" d="M188.393,99.25c-2.641-1.945-5.654-3.799-9.025-5.525c-15.633-8.006-36.583-12.414-58.993-12.414
		c-22.409,0-43.36,4.408-58.993,12.414c-13.834,7.084-21.77,16.299-21.77,25.283c0,8.982,7.936,18.199,21.77,25.283
		c0.319,0.164,0.653,0.316,0.978,0.476c-8.199-6.039-12.747-12.965-12.747-19.76c0-2.172,0.474-4.357,1.373-6.523
		c-0.435-1.851-0.204-3.885,0.895-5.617c4.755-7.498,11.821-10.924,12.352-11.229c6.906-3.973,15.593-6.887,24.931-8.827
		c12.379-3.583,26.476-5.501,41.213-5.501C152.328,87.311,172.867,91.551,188.393,99.25z"/>
	<path style="fill:#C03A3A;" d="M51.879,112.867c-1.094,1.735-1.329,3.767-0.895,5.617c0.443,1.887,1.611,3.604,3.396,4.691
		c1.219,0.742,2.565,1.096,3.895,1.096c2.531,0,5-1.281,6.412-3.6c4.863-7.98,27.023-16.096,55.623-15.84c0.022,0,0.044,0,0.066,0
		c4.111,0,7.463-3.316,7.498-7.436c0.035-4.143-3.293-7.529-7.436-7.564c-10.232-0.086-21.139,0.873-31.277,2.979c0,0,0,0-0.001,0
		c-9.338,1.94-18.024,4.854-24.931,8.827C63.7,101.944,56.402,105.691,51.879,112.867z"/>
</g>
<g>
</g>
<g>
</g>
<g>
</g>
<g>
</g>
<g>
</g>
<g>
</g>
<g>
</g>
<g>
</g>
<g>
</g>
<g>
</g>
<g>
</g>
<g>
</g>
<g>
</g>
<g>
</g>
<g>
</g>
</svg>
