<?xml version="1.0" encoding="iso-8859-1"?>
<!-- Generator: Adobe Illustrator 19.1.0, SVG Export Plug-In . SVG Version: 6.00 Build 0)  -->
<svg version="1.1" id="Capa_1" xmlns="http://www.w3.org/2000/svg" xmlns:xlink="http://www.w3.org/1999/xlink" x="0px" y="0px"
	 viewBox="0 0 325.624 325.624" style="enable-background:new 0 0 325.624 325.624;" xml:space="preserve">
<path style="fill:#FFFFFF;" d="M109.082,114.979c9.089-2.28,18.289-3.435,27.343-3.435c21.253,0,34.94,6.415,35.051,6.468
	c2.071,1.008,4.492,1.009,6.564-0.001c0.133-0.064,13.535-6.467,35.049-6.467c9.054,0,18.253,1.155,27.342,3.435
	c3.57,0.896,6.901,1.944,10.038,3.105c-6.315-3.353-13.479-6.348-21.982-8.48c-9.089-2.28-18.288-3.435-27.342-3.435
	c-21.514,0-34.917,6.402-35.049,6.467c-2.072,1.01-4.493,1.009-6.564,0.001c-0.111-0.053-13.797-6.468-35.051-6.468
	c-9.055,0-18.254,1.155-27.343,3.435c-18.549,4.652-30.771,13.379-41.555,21.079c-6.925,4.944-13.623,9.727-21.153,12.807
	c4.446,1.293,9.729,2.515,15.943,3.532c5.952-2.986,11.481-6.912,17.155-10.964C78.311,128.357,90.533,119.631,109.082,114.979z"/>
<path style="fill:#FFFFFF;" d="M99.089,197.739c-11.047-6.609-23.771-17.39-28.524-33.477c-5.729-0.334-11.018-0.825-15.885-1.441
	c3.473,18.689,17.565,30.899,29.646,38.127c19.95,11.935,47.823,18.508,78.486,18.508c17.056,0,33.243-2.04,47.689-5.9
	c-10.408,1.771-21.472,2.691-32.927,2.691C146.913,216.247,119.039,209.674,99.089,197.739z"/>
<path style="fill:#FF8269;" d="M99.089,197.739c19.95,11.935,47.823,18.508,78.486,18.508c11.455,0,22.518-0.919,32.927-2.691
	c0,0,0.001,0,0.001,0c11.523-3.079,21.942-7.312,30.794-12.608c12.081-7.227,26.173-19.438,29.646-38.127
	c-9.459,1.198-20.485,1.934-33.322,1.934c-22.001,0-47.164-2.183-74.808-6.487c-27.644,4.305-52.808,6.487-74.809,6.487
	c-6.233,0-12.031-0.177-17.438-0.492C75.318,180.35,88.042,191.13,99.089,197.739z"/>
<path style="fill:none;" d="M162.813,158.268c-27.644,4.305-52.808,6.487-74.809,6.487c-12.838,0-23.864-0.735-33.323-1.934
	c3.473,18.689,17.565,30.899,29.646,38.127c19.95,11.935,47.823,18.508,78.486,18.508c30.662,0,58.535-6.573,78.484-18.508
	c12.081-7.227,26.173-19.438,29.646-38.127c-9.459,1.198-20.485,1.934-33.322,1.934C215.62,164.755,190.457,162.572,162.813,158.268
	z"/>
<path style="fill:none;" d="M228.487,109.604c-9.089-2.28-18.288-3.435-27.342-3.435c-21.514,0-34.917,6.402-35.049,6.467
	c-2.072,1.01-4.493,1.009-6.564,0.001c-0.111-0.053-13.797-6.468-35.051-6.468c-9.055,0-18.254,1.155-27.343,3.435
	c-18.549,4.652-30.771,13.379-41.555,21.079c-6.925,4.944-13.623,9.727-21.153,12.807c4.678,1.36,10.29,2.64,16.933,3.688
	c9.794,1.544,21.852,2.578,36.643,2.578c21.532,0,46.309-2.183,73.642-6.487c0.387-0.061,1.947-0.061,2.334,0
	c27.333,4.305,52.109,6.487,73.641,6.487c23.123,0,39.603-2.516,51.11-5.58c0.847-0.226,1.672-0.453,2.465-0.684
	c-7.531-3.08-14.229-7.863-21.154-12.809C259.259,122.983,247.037,114.257,228.487,109.604z"/>
<path style="fill:none;" d="M210.503,213.557c-10.408,1.771-21.472,2.691-32.927,2.691c-30.663,0-58.537-6.573-78.486-18.508
	c-11.047-6.609-23.771-17.39-28.524-33.477c-5.729-0.334-11.018-0.825-15.885-1.441c3.473,18.689,17.565,30.899,29.646,38.127
	c19.95,11.935,47.823,18.508,78.486,18.508c17.056,0,33.244-2.04,47.69-5.9C210.503,213.557,210.503,213.557,210.503,213.557z"/>
<g>
	<path style="fill:none;" d="M67.527,136.058c10.784-7.7,23.006-16.427,41.555-21.079c9.089-2.28,18.289-3.435,27.343-3.435
		c21.253,0,34.94,6.415,35.051,6.468c2.071,1.008,4.492,1.009,6.564-0.001c0.133-0.064,13.535-6.467,35.049-6.467
		c9.054,0,18.253,1.155,27.342,3.435c3.569,0.896,6.901,1.944,10.037,3.105c-6.314-3.353-13.478-6.348-21.981-8.48
		c-9.089-2.28-18.288-3.435-27.342-3.435c-21.514,0-34.917,6.402-35.049,6.467c-2.072,1.01-4.493,1.009-6.564,0.001
		c-0.111-0.053-13.797-6.468-35.051-6.468c-9.055,0-18.254,1.155-27.343,3.435c-18.549,4.652-30.771,13.379-41.555,21.079
		c-6.925,4.944-13.623,9.727-21.153,12.807c4.444,1.292,9.742,2.509,15.955,3.526C56.331,144.029,61.857,140.106,67.527,136.058z"/>
	<path style="fill:none;" d="M162.813,158.268c-27.644,4.305-52.808,6.487-74.809,6.487c-6.233,0-12.031-0.177-17.438-0.492
		c-5.729-0.334-11.018-0.825-15.885-1.441c3.473,18.689,17.565,30.899,29.646,38.127c19.95,11.935,47.823,18.508,78.486,18.508
		c17.056,0,33.244-2.04,47.69-5.9c11.523-3.079,21.942-7.312,30.794-12.608c12.081-7.227,26.173-19.438,29.646-38.127
		c-9.459,1.198-20.485,1.934-33.322,1.934C215.62,164.755,190.457,162.572,162.813,158.268z"/>
	<path style="fill:#FF8269;" d="M213.09,111.543c-21.514,0-34.917,6.402-35.049,6.467c-2.072,1.01-4.493,1.009-6.564,0.001
		c-0.111-0.053-13.797-6.468-35.051-6.468c-9.055,0-18.254,1.155-27.343,3.435c-18.549,4.652-30.771,13.379-41.555,21.079
		c-5.67,4.049-11.196,7.972-17.144,10.958c0.327,0.053,0.646,0.108,0.978,0.161c9.794,1.544,21.852,2.578,36.643,2.578
		c21.532,0,46.309-2.183,73.642-6.487c0.387-0.061,1.947-0.061,2.334,0c27.333,4.305,52.109,6.487,73.641,6.487
		c23.123,0,39.603-2.516,51.11-5.58c0.847-0.226,1.672-0.453,2.465-0.684c-7.531-3.08-14.229-7.863-21.154-12.809
		c-5.84-4.17-12.112-8.637-19.574-12.599c-3.136-1.161-6.467-2.21-10.037-3.105C231.343,112.698,222.144,111.543,213.09,111.543z"/>
	<path style="fill:#C03A3A;" d="M324.521,134.337c-1.684-2.75-4.937-4.117-8.079-3.393c-2.881,0.663-5.541,0.985-8.13,0.985
		c-10.712,0-19.026-5.938-29.553-13.454c-11.279-8.054-25.317-18.077-46.622-23.421c-10.281-2.579-20.709-3.887-30.992-3.887
		c-18.695,0-32.376,4.304-38.332,6.594c-5.957-2.29-19.638-6.594-38.333-6.594c-10.284,0-20.712,1.308-30.993,3.887
		c-21.304,5.343-35.342,15.366-46.622,23.42c-10.528,7.517-18.843,13.454-29.555,13.455c-0.002,0-0.002,0-0.004,0
		c-2.586,0-5.244-0.322-8.126-0.985c-3.145-0.723-6.395,0.644-8.08,3.394c-1.683,2.751-1.419,6.27,0.655,8.739
		c1.283,1.527,10.336,11.225,37.426,17.12c2.12,21.462,15.223,40.33,37.443,53.623c22.243,13.308,52.851,20.636,86.187,20.636
		c33.334,0,63.942-7.328,86.186-20.636c22.22-13.293,35.322-32.16,37.442-53.622c27.096-5.896,36.145-15.596,37.428-17.123
		C325.941,140.606,326.204,137.087,324.521,134.337z M34.429,143.489c7.531-3.08,14.228-7.862,21.153-12.807
		c10.784-7.7,23.006-16.427,41.555-21.079c9.089-2.28,18.289-3.435,27.343-3.435c21.253,0,34.94,6.415,35.051,6.468
		c2.071,1.008,4.492,1.009,6.564-0.001c0.133-0.064,13.535-6.467,35.049-6.467c9.054,0,18.253,1.155,27.342,3.435
		c8.503,2.133,15.667,5.127,21.981,8.48c7.461,3.962,13.734,8.429,19.574,12.599c6.925,4.945,13.623,9.729,21.154,12.809
		c-0.794,0.23-1.619,0.458-2.465,0.684c-11.507,3.064-27.987,5.58-51.11,5.58c-21.532,0-46.308-2.183-73.641-6.487
		c-0.387-0.061-1.947-0.061-2.334,0c-27.333,4.305-52.11,6.487-73.642,6.487c-14.79,0-26.848-1.034-36.643-2.578
		c-0.333-0.053-0.651-0.108-0.978-0.161C44.171,145.998,38.873,144.781,34.429,143.489z M241.298,200.948
		c-8.852,5.296-19.271,9.529-30.794,12.608c-14.447,3.859-30.634,5.9-47.69,5.9c-30.663,0-58.537-6.573-78.486-18.508
		c-12.08-7.227-26.173-19.438-29.646-38.127c4.867,0.616,10.156,1.107,15.885,1.441c5.407,0.315,11.205,0.492,17.438,0.492
		c22.002,0,47.165-2.183,74.809-6.487c27.644,4.305,52.807,6.487,74.808,6.487c12.837,0,23.863-0.735,33.322-1.934
		C267.47,181.511,253.378,193.721,241.298,200.948z"/>
</g>
<g>
</g>
<g>
</g>
<g>
</g>
<g>
</g>
<g>
</g>
<g>
</g>
<g>
</g>
<g>
</g>
<g>
</g>
<g>
</g>
<g>
</g>
<g>
</g>
<g>
</g>
<g>
</g>
<g>
</g>
</svg>
