<?xml version="1.0" encoding="iso-8859-1"?>
<!-- Generator: Adobe Illustrator 19.1.0, SVG Export Plug-In . SVG Version: 6.00 Build 0)  -->
<svg version="1.1" id="Capa_1" xmlns="http://www.w3.org/2000/svg" xmlns:xlink="http://www.w3.org/1999/xlink" x="0px" y="0px"
	 viewBox="0 0 356.686 356.686" style="enable-background:new 0 0 356.686 356.686;" xml:space="preserve">
<g>
	<polygon style="fill:#FFFFFF;" points="204.952,180.637 204.952,174.398 151.733,174.398 151.733,227.617 161.091,227.617 
		161.091,180.637 	"/>
	<path style="fill:#FFFFFF;" d="M157.091,340.478c0-0.508,0.301-0.815,0.48-0.954c1.638-1.266,2.68-3.151,2.88-5.211
		c0.2-2.06-0.461-4.111-1.825-5.668c-16.341-18.645-28.552-79.064-28.552-120.63c0-23.134,3.896-45.009,10.708-63.101h-10
		c-6.811,18.092-10.707,39.967-10.707,63.101c0,41.565,12.211,101.984,28.552,120.63c1.364,1.557,2.025,3.607,1.825,5.668
		c-0.2,2.06-1.242,3.945-2.88,5.211c-0.18,0.139-0.48,0.446-0.48,0.954c0,0.666,0.542,1.208,1.209,1.208h10
		C157.633,341.686,157.091,341.144,157.091,340.478z"/>
	<path style="fill:#FFFFFF;" d="M168.61,104.789l-9.999-0.001c-8.06,5.63-15.179,14.291-21.038,25.126h10
		C153.432,119.08,160.551,110.419,168.61,104.789z"/>
	<rect x="172.113" y="78.895" style="fill:#FFFFFF;" width="5.485" height="10.889"/>
	<path style="fill:#FFFFFF;" d="M191.343,19c0.519,0,1.034,0.017,1.546,0.044C188.637,16.479,183.66,15,178.343,15
		c-15.573,0-28.242,12.669-28.242,28.242c0,7.917,3.242,15.316,8.975,20.652h9.452c-3.499-4.775-5.427-10.559-5.427-16.652
		C163.101,31.669,175.77,19,191.343,19z"/>
	<path style="fill:#FFAB97;" d="M198.075,104.79l-12.232-0.001v25.125h33.269C213.253,119.08,206.134,110.42,198.075,104.79z"/>
	<path style="fill:none;" d="M185.843,104.789v25.125h33.269c-5.859-10.834-12.978-19.494-21.037-25.124L185.843,104.789z"/>
	<path style="fill:#FF8269;" d="M163.101,47.242c0,6.094,1.928,11.877,5.427,16.652l0,0l29.081,0.001
		c5.733-5.335,8.977-12.735,8.977-20.653c0-10.256-5.496-19.25-13.696-24.198c-0.512-0.027-1.027-0.044-1.546-0.044
		C175.77,19,163.101,31.669,163.101,47.242z"/>
	<path style="fill:none;" d="M159.075,63.895h9.452l29.081,0.001c5.733-5.335,8.977-12.735,8.977-20.653
		c0-10.256-5.496-19.25-13.696-24.198C188.637,16.479,183.66,15,178.343,15c-15.573,0-28.242,12.669-28.242,28.242
		C150.101,51.159,153.343,58.559,159.075,63.895z"/>
	<path style="fill:none;" d="M185.843,104.789v25.125h33.269c-5.859-10.834-12.978-19.494-21.037-25.124L185.843,104.789z"/>
	<rect x="177.598" y="78.895" style="fill:#FFAB97;" width="6.976" height="10.888"/>
	<path style="fill:none;" d="M159.075,63.895h9.452l29.081,0.001c5.733-5.335,8.977-12.735,8.977-20.653
		c0-10.256-5.496-19.25-13.696-24.198C188.637,16.479,183.66,15,178.343,15c-15.573,0-28.242,12.669-28.242,28.242
		C150.101,51.159,153.343,58.559,159.075,63.895z"/>
	<polygon style="fill:none;" points="184.573,78.896 177.598,78.895 172.113,78.895 172.113,89.783 177.598,89.783 184.573,89.783 	
		"/>
	<path style="fill:none;" d="M185.843,104.789v25.125h33.269c-5.859-10.834-12.978-19.494-21.037-25.124L185.843,104.789z"/>
	<path style="fill:#FFAB97;" d="M147.573,129.914h23.27v-25.125h-2.232l0,0C160.551,110.419,153.432,119.08,147.573,129.914z"/>
	<path style="fill:none;" d="M170.843,129.914v-25.125h-2.232l-9.999-0.001c-8.06,5.63-15.179,14.291-21.038,25.126h10H170.843z"/>
	<path style="fill:none;" d="M159.075,63.895h9.452l29.081,0.001c5.733-5.335,8.977-12.735,8.977-20.653
		c0-10.256-5.496-19.25-13.696-24.198C188.637,16.479,183.66,15,178.343,15c-15.573,0-28.242,12.669-28.242,28.242
		C150.101,51.159,153.343,58.559,159.075,63.895z"/>
	<path style="fill:none;" d="M185.843,104.789v25.125h33.269c-5.859-10.834-12.978-19.494-21.037-25.124L185.843,104.789z"/>
	<polygon style="fill:none;" points="172.113,89.783 177.598,89.783 184.573,89.783 184.573,78.896 177.598,78.895 172.113,78.895 	
		"/>
	<path style="fill:#FF8269;" d="M236.61,208.015c0-23.134-3.897-45.009-10.708-63.101h-85.12
		c-6.811,18.092-10.708,39.967-10.708,63.101c0,41.565,12.211,101.984,28.552,120.63c1.364,1.557,2.025,3.607,1.825,5.668
		c-0.2,2.06-1.242,3.945-2.88,5.211c-0.18,0.139-0.48,0.446-0.48,0.954c0,0.666,0.542,1.208,1.209,1.208h50.085
		c0.667,0,1.208-0.542,1.208-1.208c0-0.508-0.301-0.816-0.48-0.955c-1.638-1.265-2.68-3.151-2.879-5.211
		c-0.2-2.06,0.46-4.11,1.825-5.667C224.4,310,236.61,249.58,236.61,208.015z M144.233,242.617c-4.142,0-7.5-3.357-7.5-7.5v-68.219
		c0-4.143,3.358-7.5,7.5-7.5h68.219c4.142,0,7.5,3.357,7.5,7.5v68.219c0,4.143-3.358,7.5-7.5,7.5H144.233z"/>
	<path style="fill:#C03A3A;" d="M251.61,208.015c0-25.702-4.448-50.344-12.863-71.26c-8.48-21.078-20.373-36.916-34.393-45.8
		c-1.201-0.761-2.593-1.165-4.014-1.165h-0.768V78.896h0.792c1.676,0,3.305-0.562,4.624-1.596
		c10.547-8.26,16.596-20.674,16.596-34.058C221.585,19.399,202.186,0,178.343,0c-23.844,0-43.242,19.399-43.242,43.242
		c0,13.382,6.047,25.795,16.592,34.056c1.32,1.034,2.948,1.597,4.626,1.597h0.795v10.894h-0.766h0c-1.421,0-2.814,0.404-4.015,1.165
		c-14.02,8.884-25.913,24.722-34.394,45.8c-8.415,20.917-12.863,45.559-12.863,71.262c0,36.876,9.884,98.367,28.515,125.636
		c-0.978,2.104-1.499,4.423-1.499,6.827c0,8.938,7.271,16.208,16.209,16.208h60.085c8.938,0,16.208-7.271,16.208-16.208
		c0-2.404-0.521-4.723-1.499-6.827C241.727,306.384,251.61,244.892,251.61,208.015z M219.112,129.914h-33.269v-25.125l12.232,0.001
		C206.134,110.42,213.253,119.08,219.112,129.914z M150.101,43.242C150.101,27.669,162.77,15,178.343,15
		c5.317,0,10.294,1.479,14.546,4.044c8.2,4.948,13.696,13.942,13.696,24.198c0,7.918-3.243,15.318-8.977,20.653l-29.081-0.001
		h-9.452C153.343,58.559,150.101,51.159,150.101,43.242z M184.573,78.896v10.888h-6.976h-5.485V78.895h5.485L184.573,78.896z
		 M158.611,104.788l9.999,0.001h2.232v25.125h-23.27h-10C143.433,119.079,150.551,110.418,158.611,104.788z M206.234,334.312
		c0.2,2.059,1.242,3.946,2.879,5.211c0.179,0.139,0.48,0.447,0.48,0.955c0,0.666-0.542,1.208-1.208,1.208H158.3h-10
		c-0.667,0-1.209-0.542-1.209-1.208c0-0.508,0.301-0.815,0.48-0.954c1.638-1.266,2.68-3.151,2.88-5.211
		c0.2-2.06-0.461-4.111-1.825-5.668c-16.341-18.645-28.552-79.064-28.552-120.63c0-23.134,3.896-45.009,10.707-63.101h10h85.12
		c6.811,18.092,10.708,39.967,10.708,63.101c0,41.565-12.21,101.985-28.552,120.63C206.694,330.201,206.034,332.252,206.234,334.312
		z"/>
	<rect x="161.091" y="180.637" style="fill:#FFAB97;" width="43.861" height="46.98"/>
	<path style="fill:#C03A3A;" d="M212.452,159.398h-68.219c-4.142,0-7.5,3.357-7.5,7.5v68.219c0,4.143,3.358,7.5,7.5,7.5h68.219
		c4.142,0,7.5-3.357,7.5-7.5v-68.219C219.952,162.756,216.594,159.398,212.452,159.398z M151.733,174.398h53.219v6.238v46.98
		h-43.861h-9.357V174.398z"/>
</g>
<g>
</g>
<g>
</g>
<g>
</g>
<g>
</g>
<g>
</g>
<g>
</g>
<g>
</g>
<g>
</g>
<g>
</g>
<g>
</g>
<g>
</g>
<g>
</g>
<g>
</g>
<g>
</g>
<g>
</g>
</svg>
