<?xml version="1.0" encoding="iso-8859-1"?>
<!-- Generator: Adobe Illustrator 19.1.0, SVG Export Plug-In . SVG Version: 6.00 Build 0)  -->
<svg version="1.1" id="Capa_1" xmlns="http://www.w3.org/2000/svg" xmlns:xlink="http://www.w3.org/1999/xlink" x="0px" y="0px"
	 viewBox="0 0 371.643 371.643" style="enable-background:new 0 0 371.643 371.643;" xml:space="preserve">
<g>
	<path style="fill:#FFFFFF;" d="M236.515,329.499l-6.333,6.333c4.936,1.342,10.074,2.05,15.326,2.05
		c15.515,0,30.101-6.041,41.07-17.012c1.079-1.08,2.102-2.194,3.078-3.336c-10.523,9.06-23.785,14.015-37.816,14.015
		C246.589,331.549,241.451,330.841,236.515,329.499z"/>
	<path style="fill:#FFFFFF;" d="M202.497,303.287l-6.655,6.656c2.391,3.919,5.263,7.58,8.586,10.913
		c4.982,4.996,10.283,8.201,10.912,8.585l6.459-6.459c-2.919-2.201-6.359-5.042-9.712-8.403
		C208.559,311.041,205.363,307.263,202.497,303.287z"/>
	<path style="fill:none;" d="M190.983,328.453c-12.375,11.746-28.707,18.355-46.053,18.355c-33.549,0-61.414-24.784-66.261-57.003
		c-0.122-0.814-0.22-1.635-0.313-2.457c-0.027-0.249-0.067-0.494-0.093-0.744c-0.227-2.239-0.344-4.51-0.344-6.808
		c0-28.822,18.292-53.45,43.874-62.892c7.215-2.663,15.009-4.12,23.137-4.12c17.347,0,33.678,6.608,46.053,18.354
		c2.475-3.566,5.502-5.653,7.002-6.851c0.014-0.012,0.032-0.025,0.046-0.036c-14.241-13.619-33.19-21.301-53.101-21.301
		c-42.373,0-76.846,34.473-76.846,76.846c0,29.159,16.326,54.575,40.315,67.593c10.872,5.898,23.316,9.253,36.53,9.253
		c19.91,0,38.859-7.682,53.102-21.302C196.592,334.107,193.632,331.919,190.983,328.453z"/>
	<path style="fill:none;" d="M144.93,168.691c42.374,0,76.848-34.473,76.848-76.845c0-24.695-11.722-46.691-29.88-60.76
		C178.899,21.016,162.609,15,144.93,15c-42.373,0-76.846,34.474-76.846,76.847c0,28.918,16.063,54.147,39.73,67.259
		C118.825,165.206,131.476,168.691,144.93,168.691z"/>
	<path style="fill:none;" d="M126.976,185.821c0-1.175,0.955-2.13,2.129-2.13h-9.532c-1.174,0-2.129,0.955-2.129,2.13
		c0,1.175,0.955,2.13,2.129,2.13h9.532C127.931,187.951,126.976,186.996,126.976,185.821z"/>
	<path style="fill:none;" d="M171.577,235.127c-7.944-4.754-17.096-7.342-26.646-7.342c-28.679,0-52.011,23.332-52.011,52.012
		c0,21.817,13.509,40.527,32.595,48.237c6.004,2.426,12.554,3.774,19.416,3.774c14.137,0,27.41-5.65,37.169-15.643
		c-6.304-10.949-9.68-23.397-9.68-36.37c0-12.973,3.376-25.42,9.679-36.369C178.932,240.186,175.392,237.409,171.577,235.127z"/>
	<g>
		<path style="fill:#FFFFFF;" d="M126.976,185.821c0-1.175,0.955-2.13,2.129-2.13h-9.547c-1.174,0-2.129,0.955-2.129,2.13
			c0,1.175,0.955,2.13,2.129,2.13h9.547C127.931,187.951,126.976,186.996,126.976,185.821z"/>
		<path style="fill:#FF8269;" d="M170.29,183.691h-0.468h-40.717c-1.174,0-2.129,0.955-2.129,2.13c0,1.175,0.955,2.13,2.129,2.13
			h40.717h0.468c1.175,0,2.13-0.955,2.13-2.13C172.419,184.646,171.464,183.691,170.29,183.691z"/>
	</g>
	<path style="fill:#FFFFFF;" d="M100.252,283.464c0-28.68,23.332-52.012,52.011-52.012c0.12,0,10.004-0.174,18.156,3.034
		c-7.538-4.258-16.232-6.7-25.489-6.7c-28.679,0-52.011,23.332-52.011,52.012c0,21.826,13.518,40.549,32.619,48.252
		C110.406,318.946,100.252,302.374,100.252,283.464z"/>
	<path style="fill:#FFFFFF;" d="M77.934,286.298c0-1.009,0.037-2.01,0.076-3.009c-0.06-1.157-0.091-2.32-0.091-3.491
		c0-28.813,18.278-53.433,43.849-62.881c10.008-4.781,21.201-7.466,33.012-7.466c13.455,0,26.107,3.486,37.118,9.587
		c-12.999-10.071-29.289-16.087-46.968-16.087c-42.373,0-76.846,34.474-76.846,76.847c0,28.918,16.062,54.146,39.729,67.258
		C89.656,332.988,77.934,310.992,77.934,286.298z"/>
	<path style="fill:#FFFFFF;" d="M100.252,95.513c0-28.68,23.332-52.012,52.011-52.012c0.12,0,12.5,0.379,18.156,3.034
		c-7.538-4.258-16.232-6.7-25.489-6.7c-28.679,0-52.011,23.332-52.011,52.012c0,21.826,13.518,40.549,32.619,48.252
		C110.406,130.995,100.252,114.423,100.252,95.513z"/>
	<path style="fill:#FFFFFF;" d="M77.934,98.347c0-1.009,0.037-2.01,0.076-3.009c-0.06-1.157-0.091-2.32-0.091-3.491
		c0-28.813,18.278-53.433,43.849-62.881c10.008-4.781,21.201-7.466,33.012-7.466c13.455,0,26.107,3.486,37.118,9.587
		C178.899,21.016,162.609,15,144.93,15c-42.373,0-76.846,34.474-76.846,76.847c0,28.918,16.062,54.146,39.729,67.258
		C89.656,145.037,77.934,123.041,77.934,98.347z"/>
	<path style="fill:#FFFFFF;" d="M214.564,238.724c9.77-9.771,22.408-15.618,36.015-16.785c-1.677-0.146-3.368-0.229-5.072-0.229
		c-15.515,0-30.102,6.042-41.072,17.014c-10.972,10.971-17.015,25.558-17.015,41.072c0,5.251,0.708,10.391,2.05,15.324l8.49-8.49
		c-0.267-2.252-0.41-4.531-0.41-6.834C197.549,264.281,203.592,249.694,214.564,238.724z"/>
	<path style="fill:#FF8269;" d="M191.898,31.087c-11.011-6.101-23.663-9.587-37.118-9.587c-11.807,0-22.997,2.683-33.003,7.462
		c7.22-2.667,15.019-4.127,23.153-4.127c36.951,0,67.013,30.062,67.013,67.012s-30.061,67.011-67.013,67.011
		c-35.779,0-65.098-28.187-66.92-63.521c0,0,0,0,0,0.001c-0.039,0.999-0.076,2-0.076,3.009c0,24.694,11.722,46.69,29.879,60.758
		c0,0,0.001,0.001,0.002,0.001c11.01,6.101,23.661,9.586,37.115,9.586c42.374,0,76.848-34.473,76.848-76.845
		C221.778,67.151,210.056,45.155,191.898,31.087z"/>
	<path style="fill:#C03A3A;" d="M144.93,24.835c-8.135,0-15.934,1.46-23.153,4.127c-25.574,9.446-43.857,34.069-43.857,62.885
		c0,1.171,0.031,2.334,0.091,3.49c1.822,35.334,31.141,63.521,66.92,63.521c36.951,0,67.013-30.061,67.013-67.011
		S181.881,24.835,144.93,24.835z M92.919,91.847c0-28.68,23.332-52.012,52.011-52.012c9.805,0,18.982,2.729,26.818,7.465
		c15.086,9.115,25.194,25.672,25.194,44.547c0,28.679-23.333,52.011-52.013,52.011c-6.862,0-13.412-1.349-19.416-3.774
		C106.428,132.373,92.919,113.663,92.919,91.847z"/>
	<path style="fill:#FFAB97;" d="M170.419,46.535c-0.604-0.328,0.632,0.266-0.037-0.01c-6.026-2.479-14.855-3.031-18.119-3.024
		c-28.679,0.062-52.011,23.332-52.011,52.012c0,18.9,10.143,35.464,25.262,44.57c6.004,2.426,12.554,3.774,19.416,3.774
		c28.68,0,52.013-23.332,52.013-52.011C196.943,70.821,184.698,54.563,170.419,46.535z M144.93,64.021
		c-15.343,0-27.824,12.482-27.824,27.826c0,4.143-3.357,7.5-7.5,7.5s-7.5-3.357-7.5-7.5c0-23.614,19.211-42.826,42.824-42.826
		c4.143,0,7.5,3.357,7.5,7.5S149.073,64.021,144.93,64.021z"/>
	<path style="fill:#C03A3A;" d="M144.93,49.021c-23.613,0-42.824,19.212-42.824,42.826c0,4.143,3.357,7.5,7.5,7.5s7.5-3.357,7.5-7.5
		c0-15.344,12.481-27.826,27.824-27.826c4.143,0,7.5-3.357,7.5-7.5S149.073,49.021,144.93,49.021z"/>
	<path style="fill:none;" d="M78.356,287.349c0.094,0.827,0.19,1.651,0.313,2.457C78.547,288.992,78.45,288.171,78.356,287.349z"/>
	<path style="fill:none;" d="M144.93,168.691c42.374,0,76.848-34.473,76.848-76.845c0-24.695-11.722-46.691-29.88-60.76
		C178.899,21.016,162.609,15,144.93,15c-42.373,0-76.846,34.474-76.846,76.847c0,28.918,16.063,54.147,39.73,67.259
		C118.825,165.206,131.476,168.691,144.93,168.691z"/>
	<path style="fill:none;" d="M107.815,347.057c-0.001,0-0.002-0.001-0.002-0.001c-18.157-14.067-29.879-36.064-29.879-60.758
		c0-1.009,0.037-2.01,0.076-3.009v-0.001c0.059,1.125,0.144,2.23,0.253,3.316c-0.227-2.239-0.344-4.51-0.344-6.808
		c0-28.822,18.292-53.45,43.874-62.892c10.002-4.774,21.187-7.454,32.986-7.454c13.455,0,26.107,3.486,37.118,9.587
		c2.121,1.644,4.149,3.398,6.087,5.25c0.014-0.012,0.032-0.025,0.046-0.036c-14.241-13.619-33.19-21.301-53.101-21.301
		c-42.373,0-76.846,34.473-76.846,76.846c0,29.159,16.326,54.575,40.315,67.593C108.205,347.278,108.009,347.164,107.815,347.057z"
		/>
	<path style="fill:#FF8269;" d="M154.78,209.451c-11.8,0-22.984,2.68-32.986,7.454c7.215-2.663,15.009-4.12,23.137-4.12
		c17.347,0,33.678,6.608,46.053,18.354c2.475-3.566,5.502-5.653,7.002-6.851c-1.938-1.852-3.966-3.606-6.087-5.25
		C180.887,212.938,168.235,209.451,154.78,209.451z"/>
	<path style="fill:#FF8269;" d="M78.01,283.289c-0.039,0.999-0.076,2-0.076,3.009c0,24.694,11.722,46.69,29.879,60.758
		c0,0,0.001,0.001,0.002,0.001c0.194,0.107,0.39,0.222,0.585,0.333c10.872,5.898,23.316,9.253,36.53,9.253
		c19.91,0,38.859-7.682,53.102-21.302c-1.439-1.233-4.4-3.422-7.049-6.888c-12.375,11.746-28.707,18.355-46.053,18.355
		c-33.549,0-61.414-24.784-66.261-57.003c-0.123-0.806-0.22-1.63-0.313-2.457c-0.027-0.249-0.067-0.494-0.093-0.744
		c-0.109-1.087-0.194-2.191-0.253-3.316V283.289z"/>
	<path style="fill:none;" d="M144.93,168.691c42.374,0,76.848-34.473,76.848-76.845c0-24.695-11.722-46.691-29.88-60.76
		C178.899,21.016,162.609,15,144.93,15c-42.373,0-76.846,34.474-76.846,76.847c0,28.918,16.063,54.147,39.73,67.259
		C118.825,165.206,131.476,168.691,144.93,168.691z"/>
	<path style="fill:none;" d="M190.983,328.453c-12.375,11.746-28.707,18.355-46.053,18.355c-33.549,0-61.414-24.784-66.261-57.003
		c-0.122-0.814-0.22-1.635-0.313-2.457c-0.027-0.249-0.067-0.494-0.093-0.744c-0.227-2.239-0.344-4.51-0.344-6.808
		c0-28.822,18.292-53.45,43.874-62.892c7.215-2.663,15.009-4.12,23.137-4.12c17.347,0,33.678,6.608,46.053,18.354
		c2.475-3.566,5.502-5.653,7.002-6.851c0.014-0.012,0.032-0.025,0.046-0.036c-14.241-13.619-33.19-21.301-53.101-21.301
		c-42.373,0-76.846,34.473-76.846,76.846c0,29.159,16.326,54.575,40.315,67.593c10.872,5.898,23.316,9.253,36.53,9.253
		c19.91,0,38.859-7.682,53.102-21.302C196.592,334.107,193.632,331.919,190.983,328.453z"/>
	<path style="fill:#FFAB97;" d="M152.622,231.46c-0.12-0.001-0.238-0.008-0.358-0.008c-28.679,0-52.011,23.332-52.011,52.012
		c0,18.9,10.143,35.464,25.262,44.57l0,0c6.004,2.426,12.554,3.774,19.416,3.774c14.137,0,27.41-5.65,37.169-15.643
		c-6.304-10.949-9.68-23.397-9.68-36.37c0-12.973,3.376-25.42,9.679-36.369c-3.166-3.241-6.706-6.018-10.521-8.3
		c-0.077-0.05-0.538-0.419-1.157-0.641C165.057,232.565,159.776,231.496,152.622,231.46z"/>
	<path style="fill:none;" d="M169.822,183.691h-40.717h-9.532c-1.174,0-2.129,0.955-2.129,2.13c0,1.175,0.955,2.13,2.129,2.13h9.532
		h40.717h0.468c1.175,0,2.13-0.955,2.13-2.13c0-1.175-0.955-2.13-2.13-2.13H169.822z"/>
	<path style="fill:none;" d="M144.93,168.691c42.374,0,76.848-34.473,76.848-76.845c0-24.695-11.722-46.691-29.88-60.76
		C178.899,21.016,162.609,15,144.93,15c-42.373,0-76.846,34.474-76.846,76.847c0,28.918,16.063,54.147,39.73,67.259
		C118.825,165.206,131.476,168.691,144.93,168.691z"/>
	<path style="fill:none;" d="M190.983,328.453c-12.375,11.746-28.707,18.355-46.053,18.355c-33.549,0-61.414-24.784-66.261-57.003
		c-0.122-0.814-0.22-1.635-0.313-2.457c-0.027-0.249-0.067-0.494-0.093-0.744c-0.227-2.239-0.344-4.51-0.344-6.808
		c0-28.822,18.292-53.45,43.874-62.892c7.215-2.663,15.009-4.12,23.137-4.12c17.347,0,33.678,6.608,46.053,18.354
		c2.475-3.566,5.502-5.653,7.002-6.851c0.014-0.012,0.032-0.025,0.046-0.036c-14.241-13.619-33.19-21.301-53.101-21.301
		c-42.373,0-76.846,34.473-76.846,76.846c0,29.159,16.326,54.575,40.315,67.593c10.872,5.898,23.316,9.253,36.53,9.253
		c19.91,0,38.859-7.682,53.102-21.302C196.592,334.107,193.632,331.919,190.983,328.453z"/>
	<path style="fill:none;" d="M171.577,235.127c-7.944-4.754-17.096-7.342-26.646-7.342c-28.679,0-52.011,23.332-52.011,52.012
		c0,21.817,13.509,40.527,32.595,48.237c6.004,2.426,12.554,3.774,19.416,3.774c14.137,0,27.41-5.65,37.169-15.643
		c-6.304-10.949-9.68-23.397-9.68-36.37c0-12.973,3.376-25.42,9.679-36.369C178.932,240.186,175.392,237.409,171.577,235.127z"/>
	<path style="fill:#FFAB97;" d="M197.549,279.796c0,2.303,0.144,4.582,0.41,6.834l62.871-62.871
		c-3.334-0.906-6.762-1.516-10.254-1.82c-13.605,1.168-26.244,7.016-36.013,16.785C203.592,249.694,197.549,264.281,197.549,279.796
		z"/>
	<path style="fill:none;" d="M190.983,328.453c-12.375,11.746-28.707,18.355-46.053,18.355c-33.549,0-61.414-24.784-66.261-57.003
		c-0.122-0.814-0.22-1.635-0.313-2.457c-0.027-0.249-0.067-0.494-0.093-0.744c-0.227-2.239-0.344-4.51-0.344-6.808
		c0-28.822,18.292-53.45,43.874-62.892c7.215-2.663,15.009-4.12,23.137-4.12c17.347,0,33.678,6.608,46.053,18.354
		c2.475-3.566,5.502-5.653,7.002-6.851c0.014-0.012,0.032-0.025,0.046-0.036c-14.241-13.619-33.19-21.301-53.101-21.301
		c-42.373,0-76.846,34.473-76.846,76.846c0,29.159,16.326,54.575,40.315,67.593c10.872,5.898,23.316,9.253,36.53,9.253
		c19.91,0,38.859-7.682,53.102-21.302C196.592,334.107,193.632,331.919,190.983,328.453z"/>
	<path style="fill:none;" d="M171.577,235.127c-7.944-4.754-17.096-7.342-26.646-7.342c-28.679,0-52.011,23.332-52.011,52.012
		c0,21.817,13.509,40.527,32.595,48.237c6.004,2.426,12.554,3.774,19.416,3.774c14.137,0,27.41-5.65,37.169-15.643
		c-6.304-10.949-9.68-23.397-9.68-36.37c0-12.973,3.376-25.42,9.679-36.369C178.932,240.186,175.392,237.409,171.577,235.127z"/>
	<path style="fill:none;" d="M169.822,183.691h-40.717h-9.532c-1.174,0-2.129,0.955-2.129,2.13c0,1.175,0.955,2.13,2.129,2.13h9.532
		h40.717h0.468c1.175,0,2.13-0.955,2.13-2.13c0-1.175-0.955-2.13-2.13-2.13H169.822z"/>
	<path style="fill:none;" d="M190.963,259.758c-2.323,6.334-3.544,13.091-3.544,20.038c0,5.251,0.708,10.391,2.05,15.324
		l2.966-2.966l3.793-3.793l1.731-1.731l22.257-22.257l40.614-40.614c-3.334-0.906-6.762-1.516-10.254-1.82
		c-1.677-0.146-3.367-0.229-5.07-0.229c-13.992,0-27.221,4.929-37.73,13.941c-1.145,0.98-2.266,1.996-3.342,3.072
		c-4.105,4.104-7.496,8.725-10.16,13.701C193.005,254.795,191.887,257.238,190.963,259.758z"/>
	<path style="fill:none;" d="M144.93,168.691c42.374,0,76.848-34.473,76.848-76.845c0-24.695-11.722-46.691-29.88-60.76
		C178.899,21.016,162.609,15,144.93,15c-42.373,0-76.846,34.474-76.846,76.847c0,28.918,16.063,54.147,39.73,67.259
		C118.825,165.206,131.476,168.691,144.93,168.691z"/>
	<path style="fill:none;" d="M212.086,314.579c-3.523-3.534-6.717-7.309-9.581-11.28l-6.657,6.657
		c2.391,3.919,5.263,7.58,8.586,10.913c1.501,1.505,3.029,2.844,4.451,3.995c3.299,2.672,6.021,4.321,6.461,4.59l6.463-6.463
		c-0.004-0.004-0.007-0.006-0.011-0.009C218.879,320.781,215.439,317.94,212.086,314.579z"/>
	<path style="fill:#FFAB97;" d="M289.657,317.534l0.001-0.001c12.812-14.971,16.758-34.96,11.855-53.032l-64.998,64.998
		c4.936,1.342,10.074,2.05,15.326,2.05C265.872,331.549,279.133,326.594,289.657,317.534z"/>
	<path style="fill:#FFAB97;" d="M286.579,238.724c-3.328-3.329-6.993-6.195-10.912-8.586l-73.161,73.161
		c2.864,3.972,6.058,7.746,9.581,11.28c3.353,3.361,6.793,6.202,9.712,8.403c0.004,0.003,0.007,0.005,0.011,0.009l73.34-73.341
		C292.786,245.76,289.938,242.082,286.579,238.724z"/>
	<path style="fill:#C03A3A;" d="M297.186,228.116c-13.805-13.804-32.158-21.406-51.68-21.406c-12.405,0-24.334,3.081-34.928,8.862
		c-7.827-8.002-16.957-14.434-26.922-19.067c2.349-2.933,3.763-6.644,3.763-10.684c0-4.048-1.419-7.766-3.775-10.7
		c31.352-14.633,53.133-46.455,53.133-83.274C236.778,41.202,195.575,0,144.93,0C94.287,0,53.084,41.202,53.084,91.847
		c0,36.819,21.781,68.642,53.133,83.274c-2.355,2.936-3.773,6.653-3.773,10.7c0,4.048,1.418,7.766,3.774,10.7
		c-31.352,14.633-53.134,46.456-53.134,83.275c0,50.643,41.202,91.846,91.846,91.846c24.831,0,48.41-9.997,65.648-27.622
		c10.596,5.78,22.523,8.861,34.93,8.861c19.521,0,37.874-7.602,51.678-21.405C325.682,302.979,325.682,256.612,297.186,228.116z
		 M207.776,235.651c10.51-9.013,23.738-13.941,37.73-13.941c1.703,0,3.393,0.082,5.07,0.229c3.492,0.305,6.92,0.914,10.254,1.82
		l-71.361,71.361c-1.342-4.934-2.05-10.073-2.05-15.324c0-6.947,1.221-13.704,3.544-20.038c0.924-2.52,2.042-4.963,3.311-7.333
		c2.664-4.977,6.056-9.597,10.16-13.701C205.51,237.648,206.631,236.632,207.776,235.651z M68.084,91.847
		C68.084,49.474,102.557,15,144.93,15c17.679,0,33.969,6.016,46.968,16.087c18.158,14.068,29.88,36.064,29.88,60.76
		c0,42.372-34.474,76.845-76.848,76.845c-13.454,0-26.105-3.485-37.115-9.586C84.148,145.994,68.084,120.765,68.084,91.847z
		 M172.419,185.821c0,1.175-0.955,2.13-2.13,2.13h-0.468h-40.717h-9.532c-1.174,0-2.129-0.955-2.129-2.13
		c0-1.175,0.955-2.13,2.129-2.13h9.532h40.717h0.468C171.464,183.691,172.419,184.646,172.419,185.821z M144.93,356.643
		c-13.214,0-25.658-3.355-36.53-9.253c-23.989-13.018-40.315-38.434-40.315-67.593c0-42.373,34.473-76.846,76.846-76.846
		c19.91,0,38.859,7.682,53.101,21.301c-0.014,0.011-0.032,0.024-0.046,0.036c-1.5,1.197-4.527,3.284-7.002,6.851
		c-12.375-11.745-28.706-18.354-46.053-18.354c-8.128,0-15.922,1.457-23.137,4.12c-25.582,9.441-43.874,34.069-43.874,62.892
		c0,2.298,0.628,9.195,0.75,10.009c4.847,32.219,32.712,57.003,66.261,57.003c17.346,0,33.678-6.609,46.053-18.355
		c2.649,3.466,5.609,5.654,7.049,6.888C183.79,348.961,164.84,356.643,144.93,356.643z M182.099,316.166
		c-9.759,9.992-23.032,15.643-37.169,15.643c-6.862,0-13.412-1.349-19.416-3.774c-19.086-7.71-32.595-26.42-32.595-48.237
		c0-28.68,23.332-52.012,52.011-52.012c9.551,0,18.702,2.588,26.646,7.342c3.815,2.282,7.355,5.059,10.521,8.3
		c-6.303,10.949-9.679,23.396-9.679,36.369C172.419,292.769,175.795,305.217,182.099,316.166z M215.346,329.454
		c-0.439-0.268-3.162-1.918-6.461-4.59c-1.422-1.151-2.95-2.49-4.451-3.995c-3.323-3.333-6.195-6.994-8.586-10.913l79.818-79.818
		c3.919,2.391,7.584,5.257,10.912,8.586c3.359,3.358,6.207,7.036,8.57,10.927L215.346,329.454z M245.508,337.882
		c-5.252,0-10.391-0.708-15.326-2.05l71.331-71.331c4.902,18.072,0.956,38.061-11.855,53.032c-0.977,1.142-1.999,2.257-3.079,3.337
		C275.609,331.841,261.023,337.882,245.508,337.882z"/>
</g>
<g>
</g>
<g>
</g>
<g>
</g>
<g>
</g>
<g>
</g>
<g>
</g>
<g>
</g>
<g>
</g>
<g>
</g>
<g>
</g>
<g>
</g>
<g>
</g>
<g>
</g>
<g>
</g>
<g>
</g>
</svg>
