<?xml version="1.0" encoding="iso-8859-1"?>
<!-- Generator: Adobe Illustrator 19.1.0, SVG Export Plug-In . SVG Version: 6.00 Build 0)  -->
<svg version="1.1" id="Capa_1" xmlns="http://www.w3.org/2000/svg" xmlns:xlink="http://www.w3.org/1999/xlink" x="0px" y="0px"
	 viewBox="0 0 345.857 345.857" style="enable-background:new 0 0 345.857 345.857;" xml:space="preserve">
<g>
	<path style="fill:#FFFFFF;" d="M95.841,35.992c0-6.893,5.607-12.5,12.5-12.5h150.654c0.374,0,0.743,0.024,1.109,0.056
		c-1.658-4.96-6.339-8.548-11.85-8.548H97.602c-6.893,0-12.5,5.608-12.5,12.5v10.769c0,6.518,5.016,11.879,11.39,12.444
		c-0.416-1.244-0.65-2.57-0.65-3.952V35.992z"/>
	<path style="fill:#FFFFFF;" d="M131.384,65.769h-12.99c4.775,18.023,27.403,31.718,54.534,31.718c2.198,0,4.363-0.099,6.495-0.274
		C155.242,95.23,135.773,82.332,131.384,65.769z"/>
	<path style="fill:#1B9F49;" d="M182.832,112.487c0.005-0.176,0.011-0.357,0.017-0.528c-1.645,0.175-3.304,0.308-4.972,0.396
		c1.64,0.087,3.289,0.132,4.948,0.132C182.828,112.487,182.83,112.487,182.832,112.487z"/>
	<path style="fill:#FFFFFF;" d="M172.877,326.55c-5.118-5.887-12.555-23.442-4.852-74.869c7.011-46.802,5.675-114.702,4.897-139.194
		c-3.345,0-6.656-0.181-9.914-0.528c0.774,24.038,2.181,92.585-4.881,139.723c-7.703,51.426-0.267,68.981,4.852,74.869
		c2.589,2.977,5.743,4.331,9.88,4.307c0.023,0,0.047,0,0.07,0c0.013,0,0.024,0.002,0.037,0.002c0.011,0,0.02-0.001,0.031-0.001
		c1.818,0.027,3.433-0.243,4.902-0.785C175.998,329.382,174.342,328.234,172.877,326.55z"/>
	<path style="fill:#FFAB97;" d="M260.105,23.548c-0.366-0.032-0.735-0.056-1.109-0.056H108.341c-6.893,0-12.5,5.607-12.5,12.5
		v10.769c0,1.382,0.234,2.708,0.65,3.952c0.366,0.032,0.735,0.056,1.11,0.056h150.654c6.893,0,12.5-5.607,12.5-12.5V27.5
		C260.755,26.118,260.521,24.792,260.105,23.548z M238.658,40.385H107.2c-4.142,0-7.5-3.358-7.5-7.5c0-4.142,3.358-7.5,7.5-7.5
		h131.457c4.143,0,7.5,3.358,7.5,7.5C246.158,37.027,242.8,40.385,238.658,40.385z"/>
	<path style="fill:#C03A3A;" d="M238.658,25.385H107.2c-4.142,0-7.5,3.358-7.5,7.5c0,4.142,3.358,7.5,7.5,7.5h131.457
		c4.143,0,7.5-3.358,7.5-7.5C246.158,28.743,242.8,25.385,238.658,25.385z"/>
	<path style="fill:none;" d="M182.832,112.487c0.005-0.176,0.011-0.357,0.017-0.528c-1.645,0.175-3.302,0.308-4.971,0.396
		c1.64,0.087,3.289,0.132,4.947,0.132C182.828,112.487,182.83,112.487,182.832,112.487z"/>
	<path style="fill:#FF8269;" d="M168.026,251.681c-7.703,51.426-0.267,68.981,4.852,74.869c1.465,1.685,3.12,2.833,5.023,3.522l0,0
		c1.885-0.695,3.523-1.849,4.978-3.521c5.117-5.888,12.555-23.443,4.85-74.869c-7.008-46.796-5.674-114.692-4.896-139.194
		c-0.003,0-0.005,0-0.007,0c-1.658,0-3.308-0.045-4.947-0.132c-1.64,0.087-3.29,0.132-4.95,0.132c-0.001,0-0.003,0-0.005,0l0,0
		C173.701,136.979,175.037,204.879,168.026,251.681z"/>
	<path style="fill:#FF8269;" d="M179.423,97.213c24.179-1.983,43.639-14.882,48.025-31.444h-96.064
		C135.773,82.332,155.242,95.23,179.423,97.213z"/>
	<path style="fill:#C03A3A;" d="M248.255,0H97.602c-15.163,0-27.5,12.336-27.5,27.5v10.769c0,15.164,12.337,27.5,27.5,27.5h5.463
		c2.038,12.084,9.264,23.151,20.891,31.699c6.957,5.115,15.099,9.003,23.938,11.545c0.674,19.637,2.557,92.676-4.599,140.445
		c-6.556,43.76-3.741,73.008,8.366,86.933c5.388,6.197,12.656,9.465,21.038,9.465c0.076,0,0.153-0.001,0.23-0.001
		c0.077,0,0.154,0.001,0.231,0.001c8.38,0,15.65-3.269,21.037-9.465c12.107-13.925,14.922-43.174,8.365-86.933
		c-7.154-47.77-5.271-120.809-4.598-140.446c8.84-2.543,16.98-6.43,23.939-11.545c11.625-8.548,18.852-19.615,20.885-31.699h5.467
		c15.164,0,27.5-12.336,27.5-27.5V27.5C275.755,12.336,263.419,0,248.255,0z M85.102,38.269V27.5c0-6.892,5.607-12.5,12.5-12.5
		h150.654c5.511,0,10.19,3.588,11.85,8.548c0.416,1.244,0.65,2.57,0.65,3.952v10.769c0,6.893-5.607,12.5-12.5,12.5H97.602
		c-0.375,0-0.744-0.024-1.11-0.056C90.118,50.148,85.102,44.787,85.102,38.269z M182.878,326.55
		c-1.454,1.672-3.093,2.827-4.978,3.521c-1.47,0.542-3.084,0.812-4.902,0.785c-0.011,0-0.02,0.001-0.031,0.001
		c-0.013,0-0.024-0.002-0.037-0.002c-0.023,0-0.047,0-0.07,0c-4.137,0.024-7.291-1.33-9.88-4.307
		c-5.118-5.887-12.555-23.442-4.852-74.869c7.062-47.138,5.655-115.685,4.881-139.723c3.258,0.347,6.569,0.528,9.913,0.528
		c0.002,0,0.004,0,0.005,0c1.66,0,3.31-0.045,4.95-0.132c1.669-0.088,3.326-0.221,4.971-0.396c-0.006,0.171-0.012,0.353-0.017,0.528
		c-0.778,24.502-2.112,92.398,4.896,139.194C195.433,303.107,187.996,320.663,182.878,326.55z M179.423,97.213
		c-2.132,0.175-4.297,0.274-6.495,0.274c-27.131,0-49.759-13.695-54.534-31.718h12.99h96.064
		C223.062,82.331,203.602,95.23,179.423,97.213z"/>
</g>
<g>
</g>
<g>
</g>
<g>
</g>
<g>
</g>
<g>
</g>
<g>
</g>
<g>
</g>
<g>
</g>
<g>
</g>
<g>
</g>
<g>
</g>
<g>
</g>
<g>
</g>
<g>
</g>
<g>
</g>
</svg>
