<?xml version="1.0" encoding="iso-8859-1"?>
<!-- Generator: Adobe Illustrator 19.1.0, SVG Export Plug-In . SVG Version: 6.00 Build 0)  -->
<svg version="1.1" id="Capa_1" xmlns="http://www.w3.org/2000/svg" xmlns:xlink="http://www.w3.org/1999/xlink" x="0px" y="0px"
	 viewBox="0 0 327.93 327.93" style="enable-background:new 0 0 327.93 327.93;" xml:space="preserve">
<g>
	<path style="fill:#FFFFFF;" d="M84.122,295.191c-3.63-5.187-5.769-11.491-5.769-18.289c0-6.797,2.138-13.1,5.767-18.287
		c6.277-10.607,17.83-17.74,31.023-17.74c0.588,0,2.33,0.05,2.441,0.045c30.127-1.331,36.18-42.579,36.531-45.191l2.167-14.722
		c-0.711-6.848-1.385-13.329-1.988-19.15l-4.986,33.872c-0.352,2.612-6.404,43.86-36.531,45.191
		c-0.111,0.005-1.854-0.045-2.441-0.045c-19.865,0-36.027,16.162-36.027,36.027s16.162,36.027,36.027,36.027
		c0.812,0,1.615-0.036,2.413-0.088C100.562,312.037,90.017,305.15,84.122,295.191z"/>
	<path style="fill:none;" d="M217.594,293.885c9.365,0,16.982-7.618,16.982-16.982c0-9.364-7.617-16.982-16.982-16.982
		c-9.363,0-16.982,7.618-16.982,16.982C200.611,286.267,208.23,293.885,217.594,293.885z"/>
	<path style="fill:none;" d="M127.318,276.902c0-9.364-7.619-16.982-16.982-16.982c-9.365,0-16.982,7.618-16.982,16.982
		c0,9.364,7.617,16.982,16.982,16.982C119.699,293.885,127.318,286.267,127.318,276.902z"/>
	<polygon style="fill:none;" points="219.997,308.785 219.999,308.785 219.997,308.785 	"/>
	<polygon style="fill:none;" points="219.997,245.02 219.997,245.02 220,245.02 	"/>
	<path style="fill:none;" d="M234.576,276.902c0-9.364-7.617-16.982-16.982-16.982c-9.363,0-16.982,7.618-16.982,16.982
		c0,9.364,7.619,16.982,16.982,16.982C226.959,293.885,234.576,286.267,234.576,276.902z"/>
	<path style="fill:#FFAB97;" d="M156.283,181.005v0.001l-2.167,14.722c-0.352,2.612-6.404,43.86-36.531,45.191
		c-0.111,0.005-1.854-0.045-2.441-0.045c-13.193,0-24.746,7.133-31.023,17.74c-0.001,0.001-0.001,0.002-0.002,0.003
		c5.787-8.273,15.378-13.699,26.218-13.699c17.635,0,31.982,14.348,31.982,31.982c0,17.636-14.348,31.982-31.982,31.982
		c-10.835,0-20.424-5.421-26.211-13.689c5.895,9.957,16.439,16.842,28.624,17.646c17.482-1.146,31.656-14.635,33.431-32.283
		c0-0.005,0.002-0.009,0.002-0.014c0.002-0.005,0-0.01,0.002-0.016l10.252-98.059C156.385,181.979,156.334,181.494,156.283,181.005z
		"/>
	<path style="fill:#C03A3A;" d="M110.336,308.885c17.635,0,31.982-14.347,31.982-31.982c0-17.635-14.348-31.982-31.982-31.982
		c-10.84,0-20.431,5.426-26.218,13.699c-3.628,5.186-5.765,11.488-5.765,18.284c0,6.8,2.14,13.105,5.771,18.293
		C89.912,303.463,99.501,308.885,110.336,308.885z M110.336,259.92c9.363,0,16.982,7.618,16.982,16.982
		c0,9.364-7.619,16.982-16.982,16.982c-9.365,0-16.982-7.618-16.982-16.982C93.353,267.538,100.971,259.92,110.336,259.92z"/>
	<polygon style="fill:none;" points="163.654,84.159 171.5,84.159 171.5,61.236 169.017,52.531 163.654,71.331 	"/>
	<polygon style="fill:#FFFFFF;" points="163.654,71.331 169.017,52.531 163.973,34.842 156.443,61.236 156.443,84.159 
		163.654,84.159 	"/>
	<polygon style="fill:#FFAB97;" points="163.654,84.159 171.5,84.159 171.5,61.236 169.017,52.531 169.017,52.531 163.654,71.331 	
		"/>
	<polygon style="fill:none;" points="171.5,84.159 171.5,61.236 169.017,52.531 163.973,34.842 156.443,61.236 156.443,84.159 
		163.654,84.159 	"/>
	<path style="fill:none;" d="M220.006,312.84c-0.798,0.053-1.601,0.09-2.412,0.09C218.405,312.93,219.208,312.893,220.006,312.84
		L220.006,312.84z"/>
	<path style="fill:none;" d="M217.594,293.885c9.365,0,16.982-7.618,16.982-16.982c0-9.364-7.617-16.982-16.982-16.982
		c-9.363,0-16.982,7.618-16.982,16.982C200.611,286.267,208.23,293.885,217.594,293.885z"/>
	<path style="fill:#C03A3A;" d="M217.594,308.885c0.81,0,1.608-0.04,2.403-0.1h0.002c16.515-1.235,29.577-15.057,29.577-31.883
		c0-16.824-13.062-30.646-29.576-31.882c-0.001,0-0.002,0-0.003,0c-0.795-0.059-1.594-0.1-2.403-0.1
		c-16.401,0-29.953,12.414-31.768,28.338v0.001v0c-0.137,1.197-0.214,2.411-0.214,3.644c0,6.894,2.2,13.28,5.925,18.508
		C197.339,303.557,206.852,308.885,217.594,308.885z M217.594,259.92c9.365,0,16.982,7.618,16.982,16.982
		c0,9.364-7.617,16.982-16.982,16.982c-9.363,0-16.982-7.618-16.982-16.982C200.611,267.538,208.23,259.92,217.594,259.92z"/>
	<polygon style="fill:none;" points="171.5,84.159 171.5,61.236 169.017,52.531 163.973,34.842 156.443,61.236 156.443,84.159 
		163.654,84.159 	"/>
	<path style="fill:none;" d="M217.594,240.875c-0.578,0-3.088,0.012-3.287-0.005c-29.709-2.031-35.465-43.449-35.695-45.212
		c-0.021-0.153-6.615-96.499-6.615-96.499h-10.589H156.6c0.26,10.021,0.715,19.875,1.201,22.772
		c0.018,0.027,0.049,0.064,0.068,0.093c0.051,0.069,3.764,4.392,6.125,6.533c1.369,1.241,2.23,2.944,2.422,4.782
		c5.051,48.702,15.25,146.09,15.266,146.279c1.391,18.679,17.164,33.311,35.912,33.311c0.812,0,1.614-0.037,2.413-0.09
		c18.743-1.247,33.614-16.884,33.614-35.938C253.621,257.037,237.459,240.875,217.594,240.875z"/>
	<path style="fill:#C03A3A;" d="M217.594,225.875c-0.617,0-2.432,0.018-2.432,0.018c-16.408-1.409-21.262-29.547-21.652-32.01
		L186.5,91.404V60.188c0-0.695-0.096-1.388-0.287-2.057L171.184,5.442C170.266,2.222,167.322,0,163.973,0
		c-3.35,0-6.295,2.222-7.213,5.442L141.73,58.131c-0.191,0.669-0.287,1.361-0.287,2.057c0,0,0,31.566,0,31.586
		c0.475,31.142,1.861,34.48,2.383,35.737c0.078,0.186,0.188,0.38,0.277,0.568c0,0-9.652,65.59-9.656,65.621
		c-0.043,0.313-4.693,31.285-22.195,32.221c-0.637-0.023-1.273-0.046-1.916-0.046c-28.137,0-51.027,22.891-51.027,51.027
		c0,28.137,22.891,51.027,51.027,51.027c26.295,0,48.107-19.692,50.762-45.815c0-0.009,0.002-0.017,0.004-0.025l2.859-27.363
		c0.123,1.161,2.76,26.078,2.773,26.175c2.053,26.384,24.361,47.029,50.859,47.029c28.137,0,51.027-22.891,51.027-51.027
		C268.621,248.766,245.73,225.875,217.594,225.875z M156.443,61.236l7.529-26.395l5.045,17.689l2.482,8.705v22.923h-7.846h-7.211
		V61.236z M74.309,276.902c0-19.865,16.162-36.027,36.027-36.027c0.588,0,2.33,0.05,2.441,0.045
		c30.127-1.331,36.18-42.579,36.531-45.191l4.986-33.872c0.604,5.82,1.277,12.302,1.988,19.149c0.051,0.488,0.102,0.973,0.152,1.465
		l-10.252,98.059c-0.002,0.006,0,0.011-0.002,0.016c0,0.005-0.002,0.009-0.002,0.014c-1.774,17.648-15.948,31.137-33.431,32.283
		c-0.799,0.052-1.602,0.088-2.413,0.088C90.471,312.93,74.309,296.767,74.309,276.902z M220.007,312.84
		c-0.799,0.053-1.602,0.09-2.413,0.09c-18.748,0-34.521-14.632-35.912-33.311c-0.016-0.189-10.215-97.577-15.266-146.279
		c-0.191-1.838-1.053-3.541-2.422-4.782c-2.361-2.142-6.074-6.464-6.125-6.533c-0.02-0.028-0.051-0.065-0.068-0.093
		c-0.486-2.897-0.941-12.751-1.201-22.772h4.808h10.589c0,0,6.594,96.346,6.615,96.499c0.23,1.763,5.986,43.181,35.695,45.212
		c0.199,0.017,2.709,0.005,3.287,0.005c19.865,0,36.027,16.162,36.027,36.027C253.621,295.956,238.75,311.593,220.007,312.84z"/>
	<path style="fill:#FFAB97;" d="M217.594,240.875c-0.578,0-3.088,0.012-3.287-0.005c-29.709-2.031-35.465-43.449-35.695-45.212
		c-0.021-0.153-6.615-96.499-6.615-96.499h-10.589c0.02,0.802,0.043,1.602,0.066,2.398c1.003-0.48,2.109-0.747,3.233-0.747
		c1.971,0,3.91,0.8,5.301,2.2c1.4,1.39,2.199,3.32,2.199,5.3c0,1.97-0.799,3.91-2.199,5.3c-1.391,1.4-3.32,2.2-5.301,2.2
		c-0.917,0-1.822-0.179-2.67-0.503c0.178,3.062,0.372,5.435,0.571,6.624c0.017,0.027,0.049,0.064,0.068,0.093
		c0.051,0.069,3.764,4.392,6.125,6.533c1.369,1.241,2.23,2.944,2.422,4.782c4.28,41.275,12.258,117.508,14.602,139.918
		c1.815-15.924,15.367-28.338,31.768-28.338c0.81,0,1.608,0.04,2.403,0.1c0.001,0,0.002,0,0.003,0
		c16.515,1.236,29.576,15.058,29.576,31.882c0,16.826-13.062,30.647-29.577,31.883c0,0-0.001,0-0.002,0
		c-0.795,0.06-1.594,0.1-2.403,0.1c-10.741,0-20.255-5.328-26.058-13.474c0,0.001,0,0.001,0,0.001
		c5.95,9.856,16.48,16.626,28.47,17.429h0.001c18.743-1.247,33.614-16.884,33.614-35.938
		C253.621,257.037,237.459,240.875,217.594,240.875z"/>
	<g>
		<path style="fill:#FFFFFF;" d="M191.536,295.412c-3.725-5.228-5.925-11.615-5.925-18.509c0-1.232,0.077-2.447,0.214-3.644v0
			c-2.344-22.41-10.321-98.643-14.602-139.919c-0.191-1.838-1.053-3.541-2.422-4.782c-2.361-2.142-6.074-6.464-6.125-6.533
			c-0.02-0.028-0.051-0.065-0.068-0.093c-0.199-1.189-0.394-3.562-0.571-6.624c-0.98-0.375-1.884-0.946-2.629-1.697
			c-1.4-1.39-2.201-3.33-2.201-5.3c0-1.979,0.801-3.91,2.201-5.3c0.6-0.604,1.304-1.089,2.065-1.454
			c-0.023-0.796-0.046-1.596-0.066-2.398H156.6c0.26,10.021,0.715,19.875,1.201,22.772c0.018,0.027,0.049,0.064,0.068,0.093
			c0.051,0.069,3.764,4.392,6.125,6.533c1.369,1.241,2.23,2.944,2.422,4.782c5.051,48.702,15.25,146.09,15.266,146.279
			c1.391,18.679,17.164,33.311,35.912,33.311c0.812,0,1.614-0.037,2.412-0.09C208.016,312.037,197.486,305.267,191.536,295.412z"/>
		<path style="fill:#C03A3A;" d="M157.207,108.31c0,1.97,0.801,3.91,2.201,5.3c0.745,0.751,1.648,1.322,2.629,1.697
			c0.848,0.324,1.753,0.503,2.67,0.503c1.98,0,3.91-0.8,5.301-2.2c1.4-1.39,2.199-3.33,2.199-5.3c0-1.979-0.799-3.91-2.199-5.3
			c-1.391-1.4-3.33-2.2-5.301-2.2c-1.124,0-2.23,0.267-3.233,0.747c-0.762,0.365-1.466,0.849-2.065,1.454
			C158.008,104.4,157.207,106.331,157.207,108.31z"/>
	</g>
</g>
<g>
</g>
<g>
</g>
<g>
</g>
<g>
</g>
<g>
</g>
<g>
</g>
<g>
</g>
<g>
</g>
<g>
</g>
<g>
</g>
<g>
</g>
<g>
</g>
<g>
</g>
<g>
</g>
<g>
</g>
</svg>
