<?xml version="1.0" encoding="iso-8859-1"?>
<!-- Generator: Adobe Illustrator 19.1.0, SVG Export Plug-In . SVG Version: 6.00 Build 0)  -->
<svg version="1.1" id="Capa_1" xmlns="http://www.w3.org/2000/svg" xmlns:xlink="http://www.w3.org/1999/xlink" x="0px" y="0px"
	 viewBox="0 0 348.464 348.464" style="enable-background:new 0 0 348.464 348.464;" xml:space="preserve">
<g>
	<path style="fill:#FFFFFF;" d="M128.008,108.608h41.794c-1.222-1.809-3.291-3-5.633-3h-43.161c-3.747,0-6.795,3.048-6.795,6.794
		s3.048,6.794,6.795,6.794h1.366c-0.732-1.084-1.161-2.39-1.161-3.794C121.213,111.656,124.261,108.608,128.008,108.608z"/>
	<path style="fill:#FFFFFF;" d="M102.265,155.586c-13.534-37.121-16.756-75.729-17.522-91.608h-10
		c0.767,15.88,3.988,54.487,17.522,91.608c12.797,35.097,18.233,40.38,41.554,40.38h10
		C120.498,195.966,115.062,190.683,102.265,155.586z"/>
	<path style="fill:#FFAB97;" d="M170.963,112.402c0-1.404-0.428-2.71-1.16-3.794h-0.001h-41.794c-3.747,0-6.795,3.048-6.795,6.794
		c0,1.404,0.429,2.71,1.161,3.794h41.795C167.915,119.196,170.963,116.148,170.963,112.402z"/>
	<path style="fill:#C03A3A;" d="M164.169,90.608h-43.161c-12.018,0-21.795,9.776-21.795,21.794s9.777,21.794,21.795,21.794h43.161
		c12.018,0,21.794-9.776,21.794-21.794S176.187,90.608,164.169,90.608z M121.008,119.196c-3.747,0-6.795-3.048-6.795-6.794
		s3.048-6.794,6.795-6.794h43.161c2.342,0,4.411,1.191,5.634,3c0.732,1.084,1.16,2.39,1.16,3.794c0,3.746-3.048,6.794-6.794,6.794
		h-41.795H121.008z"/>
	<path style="fill:#FFFFFF;" d="M204.01,31.988v-9.445c-2.73-2.875-6.147-5.091-10-6.352v15.797c0,4.142-3.357,7.5-7.5,7.5h10
		C200.653,39.488,204.01,36.131,204.01,31.988z"/>
	<path style="fill:#FFFFFF;" d="M91.168,22.542v-6.351c-9.663,3.162-16.663,12.265-16.663,22.971v9.815h10v-9.815
		C84.505,32.724,87.048,26.877,91.168,22.542z"/>
	<path style="fill:#FFAB97;" d="M84.505,48.978h126.166v-9.815c0-6.438-2.542-12.284-6.661-16.619l0,0v9.445
		c0,4.142-3.357,7.5-7.5,7.5h-10h-77.842h-10c-4.143,0-7.5-3.358-7.5-7.5v-9.446c-4.12,4.335-6.663,10.182-6.663,16.62V48.978z"/>
	<path style="fill:none;" d="M185.963,112.402c0-12.018-9.776-21.794-21.794-21.794h-43.161c-12.018,0-21.795,9.776-21.795,21.794
		s9.777,21.794,21.795,21.794h43.161C176.187,134.196,185.963,124.42,185.963,112.402z"/>
	<path style="fill:none;" d="M210.671,48.978v-9.815c0-6.438-2.542-12.284-6.661-16.619c-2.73-2.875-6.147-5.091-10-6.352v15.797
		c0,4.142-3.357,7.5-7.5,7.5h-77.842h-10c-4.143,0-7.5-3.358-7.5-7.5v-9.446v-6.351c-9.663,3.162-16.663,12.265-16.663,22.971v9.815
		h10H210.671z"/>
	<path style="fill:#FF8269;" d="M192.911,155.586c13.561-37.192,16.768-75.747,17.526-91.608H84.743
		c0.767,15.88,3.988,54.487,17.522,91.608c12.797,35.097,18.233,40.38,41.554,40.38h7.538
		C174.677,195.966,180.114,190.683,192.911,155.586z M121.008,134.196c-12.018,0-21.795-9.776-21.795-21.794
		s9.777-21.794,21.795-21.794h43.161c12.018,0,21.794,9.776,21.794,21.794s-9.776,21.794-21.794,21.794H121.008z"/>
	<path style="fill:#C03A3A;" d="M281.459,333.464h-49.885c-5.679,0-10.298-4.619-10.298-10.297v-52.132
		c0-13.949-11.348-25.298-25.296-25.298c-13.95,0-25.299,11.349-25.299,25.298v52.132c0,5.678-4.619,10.297-10.296,10.297
		c-5.679,0-10.298-4.619-10.298-10.297V210.966h1.269c33.951,0,42.629-14.541,55.645-50.241
		c18.457-50.62,18.669-102.081,18.669-104.247V39.162C225.671,17.568,208.104,0,186.51,0c-4.143,0-7.5,3.358-7.5,7.5v16.988h-2.614
		V7.5c0-4.142-3.357-7.5-7.5-7.5c-4.143,0-7.5,3.358-7.5,7.5v16.988h-2.539V7.5c0-4.142-3.357-7.5-7.5-7.5
		c-4.143,0-7.5,3.358-7.5,7.5v16.988h-2.538V7.5c0-4.142-3.357-7.5-7.5-7.5c-4.143,0-7.5,3.358-7.5,7.5v16.988h-2.538V7.5
		c0-4.142-3.357-7.5-7.5-7.5c-4.143,0-7.5,3.358-7.5,7.5v16.988h-2.612V7.5c0-4.142-3.357-7.5-7.5-7.5
		C77.074,0,59.505,17.568,59.505,39.162v17.296c0,0.007-0.001,0.013-0.001,0.02c0,2.166,0.212,53.627,18.669,104.247
		c13.017,35.7,21.694,50.241,55.646,50.241h1.27v112.201c0,13.949,11.349,25.297,25.298,25.297
		c13.948,0,25.296-11.348,25.296-25.297v-52.132c0-5.679,4.62-10.298,10.299-10.298c5.677,0,10.296,4.619,10.296,10.298v52.132
		c0,13.949,11.349,25.297,25.298,25.297h49.885c4.143,0,7.5-3.357,7.5-7.5C288.959,336.822,285.602,333.464,281.459,333.464z
		 M74.505,39.162c0-10.706,7-19.809,16.663-22.971v6.351v9.446c0,4.142,3.357,7.5,7.5,7.5h10h77.842c4.143,0,7.5-3.358,7.5-7.5
		V16.191c3.853,1.261,7.27,3.477,10,6.352c4.119,4.335,6.661,10.181,6.661,16.619v9.815H84.505h-10V39.162z M133.819,195.966
		c-23.32,0-28.757-5.283-41.554-40.38c-13.534-37.121-16.756-75.729-17.522-91.608h10h125.694
		c-0.759,15.861-3.966,54.416-17.526,91.608c-12.797,35.097-18.233,40.38-41.554,40.38h-7.538H133.819z"/>
</g>
<g>
</g>
<g>
</g>
<g>
</g>
<g>
</g>
<g>
</g>
<g>
</g>
<g>
</g>
<g>
</g>
<g>
</g>
<g>
</g>
<g>
</g>
<g>
</g>
<g>
</g>
<g>
</g>
<g>
</g>
</svg>
