<?xml version="1.0" encoding="iso-8859-1"?>
<!-- Generator: Adobe Illustrator 19.1.0, SVG Export Plug-In . SVG Version: 6.00 Build 0)  -->
<svg version="1.1" id="Capa_1" xmlns="http://www.w3.org/2000/svg" xmlns:xlink="http://www.w3.org/1999/xlink" x="0px" y="0px"
	 viewBox="0 0 360.332 360.332" style="enable-background:new 0 0 360.332 360.332;" xml:space="preserve">
<g>
	<path style="fill:#FFFFFF;" d="M339.529,76.83l2.695-2.695l-7.85-7.85l-45.315,45.313c1.033,0.884,2.033,1.801,3.016,2.733
		l42.478-42.477L339.529,76.83z"/>
	<path style="fill:#FF8269;" d="M292.076,114.331c1.709,1.62,3.349,3.301,4.895,5.058l42.559-42.559l-4.976-4.976L292.076,114.331z"
		/>
	<path style="fill:#FF8269;" d="M57.931,164.601l3.21,3.209c0.983-1.085,2.052-2.09,3.205-2.995l-5.312-5.311
		c-0.402,0.15-0.781,0.381-1.104,0.703C56.72,161.419,56.72,163.39,57.931,164.601z"/>
	<path style="fill:#FF8269;" d="M19.808,108.062c0,0.48,0.118,1.405,0.91,2.197l5.231,5.231c1.07-1.055,2.162-2.09,3.294-3.089
		l-7.281-7.28c-0.454,0.146-0.885,0.385-1.244,0.745C19.926,106.658,19.808,107.582,19.808,108.062z"/>
	<path style="fill:#FFFFFF;" d="M90.15,184.349h158.914c0.214,0,0.422,0.02,0.632,0.032c-0.33-5.586-4.965-10.032-10.632-10.032
		H80.15c-5.881,0-10.664,4.784-10.664,10.665v112.139h10V195.014C79.486,189.133,84.269,184.349,90.15,184.349z"/>
	<path style="fill:#FF8269;" d="M249.064,184.349H90.15c-5.881,0-10.664,4.784-10.664,10.665v102.139h170.242V185.014
		c0-0.213-0.02-0.422-0.032-0.633l0,0C249.486,184.369,249.278,184.349,249.064,184.349z"/>
	<path style="fill:#FFFFFF;" d="M28.965,176.849c0-33.285,29.89-60.364,66.629-60.364h148.027c16.877,0,32.298,5.725,44.05,15.13
		c-12.109-15.205-31.818-25.13-54.05-25.13H85.594c-36.739,0-66.629,27.079-66.629,60.364v119.639
		c0,5.668,4.446,10.304,10.032,10.634c-0.013-0.211-0.032-0.42-0.032-0.634V176.849z"/>
	<path style="fill:none;" d="M263.888,178.497c-0.005-0.02-0.012-0.039-0.017-0.059
		C263.876,178.458,263.883,178.478,263.888,178.497z"/>
	<path style="fill:none;" d="M264.679,183.483c-0.009-0.15-0.023-0.299-0.034-0.448C264.656,183.184,264.67,183.333,264.679,183.483
		z"/>
	<path style="fill:none;" d="M264.282,180.276c-0.017-0.09-0.03-0.181-0.048-0.271C264.252,180.094,264.266,180.185,264.282,180.276
		z"/>
	<path style="fill:none;" d="M264.538,181.937c-0.02-0.154-0.038-0.307-0.059-0.46C264.5,181.63,264.518,181.783,264.538,181.937z"
		/>
	<polygon style="fill:none;" points="261.501,172.574 261.505,172.579 261.502,172.574 	"/>
	<path style="fill:none;" d="M262.918,175.564c-0.026-0.066-0.052-0.132-0.078-0.198
		C262.866,175.432,262.892,175.498,262.918,175.564z"/>
	<path style="fill:none;" d="M263.457,177.049c-0.028-0.087-0.059-0.173-0.088-0.259
		C263.398,176.876,263.429,176.962,263.457,177.049z"/>
	<path style="fill:#FFAB97;" d="M289.586,297.153c5.881,0,10.664-4.785,10.664-10.666V166.849c0-13.144-4.675-25.311-12.578-35.234
		c-0.001-0.001-0.001-0.001-0.001-0.001c-11.752-9.405-27.173-15.13-44.05-15.13H95.594c-36.739,0-66.629,27.079-66.629,60.364
		v119.639c0,0.214,0.02,0.423,0.032,0.634l0,0c0.21,0.013,0.418,0.032,0.632,0.032h24.857V185.014c0-0.02,0.001-0.038,0.001-0.058
		l-1.072-1.072l-10-10c-7.06-7.06-7.06-18.547,0-25.606c7.06-7.06,18.547-7.06,25.606,0l11.072,11.073
		c0.02,0,0.038-0.001,0.057-0.001h158.914c9.64,0,18.051,5.345,22.437,13.225c0.001,0,0.001,0,0.001,0
		c0.001,0.001,0.001,0.003,0.003,0.005c0.499,0.897,0.944,1.828,1.335,2.787c0.026,0.066,0.052,0.132,0.078,0.198
		c0.161,0.404,0.31,0.812,0.451,1.226c0.029,0.086,0.06,0.172,0.088,0.259c0.149,0.458,0.29,0.921,0.414,1.39
		c0.005,0.02,0.012,0.039,0.017,0.059c0.131,0.497,0.246,1,0.347,1.507c0.017,0.09,0.031,0.181,0.048,0.271
		c0.075,0.397,0.141,0.798,0.197,1.202c0.021,0.152,0.039,0.306,0.059,0.46c0.043,0.363,0.078,0.729,0.106,1.097
		c0.012,0.149,0.025,0.298,0.034,0.448c0.03,0.507,0.05,1.017,0.05,1.532v0.001v112.139h10H289.586z"/>
	<path style="fill:#C03A3A;" d="M360.332,74.135c0-1.989-0.791-3.897-2.197-5.303l-18.457-18.457c-2.928-2.929-7.678-2.929-10.607,0
		l-52.451,52.451c-12.496-7.18-27.229-11.342-42.998-11.342H85.594c-16.227,0-31.352,4.413-44.074,11.98L30.91,92.856
		c-7.061-7.06-18.547-7.061-25.605,0C1.884,96.275,0,100.822,0,105.659c0,4.836,1.883,9.384,5.304,12.804l10.05,10.05
		c-7.225,11.24-11.389,24.345-11.389,38.336v119.638c0,14.152,11.513,25.666,25.664,25.666h259.957
		c14.15,0,25.664-11.514,25.664-25.666V166.849c0-12.669-3.418-24.61-9.426-35.101l52.311-52.311
		C359.541,78.032,360.332,76.124,360.332,74.135z M15,105.659c0-0.48,0.118-1.404,0.91-2.196c1.211-1.211,3.183-1.211,4.394,0
		l1.658,1.658l7.281,7.28c-1.132,0.999-2.224,2.035-3.294,3.089c-0.403,0.398-0.814,0.789-1.208,1.196l-8.831-8.83
		C15.118,107.064,15,106.139,15,105.659z M61.141,167.81c-0.41,0.453-0.81,0.916-1.188,1.398l-5.932-5.931
		c-1.211-1.211-1.211-3.182,0-4.394c1.212-1.211,3.182-1.211,4.393,0l0.62,0.62l5.312,5.311
		C63.192,165.72,62.124,166.725,61.141,167.81z M249.729,297.153H79.486h-10V185.014c0-5.881,4.783-10.665,10.664-10.665h158.914
		c5.667,0,10.302,4.446,10.632,10.032c0.013,0.211,0.032,0.42,0.032,0.633V297.153z M300.25,286.487
		c0,5.881-4.783,10.666-10.664,10.666h-14.857h-10V185.015v-0.001c0-0.515-0.019-1.024-0.05-1.532
		c-0.009-0.15-0.023-0.299-0.034-0.448c-0.028-0.368-0.064-0.734-0.106-1.097c-0.02-0.154-0.038-0.307-0.059-0.46
		c-0.057-0.404-0.122-0.805-0.197-1.202c-0.017-0.09-0.03-0.182-0.048-0.271c-0.101-0.508-0.216-1.01-0.347-1.507
		c-0.005-0.02-0.012-0.039-0.017-0.059c-0.124-0.469-0.265-0.932-0.414-1.39c-0.028-0.087-0.059-0.173-0.088-0.259
		c-0.141-0.414-0.29-0.822-0.451-1.226c-0.026-0.066-0.052-0.132-0.078-0.198c-0.391-0.959-0.836-1.89-1.335-2.787
		c-0.002-0.002-0.002-0.003-0.004-0.005c-4.386-7.88-12.797-13.225-22.437-13.225H80.15c-0.019,0-0.037,0.001-0.057,0.001
		l-11.072-11.073c-7.06-7.06-18.547-7.06-25.606,0c-7.06,7.06-7.06,18.547,0,25.606l10,10l1.072,1.072
		c0,0.02-0.001,0.039-0.001,0.058v112.139H29.629c-0.214,0-0.422-0.02-0.632-0.032c-5.586-0.33-10.032-4.966-10.032-10.634V166.849
		c0-33.285,29.89-60.365,66.629-60.365h148.027c22.231,0,41.94,9.925,54.051,25.131c7.903,9.923,12.578,22.09,12.578,35.234V286.487
		z M339.529,76.83l-42.559,42.559c-1.546-1.756-3.186-3.438-4.895-5.058c-0.983-0.932-1.983-1.849-3.016-2.733l45.315-45.313
		l7.85,7.85L339.529,76.83z"/>
	<path style="fill:#FFFFFF;" d="M57.931,160.207c0.322-0.322,0.701-0.553,1.104-0.703l-0.619-0.62c-1.211-1.211-3.182-1.211-4.393,0
		c-1.211,1.212-1.211,3.183,0,4.394l5.932,5.932c0.377-0.482,0.775-0.945,1.188-1.398l-3.211-3.21
		C56.72,163.39,56.72,161.419,57.931,160.207z"/>
	<path style="fill:#FFFFFF;" d="M19.808,108.062c0-0.48,0.118-1.404,0.91-2.196c0.359-0.36,0.79-0.599,1.244-0.745l-1.658-1.658
		c-1.211-1.211-3.183-1.211-4.394,0c-0.792,0.792-0.91,1.716-0.91,2.196c0,0.48,0.118,1.405,0.91,2.197l8.831,8.83
		c0.394-0.406,0.805-0.798,1.208-1.196l-5.231-5.231C19.926,109.467,19.808,108.543,19.808,108.062z"/>
</g>
<g>
</g>
<g>
</g>
<g>
</g>
<g>
</g>
<g>
</g>
<g>
</g>
<g>
</g>
<g>
</g>
<g>
</g>
<g>
</g>
<g>
</g>
<g>
</g>
<g>
</g>
<g>
</g>
<g>
</g>
</svg>
